<svg
      xmlns="http://www.w3.org/2000/svg"
      width="48"
      height="48"
      viewBox="0 0 48 48"
    >
      <circle cx="24" cy="24" r="17" fill="#e8457c"></circle>
      <circle cx="19.886" cy="16.579" r="4.5" fill="#fff"></circle>
      <path
        d="M19.884 12.077a4.5 4.5 0 11.003 9 4.5 4.5 0 01-.003-9m0-.5A5.02 5.02 0 0015.08 15.2a5.005 5.005 0 004.808 6.379 5.02 5.02 0 004.804-3.623 5.005 5.005 0 00-4.808-6.379z"
        opacity="0.07"
      ></path>
      <path
        d="M19.884 12.077a4.5 4.5 0 11.003 9 4.5 4.5 0 01-.003-9m0-1a5.524 5.524 0 00-5.285 3.985 5.507 5.507 0 005.289 7.017 5.524 5.524 0 005.285-3.985 5.507 5.507 0 00-5.289-7.017z"
        opacity="0.05"
      ></path>
      <circle cx="24" cy="24" r="2" fill="#fff"></circle>
      <path
        d="M23.999 21.999a2.001 2.001 0 11-.55 3.923 2 2 0 01.55-3.923m0-.5a2.511 2.511 0 00-2.402 1.812 2.503 2.503 0 002.404 3.189 2.511 2.511 0 002.402-1.811 2.503 2.503 0 00-2.404-3.19z"
        opacity="0.07"
      ></path>
      <path
        d="M23.999 21.999a2.001 2.001 0 11-.55 3.923 2 2 0 01.55-3.923m0-1c-1.33 0-2.515.894-2.882 2.174a3.004 3.004 0 002.885 3.828c1.33 0 2.515-.894 2.882-2.174a3.004 3.004 0 00-2.885-3.828z"
        opacity="0.05"
      ></path>
      <circle cx="31.421" cy="19.886" r="4.5" fill="#fff"></circle>
      <path
        d="M31.419 15.385a4.5 4.5 0 11.003 9 4.5 4.5 0 01-.003-9m0-.5a5.02 5.02 0 00-4.804 3.623 5.005 5.005 0 004.808 6.379 5.02 5.02 0 004.804-3.623 5.005 5.005 0 00-4.808-6.379z"
        opacity="0.07"
      ></path>
      <path
        d="M31.419 15.385a4.5 4.5 0 11.003 9 4.5 4.5 0 01-.003-9m0-1a5.524 5.524 0 00-5.285 3.985 5.507 5.507 0 005.289 7.017 5.524 5.524 0 005.285-3.985 5.507 5.507 0 00-5.289-7.017z"
        opacity="0.05"
      ></path>
      <circle cx="16.579" cy="28.114" r="4.5" fill="#fff"></circle>
      <path
        d="M16.577 23.613a4.5 4.5 0 11.003 9 4.5 4.5 0 01-.003-9m0-.5a5.02 5.02 0 00-4.804 3.623 5.005 5.005 0 004.808 6.379 5.02 5.02 0 004.804-3.623 5.005 5.005 0 00-4.808-6.379z"
        opacity="0.07"
      ></path>
      <path
        d="M16.577 23.613a4.5 4.5 0 11.003 9 4.5 4.5 0 01-.003-9m0-1a5.524 5.524 0 00-5.285 3.985 5.507 5.507 0 005.289 7.017 5.524 5.524 0 005.285-3.985 5.507 5.507 0 00-5.289-7.017z"
        opacity="0.05"
      ></path>
      <circle cx="28.114" cy="31.421" r="4.5" fill="#fff"></circle>
      <path
        d="M28.112 26.92a4.5 4.5 0 11.003 9 4.5 4.5 0 01-.003-9m0-.5a5.02 5.02 0 00-4.804 3.623 5.005 5.005 0 004.808 6.379 5.02 5.02 0 004.804-3.623 5.005 5.005 0 00-4.808-6.379z"
        opacity="0.07"
      ></path>
      <path
        d="M28.112 26.92a4.5 4.5 0 11.003 9 4.5 4.5 0 01-.003-9m0-1a5.524 5.524 0 00-5.285 3.985 5.507 5.507 0 005.289 7.017 5.524 5.524 0 005.285-3.985 5.507 5.507 0 00-5.289-7.017z"
        opacity="0.05"
      ></path>
      <linearGradient
        id="c_BGtWOzzOuYe1JMnHsJfa"
        x1="3.789"
        x2="17.697"
        y1="33.231"
        y2="42.038"
        gradientTransform="rotate(13.002 23.995 24.994)"
        gradientUnits="userSpaceOnUse"
      >
        <stop offset="0" stopColor="#4c4c4c"></stop>
        <stop offset="1" stopColor="#343434"></stop>
      </linearGradient>
      <path
        fill="url(#c_BGtWOzzOuYe1JMnHsJfa)"
        d="M14.036 40.173l-4.804-1.109a6.995 6.995 0 01-5.246-8.395l1.109-4.804a18.982 18.982 0 008.941 14.308z"
      ></path>
      <linearGradient
        id="c_BGtWOzzOuYe1JMnHsJfb"
        x1="7.03"
        x2="13.302"
        y1="9.008"
        y2="12.979"
        gradientTransform="rotate(13.002 23.995 24.994)"
        gradientUnits="userSpaceOnUse"
      >
        <stop offset="0" stopColor="#4c4c4c"></stop>
        <stop offset="1" stopColor="#343434"></stop>
      </linearGradient>
      <path
        fill="url(#c_BGtWOzzOuYe1JMnHsJfb)"
        d="M17.331 3.987l4.804 1.109a18.976 18.976 0 00-14.308 8.941l1.109-4.804a6.994 6.994 0 018.395-5.246z"
      ></path>
      <linearGradient
        id="c_BGtWOzzOuYe1JMnHsJfc"
        x1="29.853"
        x2="43.761"
        y1="6.013"
        y2="14.82"
        gradientTransform="rotate(13.002 23.995 24.994)"
        gradientUnits="userSpaceOnUse"
      >
        <stop offset="0" stopColor="#4c4c4c"></stop>
        <stop offset="1" stopColor="#343434"></stop>
      </linearGradient>
      <path
        fill="url(#c_BGtWOzzOuYe1JMnHsJfc)"
        d="M44.013 17.331l-1.109 4.804a18.976 18.976 0 00-8.941-14.308l4.804 1.109a6.994 6.994 0 015.246 8.395z"
      ></path>
      <linearGradient
        id="c_BGtWOzzOuYe1JMnHsJfd"
        x1="34.248"
        x2="40.52"
        y1="35.072"
        y2="39.043"
        gradientTransform="rotate(13.002 23.995 24.994)"
        gradientUnits="userSpaceOnUse"
      >
        <stop offset="0" stopColor="#4c4c4c"></stop>
        <stop offset="1" stopColor="#343434"></stop>
      </linearGradient>
      <path
        fill="url(#c_BGtWOzzOuYe1JMnHsJfd)"
        d="M40.173 33.964l-1.109 4.804a6.995 6.995 0 01-8.395 5.246l-4.804-1.109a18.982 18.982 0 0014.308-8.941z"
      ></path>
    </svg>