<svg width="1440" height="375" viewBox="0 0 1440 375" fill="none" xmlns="http://www.w3.org/2000/svg">
<path d="M-27 57.0867V342.239C-27.0014 346.937 -24.9653 351.58 -21.0298 355.853C-17.0943 360.127 -11.3514 363.93 -4.19102 367.005C2.96941 370.081 11.3799 372.356 20.4698 373.678C29.5598 374.999 39.1164 375.335 48.4913 374.663C259.316 359.587 485.352 351.392 720.5 351.392C945.342 351.214 1169.92 358.991 1392.53 374.663C1401.91 375.335 1411.46 374.999 1420.55 373.678C1429.64 372.356 1438.05 370.081 1445.21 367.005C1452.37 363.929 1458.11 360.126 1462.04 355.852C1465.97 351.579 1468.01 346.936 1468 342.239V57.0867C1468.01 49.24 1462.34 41.6527 1452.02 35.703C1441.71 29.7533 1427.43 25.836 1411.79 24.6627C1195.4 8.6932 962.803 0 720.5 0C478.197 0 245.597 8.6932 29.316 24.6627C13.654 25.8249 -0.646049 29.7374 -10.9817 35.6882C-21.3174 41.639 -27.0017 49.2324 -27 57.0867Z" fill="url(#paint0_linear_15963_105401)"/>
<defs>
<linearGradient id="paint0_linear_15963_105401" x1="1480.86" y1="115.902" x2="-1296.66" y2="511.71" gradientUnits="userSpaceOnUse">
<stop stop-color="#F2F3F6"/>
<stop offset="1" stop-color="#F2F3F6" stop-opacity="0"/>
</linearGradient>
</defs>
</svg>
