<svg width="769" height="800" viewBox="0 0 769 800" fill="none" xmlns="http://www.w3.org/2000/svg">
<circle cx="588" cy="310" r="490" fill="url(#paint0_radial_11887_45967)"/>
<g clip-path="url(#clip0_11887_45967)">
<path d="M16.6643 252.439L22.1788 265.054C21.0337 265.255 19.8544 265.096 18.8041 264.597C17.7538 264.098 16.8844 263.286 16.3164 262.271C12.7512 256.981 9.50235 251.484 6.58683 245.81C4.43833 241.38 6.83237 239.067 11.8558 239.999C16.0402 240.786 20.2144 241.656 24.4296 242.229C26.4757 242.505 28.6242 242.065 30.7113 242.147C31.6952 242.302 32.6547 242.584 33.5658 242.986C33.0542 244.06 32.8087 245.707 31.98 246.055C30.2904 246.64 28.5271 246.984 26.7417 247.078C25.8107 247.201 24.8593 247.191 22.6494 247.314C24.6342 248.511 25.5652 249.411 26.6599 249.677C33.3305 251.324 39.9601 253.432 46.733 254.26C61.9668 256.112 77.1904 256.204 91.9434 250.884C92.6974 250.54 93.5189 250.369 94.3477 250.383C94.7287 250.42 95.0977 250.536 95.4309 250.725C95.764 250.913 96.0537 251.17 96.2813 251.478C96.3966 251.845 96.4177 252.235 96.3426 252.612C96.2675 252.989 96.0987 253.341 95.8516 253.636C94.542 254.86 93.0105 255.822 91.3398 256.47C86.6541 257.969 81.8675 259.131 77.0165 259.949C61.2431 262.334 45.148 261.453 29.7292 257.36C25.4936 256.215 21.4728 254.271 16.6643 252.439Z" fill="#EDF7FF"/>
<path d="M85.2262 249.278C83.7384 249.857 80.2981 250.992 78.4396 250.901" stroke="#EDF7FF" stroke-width="2.06023" stroke-linecap="round"/>
</g>
<path d="M3.75391 248.991C4.27864 249.388 5.5098 250.814 6.23657 253.343" stroke="#EDF7FF" stroke-width="2.06023" stroke-linecap="round"/>
<path d="M5.64141 235.578C3.71169 235.929 0.155028 237.145 1.36608 239.197" stroke="#EDF7FF" stroke-width="2.06023" stroke-linecap="round"/>
<path d="M39.3361 264.539C36.161 264.167 28.7232 262.7 24.3724 259.81" stroke="#EDF7FF" stroke-width="2.06023" stroke-linecap="round"/>
<defs>
<radialGradient id="paint0_radial_11887_45967" cx="0" cy="0" r="1" gradientUnits="userSpaceOnUse" gradientTransform="translate(372.126 281.608) rotate(151.719) scale(197.332)">
<stop stop-color="#EDFCFF"/>
<stop offset="0.671875" stop-color="white"/>
<stop offset="1" stop-color="#EDF7FF"/>
</radialGradient>
<clipPath id="clip0_11887_45967">
<rect width="90.5948" height="25.3215" fill="white" transform="translate(96.3945 265.115) rotate(-180)"/>
</clipPath>
</defs>
</svg>
