<svg width="414" height="433" viewBox="0 0 414 433" fill="none" xmlns="http://www.w3.org/2000/svg">
<circle cx="236.5" cy="173.5" r="239.5" fill="url(#paint0_radial_11959_46787)"/>
<g clip-path="url(#clip0_11959_46787)">
<path d="M114.395 418.181L105.57 420.876C105.967 421.546 106.563 422.077 107.275 422.394C107.987 422.711 108.779 422.799 109.543 422.646C113.791 422.153 118.005 421.409 122.164 420.418C125.356 419.58 125.489 417.353 122.824 415.202C120.598 413.416 118.335 411.671 116.205 409.776C115.172 408.855 114.459 407.569 113.507 406.543C113 406.11 112.438 405.744 111.836 405.456C111.512 406.185 110.781 407.028 110.965 407.602C111.404 408.717 111.998 409.764 112.729 410.714C113.072 411.241 113.493 411.721 114.394 412.899C112.919 412.411 112.055 412.33 111.442 411.889C107.695 409.212 103.731 406.757 100.355 403.672C92.769 396.726 86.0829 389.019 82.3564 379.19C82.2029 378.656 81.9318 378.164 81.563 377.748C81.3781 377.57 81.1579 377.433 80.9167 377.346C80.6754 377.259 80.4185 377.223 80.1626 377.241C79.9256 377.343 79.7178 377.502 79.5586 377.705C79.3993 377.908 79.2937 378.147 79.2514 378.401C79.1999 379.602 79.3782 380.8 79.7767 381.934C81.0577 384.972 82.5536 387.915 84.253 390.74C89.9184 399.808 97.3861 407.615 106.193 413.678C108.624 415.334 111.366 416.532 114.395 418.181Z" fill="#EDF7FF"/>
<path d="M86.1053 381.907C86.4595 382.917 87.382 385.162 88.239 386.069" stroke="#EDF7FF" stroke-width="1.38084" stroke-linecap="round"/>
</g>
<path d="M121.777 423.248C121.347 423.154 120.084 423.149 118.48 423.883" stroke="#EDF7FF" stroke-width="1.38084" stroke-linecap="round"/>
<path d="M127.779 416.439C128.442 417.575 129.374 419.915 127.801 420.194" stroke="#EDF7FF" stroke-width="1.38084" stroke-linecap="round"/>
<path d="M98.3444 411.921C99.9183 413.375 103.908 416.521 107.277 417.475" stroke="#EDF7FF" stroke-width="1.38084" stroke-linecap="round"/>
<defs>
<radialGradient id="paint0_radial_11959_46787" cx="0" cy="0" r="1" gradientUnits="userSpaceOnUse" gradientTransform="translate(201.5 186.5) rotate(173.096) scale(156.587)">
<stop stop-color="#EDFCFF"/>
<stop offset="0.671875" stop-color="white"/>
<stop offset="1" stop-color="#EDF7FF"/>
</radialGradient>
<clipPath id="clip0_11959_46787">
<rect width="60.7197" height="16.9713" fill="white" transform="matrix(0.650693 0.75934 0.75934 -0.650693 73.1719 383.131)"/>
</clipPath>
</defs>
</svg>
