<svg width="532" height="480" viewBox="0 0 532 480" fill="none" xmlns="http://www.w3.org/2000/svg">
<path d="M388.627 29.7902C406.176 54.356 386.327 94.6907 412.175 113.033C437.335 130.887 467.696 100.867 491.392 116.215C526.543 138.987 521.29 244.91 470.937 311.221C455.797 331.163 443.056 338.995 437.607 361.424C425.917 409.587 469.082 437.711 461.175 461.555C443.37 515.241 161.37 563.099 46.3386 403.529C-7.38599 329.002 -16.4471 220.656 29.9827 137.821C113.878 -11.8798 349.256 -25.3302 388.627 29.7902Z" fill="#F4F7FA"/>
<path opacity="0.24" d="M260.556 347.154C287.103 342.752 313.714 226.81 266.354 178.838C246.592 158.821 223.937 160.754 208.026 133.199C193.829 108.62 205.593 96.2058 194.678 67.7294C179.331 27.6864 132.598 -9.00918 99.5456 1.97051C82.9605 7.48236 67.1385 25.8907 66.1443 47.2503C65.3483 64.3563 82.3442 77.7865 78.3584 82.1006C75.0862 85.6461 64.7962 76.4695 58.3415 80.0481C48.82 85.3252 48.6751 117.773 63.6608 141.618C89.329 182.459 143.015 172.104 152.322 203.572C158.254 223.631 138.472 234.707 146.636 254.912C153.826 272.692 172.419 272.228 200.314 289.999C244.017 317.837 246.322 349.513 260.556 347.154Z" fill="#E4E4E4"/>
<mask id="mask0_16292_110464" style="mask-type:luminance" maskUnits="userSpaceOnUse" x="51" y="0" width="242" height="348">
<path d="M260.558 347.154C287.105 342.751 313.716 226.81 266.356 178.838C246.594 158.821 223.939 160.754 208.027 133.198C193.831 108.62 205.595 96.2056 194.68 67.7292C179.333 27.6861 132.6 -9.00942 99.5475 1.97026C82.9625 7.48212 67.1404 25.8904 66.1463 47.25C65.3502 64.356 82.3462 77.7862 78.3604 82.1003C75.0881 85.6459 64.7981 76.4693 58.3435 80.0478C48.822 85.3249 48.6771 117.772 63.6627 141.617C89.3309 182.458 143.017 172.104 152.324 203.572C158.256 223.631 138.474 234.706 146.638 254.912C153.828 272.691 172.421 272.227 200.316 289.999C244.019 317.837 246.324 349.512 260.558 347.154Z" fill="white"/>
</mask>
<g mask="url(#mask0_16292_110464)">
<g style="mix-blend-mode:soft-light" opacity="0.5">
<path d="M259.048 371.67C259.312 371.686 259.575 371.624 259.804 371.492C260.033 371.359 260.217 371.162 260.335 370.926C260.452 370.689 260.497 370.422 260.464 370.16C260.431 369.898 260.321 369.651 260.149 369.451C259.965 368.66 259.918 365.975 259.865 362.895C259.566 345.567 258.764 299.536 234.185 231.493C203.262 145.917 146.678 57.6725 66.005 -30.7905C65.886 -30.9212 65.7424 -31.0272 65.5825 -31.1023C65.4226 -31.1775 65.2494 -31.2205 65.0728 -31.2288C64.8963 -31.237 64.7198 -31.2104 64.5536 -31.1505C64.3873 -31.0906 64.2345 -30.9985 64.1038 -30.8795C63.9732 -30.7605 63.8672 -30.6169 63.792 -30.457C63.7168 -30.297 63.6739 -30.1239 63.6656 -29.9473C63.6573 -29.7708 63.6839 -29.5943 63.7438 -29.4281C63.8038 -29.2618 63.8959 -29.109 64.0148 -28.9783C150.697 66.064 254.564 211.208 257.183 362.947C257.3 369.812 257.322 371.048 258.63 371.58C258.764 371.632 258.905 371.662 259.048 371.67Z" fill="white"/>
<path d="M189.38 143.468C189.727 143.487 190.068 143.37 190.331 143.142C190.594 142.914 190.758 142.593 190.789 142.247C190.821 141.901 190.717 141.556 190.499 141.284C190.281 141.013 189.967 140.837 189.622 140.792C128.933 133.661 91.0487 120.944 69.9532 111.533C47.1134 101.34 38.5035 92.7246 38.4192 92.6402C38.1649 92.4116 37.8332 92.2884 37.4913 92.2957C37.1495 92.303 36.8234 92.4403 36.5792 92.6796C36.335 92.9189 36.1911 93.2422 36.1768 93.5838C36.1626 93.9254 36.279 94.2596 36.5024 94.5184C36.8564 94.8853 45.4131 103.488 68.6124 113.875C89.8895 123.404 128.113 136.271 189.305 143.461L189.38 143.468Z" fill="white"/>
<path d="M154.831 84.7198C155.118 84.7387 155.403 84.6647 155.644 84.5089C169.714 75.4827 176.041 54.1323 174.447 21.0446C173.271 -3.33961 167.988 -25.4274 167.935 -25.6475C167.852 -25.9938 167.634 -26.2928 167.33 -26.4785C167.026 -26.6643 166.66 -26.7216 166.314 -26.638C165.967 -26.5543 165.668 -26.3365 165.483 -26.0324C165.297 -25.7283 165.24 -25.3629 165.323 -25.0165C165.532 -24.1489 185.892 61.9039 154.191 82.24C153.953 82.393 153.77 82.6173 153.666 82.8809C153.563 83.1444 153.546 83.4338 153.617 83.7078C153.688 83.9818 153.843 84.2264 154.062 84.4068C154.28 84.5872 154.549 84.6942 154.831 84.7125V84.7198Z" fill="white"/>
<path d="M238.083 248.566C238.283 248.579 238.484 248.547 238.67 248.472C238.856 248.398 239.023 248.283 239.158 248.135C257.086 228.72 261.609 200.77 262.249 180.744C262.939 159.133 259.373 141.822 259.337 141.649C259.306 141.471 259.24 141.301 259.142 141.149C259.044 140.997 258.917 140.867 258.768 140.765C258.618 140.663 258.45 140.593 258.273 140.558C258.096 140.523 257.913 140.524 257.736 140.561C257.559 140.598 257.392 140.67 257.244 140.773C257.095 140.876 256.969 141.008 256.873 141.161C256.777 141.314 256.713 141.485 256.684 141.663C256.655 141.842 256.663 142.024 256.706 142.199C256.741 142.368 260.248 159.415 259.56 180.718C258.929 200.269 254.535 227.518 237.183 246.312C237.01 246.498 236.894 246.73 236.848 246.979C236.802 247.229 236.827 247.487 236.921 247.723C237.015 247.958 237.174 248.163 237.379 248.312C237.585 248.461 237.828 248.55 238.082 248.566H238.083Z" fill="white"/>
</g>
</g>
<path opacity="0.4" d="M256.223 374.205C255.291 320.279 244.902 280.639 236.004 255.255C229.017 235.328 217.251 207.932 201.887 207.578C194.527 207.411 191.726 213.58 183.967 213.07C169.315 212.105 164.564 189.144 152.174 174.436C130.976 149.276 78.1173 137.221 47.6471 161.69C10.9625 191.153 22.0046 261.312 48.9219 277.688C64.8705 287.391 87.6608 278.985 90.9881 287.886C94.3355 296.845 71.9121 307.109 73.5629 322.3C75.2761 338.027 101.467 346.785 103.05 347.297C134.701 357.506 152.919 335.582 185.319 336.325C202.894 336.728 227.264 343.871 256.223 374.205Z" fill="#E4E4E4"/>
<mask id="mask1_16292_110464" style="mask-type:luminance" maskUnits="userSpaceOnUse" x="24" y="148" width="233" height="227">
<path d="M256.223 374.205C255.291 320.279 244.902 280.639 236.004 255.255C229.017 235.328 217.251 207.932 201.887 207.578C194.527 207.411 191.726 213.58 183.967 213.07C169.315 212.105 164.564 189.144 152.174 174.436C130.976 149.276 78.1173 137.221 47.6471 161.69C10.9625 191.153 22.0046 261.312 48.9219 277.688C64.8705 287.391 87.6608 278.985 90.9881 287.886C94.3355 296.845 71.9121 307.109 73.5629 322.3C75.2761 338.027 101.467 346.785 103.05 347.297C134.701 357.506 152.919 335.582 185.319 336.325C202.894 336.728 227.264 343.871 256.223 374.205Z" fill="white"/>
</mask>
<g mask="url(#mask1_16292_110464)">
<g style="mix-blend-mode:soft-light">
<path d="M271.309 414.627L270.514 414.836C238.403 292.446 137.157 202.37 -0.318573 173.883L-0.151672 173.078C65.0019 186.579 124.244 215.067 171.165 255.462C220.504 297.93 255.131 352.968 271.309 414.627Z" fill="#FCFDFE"/>
<path d="M269.191 227.182C252.177 257.32 241.128 311.202 244.565 347.294L243.747 347.371C240.299 311.138 251.392 257.041 268.476 226.778L269.191 227.182Z" fill="#FCFDFE"/>
<path d="M264.729 390.674L264.022 391.094C254.376 374.905 236.916 364.216 212.127 359.322C193.951 355.734 172.324 355.287 147.866 357.996L147.776 357.178C172.324 354.461 194.028 354.911 212.286 358.517C237.314 363.456 254.961 374.276 264.729 390.674Z" fill="#FCFDFE"/>
<path d="M164.287 249.987L163.603 250.444C143.85 220.865 144.448 183.467 148.427 157.302L149.239 157.425C145.275 183.447 144.679 220.627 164.287 249.987Z" fill="#FCFDFE"/>
<path d="M95.916 205.771L95.6978 206.564C57.0726 195.905 18.0365 211.567 -1.7933 221.852L-2.173 221.118C17.7651 210.782 57.0194 195.037 95.916 205.771Z" fill="#FCFDFE"/>
</g>
</g>
<path d="M241.06 147.509C242.806 147.509 244.299 146.082 244.468 144.174C247.471 110.336 257.742 78.1861 273.392 53.6441C287.255 31.903 303.75 18.9277 317.549 18.9277H317.595C367.822 19.0285 378.326 142.888 378.427 144.141C378.59 146.159 380.243 147.668 382.138 147.494C384.033 147.32 385.423 145.537 385.256 143.51C384.827 138.127 374.067 11.6806 317.604 11.5632H317.544C301.25 11.5632 283.099 25.3786 267.73 49.4822C251.436 75.0367 240.748 108.416 237.637 143.475C237.454 145.493 238.841 147.298 240.726 147.492C240.839 147.503 240.95 147.509 241.06 147.509Z" fill="black"/>
<path d="M450.306 402.414L384.189 438.364L344.129 306.328L410.136 129.315L428.845 134.244L457.244 388.468C457.894 394.224 455.117 399.796 450.306 402.414Z" fill="#ECBA1C"/>
<g style="mix-blend-mode:multiply" opacity="0.3">
<path d="M344.125 306.329L410.135 129.315L421.174 132.223C422.434 151.287 422.373 170.415 420.99 189.471C416.566 249.738 401.87 266.508 408.989 308.554C414.904 343.513 427.836 348.258 426.706 371.778C425.475 397.393 408.84 418.845 389.064 435.714L384.185 438.366L344.125 306.329Z" fill="#ECBA1C"/>
</g>
<path d="M410.135 129.315L161.149 142.87L82.0226 412.216L384.186 438.366L410.135 129.315Z" fill="#F8CE00"/>
<g style="mix-blend-mode:multiply">
<path d="M161.148 142.87L290.994 135.801C293.185 139.246 296.088 144.859 296.629 152.018C299.824 194.364 212.438 208.074 204.617 260.054C198.658 299.627 235.331 345.29 268.054 365.634C302.537 387.067 325.889 376.212 349.206 400.007C359.452 410.462 365.69 423.537 369.4 437.088L82.0209 412.218L161.148 142.87Z" fill="#FFEBC9"/>
</g>
<path d="M333.765 153.562C335.32 153.562 336.729 152.418 337.1 150.719C337.802 147.511 353.998 71.7078 331.16 34.5042C324.614 23.8418 315.469 17.3322 303.979 15.1549C244.942 3.98264 208.599 140.176 207.075 145.979C206.563 147.937 207.625 149.971 209.448 150.521C211.272 151.071 213.164 149.928 213.676 147.971C214.032 146.616 249.811 12.3632 302.789 22.4111C312.482 24.2454 319.891 29.5298 325.434 38.5523C346.663 73.133 330.588 148.276 330.423 149.03C329.99 151.011 331.135 152.992 332.978 153.458C333.235 153.524 333.499 153.56 333.765 153.562Z" fill="black"/>
<path d="M333.74 164.412C328.447 164.412 324.157 159.803 324.157 154.118C324.157 148.433 328.447 143.824 333.74 143.824C339.033 143.824 343.324 148.433 343.324 154.118C343.324 159.803 339.033 164.412 333.74 164.412Z" fill="#F4F7FA"/>
<path d="M208.766 163.456C203.473 163.456 199.182 158.847 199.182 153.162C199.182 147.477 203.473 142.868 208.766 142.868C214.059 142.868 218.35 147.477 218.35 153.162C218.35 158.847 214.059 163.456 208.766 163.456Z" fill="#F4F7FA"/>
<ellipse cx="162.5" cy="430.5" rx="15.5" ry="3.5" fill="#E4E4E4"/>
<ellipse cx="246.5" cy="422.5" rx="15.5" ry="3.5" fill="#E4E4E4"/>
<ellipse cx="304.5" cy="451.5" rx="15.5" ry="3.5" fill="#E4E4E4"/>
<ellipse cx="232.5" cy="457.5" rx="15.5" ry="3.5" fill="#E4E4E4"/>
<path d="M168.877 419.93C168.877 425.608 165.378 430.211 161.06 430.211C156.742 430.211 153.245 425.608 153.245 419.93C153.245 414.253 156.744 409.649 161.06 409.649C165.376 409.649 168.877 414.251 168.877 419.93Z" fill="url(#paint0_linear_16292_110464)"/>
<path d="M171.055 421.091C171.055 426.768 167.556 431.372 163.24 431.372C158.923 431.372 155.423 426.768 155.423 421.091C155.423 415.413 158.934 410.81 163.24 410.81C167.546 410.81 171.055 415.418 171.055 421.091Z" fill="url(#paint1_linear_16292_110464)"/>
<path d="M166.514 421.297C166.514 423.677 165.047 425.605 163.238 425.605C161.429 425.605 159.965 423.677 159.965 421.297C159.965 418.918 161.431 416.989 163.238 416.989C165.045 416.989 166.514 418.929 166.514 421.297Z" fill="url(#paint2_linear_16292_110464)"/>
<path d="M161.06 408.54V419.831C161.061 420.627 161.378 421.39 161.941 421.953C162.504 422.516 163.267 422.832 164.063 422.832C164.536 422.831 165.002 422.718 165.423 422.503C165.844 422.287 166.208 421.976 166.486 421.593L176.641 407.689L161.06 408.54Z" fill="#C2C2C2"/>
<path d="M252.553 410.914C252.553 416.593 249.054 421.196 244.738 421.196C240.421 421.196 236.921 416.593 236.921 410.914C236.921 405.234 240.432 400.633 244.738 400.633C249.044 400.633 252.553 405.236 252.553 410.914Z" fill="url(#paint3_linear_16292_110464)"/>
<path d="M254.73 412.074C254.73 417.753 251.232 422.357 246.916 422.357C242.599 422.357 239.099 417.753 239.099 412.074C239.099 406.394 242.61 401.793 246.916 401.793C251.222 401.793 254.73 406.396 254.73 412.074Z" fill="url(#paint4_linear_16292_110464)"/>
<path d="M250.189 412.283C250.189 414.662 248.723 416.591 246.914 416.591C245.105 416.591 243.641 414.662 243.641 412.283C243.641 409.904 245.107 407.975 246.914 407.975C248.721 407.975 250.189 409.904 250.189 412.283Z" fill="url(#paint5_linear_16292_110464)"/>
<path d="M244.738 399.525V410.814C244.738 411.208 244.815 411.599 244.966 411.963C245.117 412.327 245.338 412.658 245.616 412.937C245.895 413.216 246.226 413.437 246.59 413.588C246.954 413.739 247.345 413.817 247.739 413.817C248.212 413.816 248.678 413.703 249.099 413.488C249.52 413.272 249.884 412.961 250.162 412.578L260.316 398.689L244.738 399.525Z" fill="#C2C2C2"/>
<path d="M159.893 410.296C159.372 410.291 158.871 410.088 158.494 409.728C158.117 409.368 157.891 408.878 157.863 408.358C157.834 407.837 158.005 407.325 158.34 406.926C158.675 406.527 159.15 406.27 159.668 406.208L258.76 395.044C264.153 394.114 268.651 390.017 270.101 384.616L311.612 230.074C312.692 226.06 314.998 222.482 318.208 219.841C321.418 217.199 325.372 215.625 329.52 215.339L359.66 213.542C359.928 213.526 360.198 213.563 360.452 213.65C360.706 213.738 360.941 213.875 361.142 214.054C361.344 214.233 361.508 214.449 361.626 214.691C361.743 214.933 361.812 215.196 361.828 215.465C361.844 215.733 361.808 216.002 361.72 216.257C361.632 216.511 361.495 216.746 361.316 216.947C361.138 217.148 360.921 217.313 360.679 217.43C360.437 217.548 360.174 217.617 359.906 217.633L329.78 219.426C326.487 219.656 323.349 220.907 320.801 223.006C318.254 225.105 316.425 227.946 315.569 231.134L274.058 385.676C273.137 389.083 271.261 392.157 268.653 394.535C266.044 396.913 262.81 398.497 259.332 399.1L160.124 410.283C160.047 410.291 159.97 410.295 159.893 410.296Z" fill="white"/>
<path d="M228.836 349.46C228.392 349.457 227.96 349.311 227.605 349.043C227.25 348.775 226.991 348.4 226.866 347.973L203.529 266.322C203.392 265.803 203.465 265.251 203.73 264.785C203.995 264.319 204.433 263.976 204.948 263.828C205.464 263.681 206.017 263.741 206.488 263.996C206.96 264.252 207.313 264.682 207.471 265.194L230.815 346.852C230.901 347.157 230.916 347.478 230.858 347.789C230.799 348.101 230.67 348.395 230.479 348.648C230.288 348.901 230.041 349.107 229.758 349.249C229.474 349.391 229.162 349.465 228.845 349.466L228.836 349.46Z" fill="white"/>
<path d="M252.706 346.046C252.225 346.046 251.759 345.876 251.391 345.567C251.022 345.257 250.774 344.828 250.69 344.355L236.298 263.473C236.246 263.207 236.248 262.932 236.303 262.666C236.358 262.4 236.466 262.148 236.619 261.924C236.773 261.7 236.97 261.509 237.198 261.361C237.427 261.214 237.682 261.114 237.949 261.066C238.217 261.018 238.491 261.024 238.756 261.084C239.022 261.143 239.272 261.255 239.494 261.412C239.716 261.569 239.904 261.769 240.047 261.999C240.191 262.23 240.288 262.487 240.331 262.755L254.724 343.636C254.819 344.17 254.699 344.721 254.389 345.166C254.08 345.612 253.606 345.916 253.072 346.013C252.951 346.035 252.829 346.047 252.706 346.046Z" fill="white"/>
<path d="M267.539 343.394H267.454C266.911 343.372 266.399 343.134 266.03 342.734C265.662 342.334 265.468 341.804 265.49 341.261L268.815 261.232C268.821 260.962 268.881 260.695 268.992 260.449C269.103 260.202 269.263 259.98 269.462 259.797C269.661 259.614 269.896 259.473 270.151 259.382C270.406 259.292 270.676 259.254 270.946 259.27C271.49 259.293 272.002 259.53 272.37 259.93C272.738 260.331 272.933 260.861 272.91 261.404L269.587 341.43C269.565 341.958 269.339 342.458 268.958 342.824C268.576 343.19 268.068 343.394 267.539 343.394Z" fill="white"/>
<path d="M196.275 352.446C195.846 352.446 195.427 352.311 195.078 352.06C194.73 351.809 194.468 351.455 194.332 351.048L166.934 269.361C166.849 269.106 166.814 268.837 166.833 268.568C166.851 268.3 166.923 268.037 167.043 267.796C167.163 267.555 167.329 267.34 167.532 267.164C167.735 266.987 167.971 266.852 168.226 266.766C168.481 266.681 168.751 266.646 169.019 266.665C169.288 266.684 169.55 266.755 169.791 266.875C170.032 266.995 170.247 267.161 170.424 267.364C170.6 267.567 170.735 267.803 170.821 268.058L198.219 349.743C198.391 350.259 198.351 350.822 198.109 351.308C197.867 351.795 197.441 352.166 196.926 352.339C196.716 352.409 196.496 352.445 196.275 352.446Z" fill="white"/>
<path d="M430.17 224.75C430.058 224.75 429.944 224.75 429.829 224.736L362.392 219.19C361.849 219.155 361.319 219.012 360.831 218.769C360.344 218.527 359.91 218.189 359.554 217.777C359.199 217.365 358.929 216.886 358.761 216.369C358.592 215.851 358.528 215.305 358.573 214.763C358.618 214.22 358.77 213.692 359.021 213.209C359.272 212.726 359.617 212.298 360.035 211.95C360.453 211.601 360.936 211.34 361.457 211.18C361.977 211.021 362.524 210.966 363.066 211.02L430.502 216.565C431.555 216.654 432.533 217.146 433.232 217.938C433.931 218.73 434.297 219.761 434.254 220.817C434.212 221.873 433.763 222.871 433.002 223.604C432.241 224.336 431.226 224.747 430.17 224.75Z" fill="url(#paint6_linear_16292_110464)"/>
<path d="M242.291 447.97C242.291 453.647 238.78 458.251 234.474 458.251C230.168 458.251 226.659 453.647 226.659 447.97C226.659 442.292 230.158 437.689 234.474 437.689C238.79 437.689 242.291 442.29 242.291 447.97Z" fill="url(#paint7_linear_16292_110464)"/>
<path d="M244.469 449.131C244.469 454.808 240.97 459.412 236.654 459.412C232.338 459.412 228.837 454.808 228.837 449.131C228.837 443.454 232.338 438.85 236.654 438.85C240.97 438.85 244.469 443.451 244.469 449.131Z" fill="url(#paint8_linear_16292_110464)"/>
<path d="M239.926 449.337C239.926 451.716 238.459 453.645 236.65 453.645C234.841 453.645 233.375 451.716 233.375 449.337C233.375 446.958 234.841 445.029 236.65 445.029C238.459 445.029 239.926 446.958 239.926 449.337Z" fill="url(#paint9_linear_16292_110464)"/>
<path d="M234.474 436.58V447.871C234.475 448.667 234.792 449.43 235.355 449.993C235.918 450.556 236.681 450.872 237.477 450.872C237.95 450.871 238.416 450.758 238.837 450.543C239.258 450.327 239.622 450.016 239.9 449.633L250.055 435.729L234.474 436.58Z" fill="#D5DBE2"/>
<path d="M314.734 440.717C314.734 446.394 311.236 450.998 306.919 450.998C302.603 450.998 299.103 446.394 299.103 440.717C299.103 435.039 302.613 430.436 306.919 430.436C311.226 430.436 314.734 435.037 314.734 440.717Z" fill="url(#paint10_linear_16292_110464)"/>
<path d="M316.912 441.877C316.912 447.555 313.414 452.158 309.097 452.158C304.781 452.158 301.282 447.555 301.282 441.877C301.282 436.2 304.781 431.597 309.097 431.597C313.414 431.597 316.912 436.2 316.912 441.877Z" fill="url(#paint11_linear_16292_110464)"/>
<path d="M312.371 442.084C312.371 444.464 310.905 446.393 309.098 446.393C307.291 446.393 305.822 444.464 305.822 442.084C305.822 439.705 307.289 437.776 309.098 437.776C310.907 437.776 312.371 439.705 312.371 442.084Z" fill="url(#paint12_linear_16292_110464)"/>
<path d="M306.922 429.33V440.614C306.921 441.008 306.998 441.398 307.148 441.762C307.298 442.126 307.518 442.457 307.796 442.736C308.074 443.015 308.404 443.237 308.768 443.388C309.131 443.54 309.521 443.618 309.915 443.619C310.388 443.618 310.854 443.506 311.276 443.29C311.697 443.075 312.062 442.763 312.339 442.38L322.492 428.477L306.922 429.33Z" fill="#D5DBE2"/>
<path d="M129.066 272.631C128.533 272.635 128.018 272.431 127.633 272.062C127.247 271.694 127.02 271.189 127.001 270.655C126.982 270.122 127.172 269.602 127.53 269.206C127.889 268.811 128.387 268.571 128.92 268.537L305.403 255.834C305.567 255.824 305.732 255.831 305.895 255.857L378.957 268.302C379.23 268.338 379.493 268.429 379.73 268.569C379.967 268.71 380.173 268.896 380.336 269.118C380.5 269.339 380.617 269.591 380.681 269.859C380.744 270.127 380.754 270.405 380.708 270.677C380.662 270.948 380.562 271.207 380.413 271.439C380.265 271.671 380.071 271.871 379.844 272.027C379.617 272.182 379.361 272.29 379.091 272.345C378.821 272.399 378.543 272.399 378.273 272.343L305.455 259.94L129.205 272.626L129.066 272.631Z" fill="white"/>
<path d="M189.033 290.838C188.831 290.837 188.631 290.807 188.438 290.749L128.472 272.544C127.96 272.378 127.534 272.019 127.285 271.542C127.036 271.066 126.984 270.511 127.14 269.996C127.297 269.482 127.648 269.05 128.12 268.792C128.592 268.535 129.146 268.473 129.663 268.62L189.239 286.709L378.416 268.283C378.684 268.254 378.955 268.279 379.214 268.357C379.472 268.434 379.713 268.562 379.921 268.733C380.13 268.905 380.302 269.116 380.428 269.354C380.554 269.593 380.631 269.854 380.654 270.123C380.707 270.664 380.543 271.203 380.198 271.623C379.853 272.043 379.355 272.309 378.814 272.362L189.225 290.827C189.165 290.833 189.097 290.838 189.033 290.838Z" fill="#D5DBE2"/>
<path d="M355.787 355.255C355.682 355.255 355.576 355.247 355.471 355.23L283.578 344.2L174.199 354.732C173.926 354.767 173.65 354.746 173.386 354.672C173.122 354.598 172.875 354.471 172.661 354.299C172.446 354.128 172.268 353.915 172.138 353.674C172.007 353.433 171.926 353.167 171.9 352.894C171.874 352.621 171.903 352.345 171.985 352.083C172.067 351.822 172.201 351.579 172.379 351.37C172.557 351.161 172.775 350.989 173.02 350.866C173.265 350.743 173.532 350.67 173.806 350.652L283.44 340.098C283.609 340.083 283.78 340.089 283.948 340.115L356.095 351.189C356.604 351.268 357.065 351.537 357.385 351.941C357.705 352.345 357.861 352.855 357.822 353.369C357.784 353.883 357.553 354.363 357.175 354.715C356.798 355.066 356.303 355.263 355.787 355.265V355.255Z" fill="#C2C2C2"/>
<path d="M225.426 367.649C225.037 367.649 224.656 367.54 224.327 367.333C223.998 367.125 223.735 366.829 223.568 366.478L187.176 289.667C187.061 289.424 186.994 289.16 186.981 288.892C186.967 288.623 187.007 288.354 187.097 288.101C187.188 287.847 187.327 287.614 187.508 287.415C187.688 287.215 187.906 287.053 188.15 286.938C188.393 286.822 188.656 286.756 188.925 286.743C189.194 286.729 189.462 286.769 189.716 286.859C189.969 286.95 190.202 287.089 190.402 287.27C190.602 287.45 190.764 287.668 190.879 287.912L226.663 363.423L355.588 351.164C356.129 351.112 356.669 351.278 357.088 351.624C357.507 351.97 357.771 352.469 357.823 353.01C357.874 353.551 357.709 354.091 357.362 354.51C357.016 354.929 356.518 355.193 355.976 355.245L225.62 367.636C225.556 367.646 225.49 367.649 225.426 367.649Z" fill="#D5DBE2"/>
<path d="M225.428 367.649C225.259 367.648 225.09 367.627 224.926 367.587L173.501 354.675C173.227 354.606 172.97 354.482 172.747 354.309C172.523 354.136 172.338 353.919 172.202 353.671L127.269 271.565C127.008 271.089 126.947 270.528 127.099 270.006C127.252 269.484 127.606 269.044 128.082 268.783C128.559 268.522 129.12 268.462 129.642 268.614C130.164 268.767 130.603 269.12 130.864 269.597L175.37 350.918L225.925 363.611C226.412 363.731 226.837 364.026 227.121 364.438C227.405 364.851 227.528 365.353 227.467 365.851C227.406 366.348 227.164 366.805 226.789 367.137C226.413 367.468 225.929 367.65 225.428 367.649Z" fill="#D5DBE2"/>
<path d="M202.271 318.777C202.076 318.777 201.882 318.748 201.695 318.692L145.219 302.139C144.728 301.962 144.324 301.604 144.088 301.139C143.852 300.674 143.803 300.136 143.95 299.635C144.097 299.135 144.429 298.71 144.879 298.446C145.329 298.182 145.862 298.099 146.371 298.215L202.477 314.659L369.244 300.115C369.512 300.092 369.782 300.122 370.039 300.203C370.295 300.284 370.533 300.415 370.739 300.588C370.946 300.761 371.115 300.973 371.24 301.211C371.364 301.45 371.44 301.711 371.463 301.979C371.486 302.247 371.457 302.517 371.376 302.774C371.295 303.031 371.164 303.269 370.991 303.475C370.818 303.681 370.606 303.851 370.367 303.975C370.128 304.099 369.867 304.175 369.599 304.198L202.449 318.764C202.391 318.764 202.329 318.777 202.271 318.777Z" fill="#D5DBE2"/>
<path d="M216.069 347.896C215.883 347.897 215.697 347.871 215.518 347.82L161.408 332.663C161.149 332.591 160.907 332.468 160.695 332.302C160.483 332.135 160.307 331.929 160.175 331.695C160.043 331.46 159.958 331.202 159.926 330.935C159.894 330.667 159.915 330.397 159.987 330.137C160.06 329.878 160.183 329.636 160.349 329.424C160.515 329.213 160.721 329.036 160.956 328.904C161.19 328.772 161.449 328.687 161.716 328.655C161.983 328.623 162.254 328.644 162.513 328.716L216.261 343.772L361.074 331.104C361.342 331.081 361.612 331.11 361.869 331.191C362.125 331.272 362.363 331.403 362.57 331.576C362.776 331.749 362.946 331.961 363.07 332.2C363.194 332.439 363.27 332.7 363.293 332.968C363.316 333.236 363.287 333.506 363.206 333.763C363.125 334.019 362.994 334.257 362.821 334.463C362.648 334.669 362.436 334.839 362.197 334.964C361.958 335.088 361.697 335.164 361.429 335.187L216.243 347.888C216.185 347.894 216.127 347.897 216.069 347.896Z" fill="#D5DBE2"/>
<path d="M252.046 365.118C251.605 365.118 251.175 364.976 250.821 364.712C250.467 364.448 250.208 364.077 250.082 363.654L226.873 285.794C226.739 285.281 226.809 284.735 227.07 284.272C227.33 283.809 227.76 283.466 228.269 283.314C228.778 283.162 229.326 283.214 229.797 283.458C230.269 283.702 230.627 284.12 230.797 284.623L254.006 362.483C254.083 362.741 254.109 363.011 254.081 363.279C254.054 363.547 253.974 363.806 253.846 364.043C253.718 364.28 253.544 364.489 253.335 364.659C253.127 364.828 252.886 364.955 252.628 365.032C252.439 365.088 252.243 365.117 252.046 365.118Z" fill="#D5DBE2"/>
<path d="M277.719 362.677C277.237 362.677 276.771 362.506 276.402 362.197C276.033 361.887 275.785 361.458 275.701 360.984L261.781 282.092C261.726 281.823 261.725 281.546 261.779 281.277C261.832 281.008 261.939 280.753 262.093 280.526C262.247 280.299 262.445 280.106 262.676 279.957C262.906 279.808 263.163 279.706 263.433 279.659C263.703 279.611 263.98 279.618 264.248 279.679C264.515 279.74 264.767 279.855 264.99 280.015C265.212 280.175 265.4 280.379 265.542 280.613C265.685 280.847 265.779 281.108 265.819 281.379L279.738 360.271C279.833 360.807 279.711 361.358 279.399 361.803C279.087 362.248 278.611 362.552 278.076 362.646C277.958 362.667 277.838 362.677 277.719 362.677Z" fill="#D5DBE2"/>
<path d="M306.672 359.382C306.149 359.38 305.646 359.179 305.266 358.82C304.886 358.46 304.658 357.969 304.628 357.446L300.241 279.112C300.211 278.569 300.398 278.036 300.761 277.63C301.123 277.225 301.632 276.981 302.175 276.95C302.718 276.92 303.251 277.107 303.657 277.47C304.062 277.833 304.307 278.341 304.337 278.885L308.723 357.217C308.739 357.486 308.701 357.755 308.612 358.009C308.523 358.263 308.385 358.497 308.206 358.698C308.026 358.898 307.809 359.062 307.567 359.178C307.324 359.295 307.061 359.363 306.792 359.377L306.672 359.382Z" fill="#D5DBE2"/>
<path d="M334.111 356.31H334.002C333.459 356.282 332.95 356.04 332.586 355.636C332.223 355.232 332.034 354.701 332.062 354.158L336.236 274.568C336.263 274.025 336.505 273.516 336.909 273.151C337.312 272.787 337.843 272.597 338.386 272.625C338.929 272.652 339.439 272.894 339.803 273.297C340.167 273.7 340.357 274.232 340.329 274.775L336.156 354.357C336.132 354.883 335.906 355.38 335.525 355.743C335.144 356.107 334.638 356.31 334.111 356.31Z" fill="#D5DBE2"/>
<path d="M209.874 363.743C209.488 363.743 209.11 363.635 208.783 363.429C208.456 363.224 208.194 362.93 208.026 362.583L170.509 284.615C170.288 284.128 170.268 283.573 170.451 283.07C170.634 282.567 171.006 282.156 171.488 281.924C171.971 281.691 172.525 281.657 173.032 281.828C173.539 281.999 173.96 282.361 174.203 282.837L211.714 360.804C211.865 361.117 211.934 361.462 211.915 361.809C211.895 362.155 211.789 362.491 211.604 362.784C211.42 363.078 211.163 363.32 210.86 363.488C210.556 363.656 210.215 363.743 209.868 363.743H209.874Z" fill="#D5DBE2"/>
<path d="M189.035 358.51C188.654 358.51 188.281 358.404 187.957 358.204C187.633 358.004 187.371 357.717 187.201 357.376L147.379 277.614C147.155 277.13 147.128 276.577 147.304 276.074C147.48 275.57 147.846 275.155 148.323 274.916C148.801 274.678 149.352 274.635 149.861 274.797C150.37 274.958 150.795 275.312 151.047 275.782L190.865 355.546C191.022 355.858 191.096 356.205 191.08 356.554C191.064 356.903 190.96 357.242 190.776 357.539C190.593 357.836 190.336 358.081 190.031 358.251C189.726 358.421 189.382 358.51 189.033 358.51H189.035Z" fill="#D5DBE2"/>
<path d="M234.081 439.738C233.823 439.738 233.566 439.688 233.326 439.593L159.15 410.151C158.9 410.052 158.672 409.904 158.479 409.717C158.285 409.53 158.131 409.306 158.024 409.059C157.918 408.812 157.861 408.546 157.857 408.277C157.853 408.008 157.902 407.74 158.001 407.49C158.1 407.24 158.248 407.012 158.435 406.819C158.623 406.625 158.846 406.471 159.093 406.364C159.341 406.258 159.606 406.201 159.875 406.197C160.145 406.193 160.412 406.242 160.662 406.341L234.36 435.591L323.849 424.658C326.954 424.285 329.877 422.995 332.244 420.953C334.612 418.911 336.317 416.209 337.141 413.193L386.189 235.101C387.288 231.129 389.589 227.593 392.775 224.978C395.962 222.363 399.878 220.797 403.989 220.494L430.011 218.606C430.284 218.579 430.559 218.606 430.821 218.687C431.083 218.768 431.326 218.9 431.536 219.076C431.746 219.253 431.918 219.469 432.043 219.714C432.168 219.958 432.242 220.224 432.262 220.498C432.282 220.771 432.247 221.046 432.159 221.305C432.071 221.565 431.932 221.804 431.749 222.009C431.567 222.214 431.346 222.38 431.098 222.498C430.851 222.616 430.582 222.683 430.309 222.695L404.295 224.589C401.028 224.829 397.915 226.073 395.382 228.151C392.85 230.229 391.022 233.039 390.148 236.196L341.084 414.282C340.047 418.084 337.9 421.491 334.917 424.066C331.934 426.642 328.25 428.268 324.337 428.738L234.325 439.723C234.244 439.732 234.163 439.737 234.081 439.738Z" fill="#D5DBE2"/>
<ellipse cx="454.5" cy="451.5" rx="57.5" ry="9.5" fill="#FFF8F8"/>
<ellipse cx="496.5" cy="447.5" rx="15.5" ry="3.5" fill="#E4E4E4"/>
<ellipse cx="415" cy="453" rx="16" ry="3" fill="#E4E4E4"/>
<g opacity="0.4" filter="url(#filter0_f_16292_110464)">
<rect x="116" y="159" width="203" height="42" fill="#00569F"/>
</g>
<path d="M127.696 29H301.907C308.421 29 314.668 31.5877 319.274 36.1938C323.88 40.7999 326.468 47.0471 326.468 53.5611V147.559C326.468 154.07 323.882 160.314 319.28 164.92C314.678 169.526 308.435 172.115 301.924 172.12H127.696C124.471 172.12 121.278 171.485 118.299 170.25C115.32 169.016 112.614 167.206 110.335 164.925C108.055 162.644 106.248 159.936 105.016 156.957C103.783 153.977 103.15 150.783 103.152 147.559V53.5435C103.152 47.0341 105.738 40.7914 110.341 36.1886C114.944 31.5858 121.186 29 127.696 29Z" fill="#00569F"/>
<path d="M103.152 137.419V147.558C103.152 150.783 103.788 153.976 105.022 156.955C106.257 159.934 108.066 162.64 110.347 164.919C112.628 167.199 115.336 169.006 118.316 170.239C121.295 171.471 124.489 172.104 127.713 172.102H301.907C308.418 172.102 314.662 169.517 319.268 164.914C323.873 160.312 326.463 154.069 326.468 147.558V137.419H103.152Z" fill="#00569F"/>
<g style="mix-blend-mode:multiply">
<path d="M148.814 86.5626C159.541 82.1196 164.634 69.8223 160.191 59.0959C155.748 48.3695 143.451 43.2758 132.725 47.7189C121.998 52.1619 116.905 64.4591 121.348 75.1855C125.791 85.9119 138.088 91.0056 148.814 86.5626Z" fill="#B5DCFF"/>
</g>
<g style="mix-blend-mode:screen" opacity="0.45">
<path d="M171.357 76.9931C172.719 68.6006 167.02 60.6927 158.627 59.3304C150.235 57.9681 142.327 63.6672 140.965 72.0598C139.602 80.4524 145.302 88.3602 153.694 89.7225C162.087 91.0848 169.995 85.3857 171.357 76.9931Z" fill="#084880"/>
</g>
<g style="mix-blend-mode:screen" opacity="0.45">
<path d="M159.866 124.024H118.76C117.746 124.024 116.774 123.622 116.057 122.905C115.34 122.188 114.938 121.216 114.938 120.202C114.937 119.187 115.34 118.213 116.056 117.493C116.772 116.774 117.744 116.367 118.76 116.362H159.866C160.884 116.362 161.861 116.767 162.581 117.487C163.301 118.207 163.706 119.184 163.706 120.202C163.701 121.218 163.295 122.19 162.575 122.906C161.855 123.622 160.881 124.024 159.866 124.024Z" fill="#084880"/>
</g>
<g style="mix-blend-mode:screen" opacity="0.45">
<path d="M301.447 124.024H175.385C174.369 124.024 173.395 123.622 172.676 122.906C171.956 122.19 171.55 121.218 171.545 120.202C171.545 119.698 171.644 119.199 171.837 118.733C172.03 118.267 172.313 117.844 172.67 117.487C173.026 117.13 173.449 116.848 173.915 116.655C174.381 116.462 174.881 116.362 175.385 116.362H301.447C302.462 116.367 303.434 116.774 304.15 117.493C304.867 118.213 305.269 119.187 305.269 120.202C305.269 121.216 304.866 122.188 304.149 122.905C303.432 123.622 302.46 124.024 301.447 124.024Z" fill="#084880"/>
</g>
<g style="mix-blend-mode:screen" opacity="0.25">
<path d="M294.032 157.185H135.57C134.557 157.185 133.584 156.782 132.868 156.066C132.151 155.349 131.748 154.377 131.748 153.363C131.748 152.347 132.15 151.373 132.866 150.654C133.583 149.934 134.555 149.528 135.57 149.523H294.032C295.038 149.541 295.997 149.954 296.702 150.672C297.407 151.39 297.801 152.357 297.801 153.363C297.797 154.366 297.4 155.328 296.696 156.042C295.991 156.756 295.035 157.167 294.032 157.185Z" fill="#084880"/>
</g>
<g opacity="0.56">
<path d="M294.271 52.6534C293.164 52.2731 292.026 52.0357 290.868 51.9424C290.233 51.8915 289.701 52.4136 289.745 53.0495L289.939 55.8549C289.972 56.3539 290.358 56.7537 290.854 56.8154C291.823 56.9341 292.749 57.2079 293.605 57.6112C294.053 57.822 294.589 57.6803 294.881 57.2794L296.536 55.0045C296.91 54.491 296.741 53.7654 296.178 53.4723C295.565 53.1525 294.929 52.8799 294.271 52.6534ZM302.439 64.2625L299.68 64.8051C299.19 64.9008 298.842 65.332 298.842 65.8311C298.842 66.7977 298.687 67.7691 298.398 68.6655C298.247 69.1355 298.455 69.6478 298.888 69.8864L301.35 71.2455C301.905 71.552 302.605 71.2939 302.825 70.6992C303.43 69.0677 303.723 67.344 303.688 65.5816C303.686 65.4677 303.682 65.3538 303.677 65.2412C303.649 64.604 303.064 64.1401 302.439 64.2625ZM301.875 58.9643C301.297 57.9456 300.6 57.0141 299.795 56.1783C299.353 55.7204 298.608 55.7592 298.22 56.2643L296.507 58.4943C296.203 58.8904 296.226 59.4451 296.557 59.8194C297.204 60.5498 297.717 61.3687 298.092 62.2372C298.288 62.6926 298.783 62.9397 299.267 62.8331L302.014 62.2251C302.633 62.0882 302.988 61.4317 302.76 60.8393C302.513 60.1949 302.217 59.5699 301.875 58.9643Z" fill="white"/>
<path d="M297.911 71.6017C297.483 71.3534 296.937 71.4418 296.611 71.8173C295.122 73.5313 293.006 74.6857 290.622 74.9181C290.33 74.9473 290.033 74.9618 289.733 74.9618C289.433 74.9618 289.136 74.9473 288.844 74.9181C287.276 74.7656 285.824 74.2144 284.59 73.3665C284.099 73.0299 283.644 72.6471 283.229 72.223C282.171 71.1427 281.379 69.8005 280.961 68.3046C280.803 67.7413 280.698 67.1551 280.653 66.5543C280.635 66.3241 280.626 66.0903 280.626 65.8553C280.626 64.5144 280.917 63.2414 281.44 62.0943C281.687 61.5504 281.987 61.0356 282.332 60.5559C283.283 59.232 284.579 58.1721 286.088 57.5107C286.424 57.3642 286.769 57.1219 286.936 56.8397C287.06 56.6314 287.729 55.1378 287.729 55.1378C288.052 54.5007 288.14 53.7279 287.262 53.4444L285.451 52.8618C285.202 52.7564 284.922 52.7516 284.669 52.8497C284.546 52.8981 284.423 52.9478 284.301 52.9987C282.64 53.7012 281.147 54.7078 279.867 55.9881C279.209 56.6459 278.624 57.3581 278.117 58.1212C277.788 58.6142 277.492 59.1278 277.228 59.6608C277.104 59.9103 276.988 60.1647 276.879 60.4227C276.151 62.1451 275.781 63.973 275.781 65.8553C275.781 66.3738 275.809 66.8886 275.865 67.3985C275.929 67.9896 276.032 68.5735 276.171 69.1489C276.348 69.8768 276.583 70.5902 276.877 71.2868C277.58 72.9487 278.587 74.4409 279.867 75.7213C279.944 75.7988 280.023 75.8751 280.102 75.9503C280.533 76.3621 280.987 76.7437 281.462 77.0938C282.339 77.7406 283.289 78.282 284.301 78.7096C285.751 79.3225 287.276 79.6811 288.845 79.7791C289.139 79.7973 289.436 79.807 289.734 79.807C290.032 79.807 290.329 79.7973 290.623 79.7791C292.193 79.6811 293.717 79.3225 295.167 78.7096C296.829 78.0071 298.321 77.0005 299.601 75.7201C299.973 75.3482 300.322 74.9583 300.647 74.5524C301.042 74.0569 300.9 73.3253 300.351 73.0092L297.911 71.6017Z" fill="white"/>
<path d="M221.57 77.0503C221.699 77.0503 221.808 77.0959 221.894 77.1871C221.98 77.2782 222.024 77.3834 222.024 77.4991C222.024 77.6184 221.984 77.7236 221.903 77.8165C221.822 77.9077 221.712 77.9532 221.57 77.9532C221.426 77.9532 221.316 77.9077 221.237 77.8165C221.158 77.7253 221.119 77.6201 221.119 77.4991C221.119 77.3764 221.159 77.2712 221.24 77.1818C221.321 77.0941 221.431 77.0503 221.57 77.0503ZM221.191 73.2896H221.961V76.6997H221.191V73.2896Z" fill="white"/>
<path d="M223.759 77.7207C223.847 77.5805 223.905 77.4542 223.935 77.342C223.965 77.2298 223.979 77.1141 223.979 76.9949C223.979 76.5355 223.772 76.1778 223.358 75.9236L223.744 75.2469C224.059 75.4537 224.305 75.7027 224.478 75.9938C224.652 76.2848 224.739 76.5934 224.739 76.9195C224.739 77.1211 224.715 77.3157 224.666 77.5033C224.617 77.6909 224.524 77.8978 224.389 78.1275L223.588 79.4828L222.934 79.1076L223.759 77.7207ZM223.703 74.8717C223.565 74.8717 223.454 74.8261 223.37 74.7332C223.286 74.6402 223.244 74.5333 223.244 74.4141C223.244 74.2843 223.29 74.1756 223.381 74.0897C223.472 74.0038 223.579 73.96 223.702 73.96C223.821 73.96 223.926 74.0038 224.019 74.0897C224.11 74.1756 224.156 74.2843 224.156 74.4141C224.156 74.5385 224.112 74.6472 224.026 74.7367C223.942 74.8278 223.833 74.8717 223.703 74.8717Z" fill="white"/>
<path d="M225.324 73.29H226.094V77.9222H225.324V73.29Z" fill="white"/>
<path d="M226.672 75.2617H227.943C228.139 75.2617 228.32 75.2968 228.483 75.3687C228.646 75.4406 228.786 75.5352 228.904 75.6562C229.021 75.7754 229.111 75.9174 229.177 76.0805C229.242 76.2435 229.275 76.4171 229.275 76.5995C229.275 76.7958 229.24 76.9747 229.17 77.136C229.1 77.2973 229.004 77.4358 228.881 77.5515C228.758 77.669 228.618 77.7601 228.46 77.825C228.302 77.8899 228.134 77.9232 227.957 77.9232H226.674V77.1658H227.929C228.099 77.1658 228.239 77.1149 228.352 77.015C228.464 76.9133 228.518 76.7765 228.518 76.6012C228.518 76.5381 228.508 76.4715 228.485 76.4013C228.462 76.333 228.427 76.2698 228.38 76.2155C228.332 76.1611 228.271 76.1173 228.195 76.0822C228.12 76.0472 228.032 76.0296 227.929 76.0296H226.674V75.2617H226.672Z" fill="white"/>
<path d="M229.845 77.6887C229.933 77.5449 229.991 77.4187 230.021 77.3065C230.05 77.1943 230.064 77.0786 230.064 76.9593C230.064 76.5017 229.858 76.1458 229.444 75.8916L229.83 75.2148C230.145 75.4217 230.391 75.6707 230.564 75.9617C230.738 76.2528 230.825 76.5614 230.825 76.8875C230.825 76.9348 230.825 76.9821 230.825 77.0295C230.825 77.0768 230.82 77.1224 230.81 77.1662H231.216V77.9236H230.562C230.552 77.9499 230.538 77.978 230.522 78.0096C230.506 78.0411 230.491 78.0692 230.475 78.0955L229.673 79.4507L229.02 79.0755L229.845 77.6887Z" fill="white"/>
<path d="M231.217 77.9239C231.119 77.9239 231.047 77.8853 231 77.8064C230.954 77.7275 230.93 77.6434 230.93 77.5487C230.93 77.4558 230.952 77.3681 231 77.2875C231.047 77.2068 231.119 77.1665 231.217 77.1665H233.256V77.9239H231.217Z" fill="white"/>
<path d="M233.42 79.0981C233.28 79.0981 233.168 79.0508 233.086 78.9544C233.003 78.8579 232.963 78.7562 232.963 78.6475C232.963 78.5231 233.008 78.4144 233.098 78.3232C233.187 78.232 233.296 78.1864 233.42 78.1864C233.529 78.1864 233.631 78.2285 233.727 78.3127C233.824 78.3968 233.871 78.509 233.871 78.6493C233.871 78.7685 233.829 78.8737 233.748 78.9649C233.666 79.0525 233.555 79.0981 233.42 79.0981ZM233.257 77.9234C233.164 77.9234 233.094 77.8849 233.044 77.806C232.994 77.7271 232.97 77.6429 232.97 77.5482C232.97 77.4553 232.994 77.3712 233.044 77.2958C233.093 77.2204 233.164 77.1765 233.257 77.166C233.392 77.1467 233.515 77.0854 233.624 76.9802C233.733 76.875 233.787 76.7435 233.787 76.5839V75.2129H234.551V76.5839C234.551 76.7961 234.509 76.9907 234.423 77.166H235.235V77.9234H234.16V77.5254C234.031 77.6605 233.887 77.7604 233.727 77.827C233.571 77.8901 233.413 77.9234 233.257 77.9234ZM233.918 79.9467C233.773 79.9467 233.659 79.8994 233.577 79.8082C233.494 79.7153 233.454 79.6118 233.454 79.4979C233.454 79.3681 233.499 79.2577 233.589 79.17C233.678 79.0806 233.789 79.0368 233.92 79.0368C234.024 79.0368 234.125 79.0806 234.223 79.17C234.322 79.2594 234.371 79.3681 234.371 79.4979C234.371 79.6118 234.327 79.7153 234.239 79.8082C234.15 79.8994 234.043 79.9467 233.918 79.9467ZM234.409 79.0981C234.264 79.0981 234.15 79.0508 234.067 78.9596C233.985 78.8667 233.945 78.7633 233.945 78.6493C233.945 78.5195 233.99 78.4091 234.08 78.3214C234.169 78.232 234.28 78.1882 234.411 78.1882C234.515 78.1882 234.616 78.232 234.714 78.3214C234.813 78.4108 234.862 78.5195 234.862 78.6493C234.862 78.7633 234.818 78.8667 234.73 78.9596C234.639 79.0508 234.534 79.0981 234.409 79.0981Z" fill="white"/>
<path d="M235.237 77.166C235.372 77.1467 235.495 77.0854 235.603 76.9802C235.712 76.875 235.766 76.7435 235.766 76.5839V75.2129H236.524V76.5839C236.524 76.7856 236.485 76.9679 236.41 77.131C236.334 77.294 236.235 77.4343 236.114 77.5517C235.991 77.6692 235.852 77.7604 235.698 77.8253C235.542 77.8901 235.389 77.9234 235.239 77.9234C235.146 77.9234 235.076 77.8849 235.025 77.806C234.976 77.7271 234.951 77.6429 234.951 77.5482C234.951 77.4553 234.976 77.3712 235.025 77.2958C235.074 77.2204 235.144 77.1765 235.237 77.166ZM235.982 79.2051C235.863 79.2051 235.756 79.163 235.663 79.0771C235.57 78.9929 235.523 78.8825 235.523 78.7457C235.523 78.616 235.568 78.5073 235.658 78.4196C235.747 78.332 235.856 78.2881 235.98 78.2881C236.105 78.2881 236.214 78.3337 236.303 78.4231C236.392 78.5125 236.438 78.6212 236.438 78.7457C236.438 78.8755 236.392 78.9842 236.303 79.0718C236.215 79.1612 236.107 79.2051 235.982 79.2051Z" fill="white"/>
<path d="M237.59 72.2471H238.757V72.482H237.59V72.2471ZM237.59 72.7292H238.757V72.9642H237.59V72.7292Z" fill="white"/>
<path d="M238.076 73.29H238.846V77.9222H238.076V73.29Z" fill="white"/>
<path d="M239.412 77.1665H240.667C240.859 77.1665 241.004 77.1087 241.106 76.9947C241.207 76.8808 241.257 76.7493 241.257 76.6002C241.257 76.5371 241.246 76.4705 241.223 76.4004C241.2 76.332 241.165 76.2689 241.118 76.2145C241.071 76.1602 241.009 76.1163 240.934 76.0813C240.86 76.0462 240.771 76.0287 240.667 76.0287H239.412V75.2607H240.683C240.88 75.2607 241.06 75.2958 241.223 75.3677C241.386 75.4396 241.527 75.5343 241.644 75.6552C241.761 75.7744 241.851 75.9165 241.918 76.0795C241.982 76.2426 242.016 76.4161 242.016 76.5985C242.016 76.8106 241.975 77 241.896 77.1648H242.359V77.9222H239.416V77.1665H239.412Z" fill="white"/>
<path d="M242.36 77.9238C242.262 77.9238 242.19 77.8852 242.142 77.8063C242.097 77.7274 242.072 77.6433 242.072 77.5486C242.072 77.4557 242.095 77.368 242.142 77.2873C242.19 77.2067 242.262 77.1664 242.36 77.1664H242.97C242.928 77.0787 242.893 76.9823 242.868 76.8788C242.844 76.7754 242.83 76.6719 242.83 76.5685C242.83 76.3564 242.866 76.1688 242.942 76.0039C243.016 75.8409 243.114 75.7041 243.236 75.5954C243.359 75.4867 243.498 75.4043 243.652 75.35C243.808 75.2956 243.966 75.2676 244.129 75.2676C244.33 75.2676 244.529 75.3097 244.72 75.3956C244.913 75.4797 245.083 75.6182 245.232 75.8093L244.681 76.3476C244.557 76.1407 244.366 76.0373 244.111 76.0373C243.971 76.0373 243.85 76.0864 243.748 76.1845C243.647 76.2827 243.598 76.4125 243.598 76.5755C243.598 76.7316 243.647 76.8701 243.745 76.9875C243.843 77.105 243.987 77.1646 244.174 77.1646H245.791V77.922H242.36V77.9238Z" fill="white"/>
<path d="M245.799 77.166C245.934 77.1467 246.057 77.0854 246.166 76.9802C246.275 76.875 246.329 76.7435 246.329 76.5839V75.2129H247.086V76.5839C247.086 76.7856 247.048 76.9679 246.972 77.131C246.897 77.294 246.797 77.4343 246.676 77.5517C246.553 77.6692 246.415 77.7604 246.261 77.8253C246.105 77.8901 245.952 77.9234 245.801 77.9234C245.708 77.9234 245.638 77.8849 245.587 77.806C245.538 77.7271 245.514 77.6429 245.514 77.5482C245.514 77.4553 245.538 77.3712 245.587 77.2958C245.635 77.2204 245.707 77.1765 245.799 77.166ZM246.545 79.2051C246.425 79.2051 246.318 79.163 246.225 79.0771C246.133 78.9929 246.085 78.8825 246.085 78.7457C246.085 78.616 246.131 78.5073 246.22 78.4196C246.31 78.332 246.418 78.2881 246.543 78.2881C246.667 78.2881 246.774 78.3337 246.865 78.4231C246.955 78.5125 247 78.6212 247 78.7457C247 78.8755 246.955 78.9842 246.865 79.0718C246.776 79.1612 246.669 79.2051 246.545 79.2051Z" fill="white"/>
<path d="M248.576 77.9234V77.8831C248.576 77.6342 248.609 77.3869 248.674 77.1432C248.739 76.8995 248.834 76.6593 248.958 76.4209H249.516C249.402 76.7908 249.344 77.1625 249.344 77.5395C249.344 77.6026 249.344 77.6657 249.344 77.7288C249.344 77.792 249.349 77.8551 249.36 77.9217H248.576V77.9234Z" fill="white"/>
<path d="M250.851 77.6887C250.939 77.5449 250.997 77.4187 251.027 77.3065C251.056 77.1943 251.07 77.0786 251.07 76.9593C251.07 76.5017 250.863 76.1458 250.45 75.8916L250.835 75.2148C251.151 75.4217 251.396 75.6707 251.57 75.9617C251.744 76.2528 251.831 76.5614 251.831 76.8875C251.831 76.9348 251.831 76.9821 251.831 77.0295C251.831 77.0768 251.826 77.1224 251.815 77.1662H252.222V77.9236H251.568C251.558 77.9499 251.544 77.978 251.528 78.0096C251.512 78.0411 251.496 78.0692 251.481 78.0955L250.679 79.4507L250.025 79.0755L250.851 77.6887Z" fill="white"/>
<path d="M252.229 77.9239C252.131 77.9239 252.059 77.8853 252.012 77.8064C251.966 77.7275 251.941 77.6434 251.941 77.5487C251.941 77.4558 251.964 77.3681 252.012 77.2875C252.059 77.2068 252.131 77.1665 252.229 77.1665H254.268V77.9239H252.229Z" fill="white"/>
<path d="M254.268 77.9241C254.175 77.9241 254.105 77.8855 254.054 77.8066C254.005 77.7277 253.98 77.6436 253.98 77.5489C253.98 77.456 254.005 77.3683 254.054 77.2877C254.103 77.207 254.175 77.1667 254.268 77.1667H256.761L256.542 76.7161C256.439 76.5092 256.314 76.3426 256.167 76.2182C256.021 76.0937 255.86 76.0306 255.685 76.0306C255.571 76.0306 255.473 76.0551 255.392 76.1042C255.311 76.1533 255.232 76.2427 255.155 76.3725L254.485 75.9902C254.652 75.7273 254.834 75.5379 255.031 75.4204C255.227 75.303 255.465 75.2451 255.748 75.2451C255.965 75.2451 256.153 75.2802 256.312 75.3521C256.47 75.4239 256.612 75.5256 256.737 75.6554C256.861 75.7851 256.977 75.9447 257.084 76.1305C257.191 76.3181 257.298 76.525 257.406 76.7547C257.483 76.9142 257.561 77.0229 257.636 77.079C257.711 77.1369 257.796 77.1649 257.889 77.1649V77.9223H254.268V77.9241ZM255.725 73.96C255.849 73.96 255.956 74.0055 256.044 74.0967C256.132 74.1879 256.176 74.2913 256.176 74.4053C256.176 74.535 256.126 74.6455 256.028 74.7367C255.93 74.8261 255.828 74.8717 255.725 74.8717C255.595 74.8717 255.485 74.8261 255.397 74.7367C255.308 74.6472 255.264 74.5368 255.264 74.4053C255.264 74.2913 255.304 74.1879 255.385 74.0967C255.465 74.0055 255.579 73.96 255.725 73.96Z" fill="white"/>
<path d="M257.885 77.1665C258.02 77.1472 258.143 77.0859 258.252 76.9807C258.361 76.8755 258.415 76.744 258.415 76.5844V75.2134H259.172V76.5844C259.172 76.7861 259.134 76.9684 259.058 77.1315C258.983 77.2945 258.883 77.4348 258.762 77.5522C258.639 77.6697 258.501 77.7609 258.346 77.8257C258.19 77.8906 258.038 77.9239 257.887 77.9239C257.794 77.9239 257.724 77.8854 257.673 77.8065C257.624 77.7276 257.6 77.6434 257.6 77.5487C257.6 77.4558 257.624 77.3716 257.673 77.2963C257.721 77.2209 257.792 77.177 257.885 77.1665ZM258.631 79.2056C258.511 79.2056 258.404 79.1635 258.311 79.0776C258.219 78.9934 258.171 78.883 258.171 78.7462C258.171 78.6165 258.217 78.5078 258.306 78.4201C258.396 78.3324 258.504 78.2886 258.629 78.2886C258.753 78.2886 258.86 78.3342 258.951 78.4236C259.041 78.513 259.086 78.6217 259.086 78.7462C259.086 78.876 259.041 78.9847 258.951 79.0723C258.862 79.1617 258.755 79.2056 258.631 79.2056Z" fill="white"/>
<path d="M264.754 77.098C264.754 77.3715 264.712 77.6327 264.628 77.8834C264.543 78.1324 264.419 78.3551 264.252 78.5514C264.086 78.7461 263.875 78.9021 263.619 79.0196C263.364 79.137 263.064 79.1949 262.722 79.1949C262.52 79.1949 262.306 79.1563 262.08 79.0809C261.854 79.0055 261.647 78.8881 261.461 78.7303C261.274 78.5725 261.119 78.3709 260.997 78.1272C260.874 77.8834 260.812 77.5924 260.812 77.254C260.812 76.9945 260.856 76.7473 260.944 76.5124C261.032 76.2792 261.16 76.0723 261.328 75.8917C261.496 75.7112 261.701 75.5656 261.943 75.4534C262.185 75.3412 262.457 75.2781 262.76 75.2623V76.0232C262.599 76.0338 262.445 76.0706 262.301 76.1337C262.156 76.1968 262.031 76.281 261.926 76.3862C261.821 76.4931 261.738 76.6211 261.679 76.7701C261.619 76.9209 261.589 77.0875 261.589 77.2698C261.589 77.4609 261.621 77.6292 261.682 77.7765C261.745 77.922 261.831 78.0447 261.943 78.1429C262.056 78.2411 262.182 78.3165 262.326 78.3673C262.469 78.4199 262.624 78.4445 262.788 78.4445C262.944 78.4445 263.095 78.4147 263.241 78.3551C263.386 78.2955 263.514 78.2078 263.625 78.0903C263.737 77.9729 263.825 77.8326 263.889 77.666C263.954 77.4995 263.988 77.3101 263.988 77.098V75.229H264.752V77.098H264.754ZM262.762 77.6292C262.632 77.6292 262.525 77.5854 262.441 77.496C262.357 77.4066 262.315 77.2996 262.315 77.1751C262.315 77.0471 262.357 76.9402 262.441 76.8508C262.525 76.7614 262.632 76.7175 262.762 76.7175C262.901 76.7175 263.011 76.7614 263.095 76.8508C263.179 76.9402 263.221 77.0471 263.221 77.1751C263.221 77.2996 263.178 77.4066 263.088 77.496C262.999 77.5836 262.89 77.6292 262.762 77.6292Z" fill="white"/>
<path d="M266.723 76.9749C266.825 76.8557 266.874 76.726 266.874 76.5839V73.2896H267.644V76.5839C267.644 76.775 267.607 76.9504 267.535 77.1117C267.461 77.273 267.365 77.4132 267.242 77.536C267.119 77.6587 266.979 77.7534 266.818 77.8217C266.656 77.8901 266.486 77.9234 266.306 77.9234H265.178V77.166H265.98L264.928 74.1855L265.661 73.9821L266.723 76.9749Z" fill="white"/>
<path d="M268.236 73.29H269.006V77.9222H268.236V73.29Z" fill="white"/>
<path d="M223.427 64.1583C223.66 65.6732 224.47 66.4499 225.857 66.4937V68.7484H225.587C223.818 68.7589 222.426 67.742 221.411 65.6995C221.23 65.2436 221.141 64.7895 221.141 64.3337V55.7427C221.172 54.4943 221.935 53.5879 223.427 53.0269V64.1583Z" fill="white"/>
<path d="M225.254 66.492H226.174V52.9287H228.476V59.5981C229.271 59.3123 229.742 59.1528 229.89 59.1212L230.524 59.0423H233.971C235.665 59.0423 237.01 60.0329 238.005 62.0124C238.186 62.4893 238.275 62.9276 238.275 63.3308V66.492H239.245L239.229 68.7467H225.254V66.492ZM236.054 66.492V63.5237C235.779 62.0737 235.084 61.3479 233.973 61.3479H230.559C229.458 61.3479 228.769 62.0737 228.494 63.5237V66.4937H236.054V66.492Z" fill="white"/>
<path d="M256.446 67.2392C255.725 67.8003 255.101 68.2141 254.572 68.477C254.116 68.6576 253.662 68.747 253.206 68.747H252.475C251.617 68.747 250.606 68.307 249.441 67.4286H249.171C247.986 68.307 246.969 68.747 246.123 68.747H245.391C244.322 68.747 243.242 68.2386 242.151 67.2217C241.029 68.2386 239.976 68.747 238.99 68.747H238.578V66.4923H238.754C240.235 66.4818 240.977 65.4702 240.977 63.4592V58.948H243.294V64.1728C243.294 65.3264 244.068 66.0838 245.612 66.4433C247.243 66.147 248.058 65.3369 248.058 64.0132V58.9463H250.457V63.5995C250.457 65.1879 251.133 66.1031 252.489 66.3468H253.092C254.563 66.1242 255.299 65.2616 255.299 63.759V58.9463H257.617V63.9799C257.754 65.642 258.348 66.4783 259.396 66.4888V68.7435C258.541 68.7488 257.557 68.2456 256.446 67.2392Z" fill="white"/>
<path d="M259.939 64.2219V60.6014C259.939 58.9498 260.94 57.6366 262.94 56.6636L264.068 56.4567H264.718C266.391 56.4567 267.715 57.4315 268.688 59.3794C268.858 59.8142 268.942 60.2472 268.942 60.6821V65.3194C268.942 66.5906 267.867 67.6864 265.718 68.6068L264.829 68.7506H258.889V66.4959L264.638 66.4801C266.109 66.4906 266.845 65.9717 266.845 64.9232V64.2079L259.939 64.2219ZM261.901 55.6975C261.359 55.6975 260.896 55.5064 260.514 55.1224C260.13 54.7402 259.939 54.2774 259.939 53.7356C259.939 53.2131 260.13 52.759 260.514 52.3768C260.896 51.9946 261.359 51.8018 261.901 51.8018C262.443 51.8018 262.905 51.9929 263.288 52.3768C263.67 52.7608 263.863 53.2131 263.863 53.7356C263.863 54.2774 263.672 54.7402 263.288 55.1224C262.905 55.5047 262.443 55.6975 261.901 55.6975ZM262.115 62.2688H266.847V61.0783C266.847 59.5004 266.11 58.7114 264.639 58.7114H264.322C263.072 58.7114 262.337 59.4846 262.115 61.0292V62.2688ZM266.577 55.6975C266.035 55.6975 265.572 55.5064 265.19 55.1224C264.806 54.7402 264.615 54.2774 264.615 53.7356C264.615 53.1939 264.806 52.7363 265.19 52.3628C265.572 51.9894 266.035 51.8018 266.577 51.8018C267.119 51.8018 267.581 51.9894 267.964 52.3628C268.346 52.7363 268.539 53.1939 268.539 53.7356C268.539 54.2774 268.348 54.7402 267.964 55.1224C267.581 55.5047 267.119 55.6975 266.577 55.6975Z" fill="white"/>
</g>
<path d="M421.544 114.984C391.787 118.336 376.267 129.717 362.948 128.099C349.628 126.482 311.943 104.535 311.943 104.535L307.936 107.493C307.936 107.493 330.334 157.667 368.981 161.631C390.84 163.861 414.579 155.802 414.579 155.802" fill="url(#paint13_linear_16292_110464)"/>
<path d="M421.469 114.999C390.706 115.844 375.973 127.662 362.653 126.015C349.334 124.369 331.861 114.62 331.861 114.62L318.148 135.561C318.148 135.561 335.169 161.996 367.696 165.843C387.048 168.131 414.459 155.773 414.459 155.773" fill="#323949"/>
<path d="M328.554 112.287L339.207 117.635L322.347 142.525L312.729 131.188L328.554 112.287Z" fill="#161920"/>
<path d="M312.83 110.247C310.935 110.471 309.014 110.272 307.205 109.664C305.423 109.027 303.892 107.837 302.833 106.269C302.502 105.758 302.256 105.197 302.104 104.608C302.061 104.519 302.038 104.422 302.038 104.323C302.038 104.225 302.061 104.128 302.104 104.039C302.323 103.777 302.731 103.937 303.008 104.112C303.484 104.484 304.022 104.77 304.596 104.957C307.511 105.599 305.092 102.043 304.596 101.227C303.34 99.7304 302.205 98.137 301.201 96.4615C301.09 96.3039 301.023 96.1202 301.005 95.9285C300.987 95.7369 301.019 95.5439 301.099 95.3685C301.842 93.9112 306.476 99.3906 306.782 99.7403C307.021 99.4721 307.324 99.2696 307.664 99.1523C308.003 99.0349 308.367 99.0066 308.72 99.07C309.434 99.07 310.178 99.3906 310.833 99.4489C311.218 99.4557 311.603 99.4849 311.985 99.5363C312.47 99.6902 312.913 99.9526 313.282 100.304C313.651 100.655 313.935 101.085 314.112 101.562C314.616 102.667 314.877 103.867 314.877 105.081C314.877 106.296 314.616 107.496 314.112 108.601" fill="url(#paint14_linear_16292_110464)"/>
<path d="M421.338 442.346C424.252 446.28 424.048 452.794 422.241 453.45C421.192 453.844 399.625 454.543 399.304 453.275C397.759 447.067 415.567 443.38 415.567 443.38" fill="#0D101B"/>
<path d="M408.457 418.111L412.712 444.123C414.274 444.837 415.98 445.176 417.696 445.114C418.493 445.168 419.292 445.057 420.044 444.789C420.796 444.52 421.485 444.101 422.068 443.555L423.788 414.512" fill="url(#paint15_linear_16292_110464)"/>
<path d="M401.739 231.857C384.747 306.178 410.657 435.628 410.657 435.628H423C423 435.628 438.199 291.358 444.16 285.296C450.12 279.233 454.608 259.997 442.834 236.71" fill="#181E27"/>
<path d="M420.566 433.645C420.566 433.645 426.06 314.032 435.737 282.191" stroke="black" stroke-width="0.574178" stroke-miterlimit="10"/>
<path d="M423.117 435.627H410.103L409.477 431.678H423.802L423.117 435.627Z" fill="black"/>
<path d="M505.86 427.554C510.232 429.638 513.263 435.409 512.01 436.852C511.267 437.697 492.687 448.685 491.812 447.737C487.441 443.03 501.328 431.285 501.328 431.285" fill="#0D101B"/>
<path d="M484.73 410.679L499.172 433.266C500.878 433.131 502.529 432.603 503.996 431.722C504.728 431.374 505.385 430.884 505.928 430.282C506.47 429.679 506.888 428.975 507.158 428.21L494.45 393.381" fill="url(#paint16_linear_16292_110464)"/>
<path d="M433.74 234.772C433.74 234.772 434.25 305.683 443.591 333.56C458.907 379.26 493.357 424.436 493.357 424.436L503.558 417.922C503.558 417.922 485.503 340.366 485.503 328.606C485.503 314.266 485.677 286.68 485.677 283.081C493.824 268.071 495.718 247.494 481.029 226.786" fill="#181E27"/>
<path d="M504.798 420.18L493.577 426.33L491.129 423.168L503.501 416.377L504.798 420.18Z" fill="black"/>
<path d="M501.635 420.72C501.635 420.72 480.737 340.337 480.737 328.577C480.737 317.88 480.825 299.795 480.869 289.813C480.904 285.809 481.716 281.85 483.259 278.155C489.263 263.728 489.394 245.308 476.264 226.786" stroke="black" stroke-width="0.574178" stroke-miterlimit="10"/>
<path d="M399.889 244.04C429.442 248.964 459.651 248.366 488.986 242.276" stroke="black" stroke-width="0.574178" stroke-miterlimit="10"/>
<path d="M443.852 246.823L443.371 238.356" stroke="black" stroke-width="0.574178" stroke-miterlimit="10"/>
<path d="M436.712 243.5C437.113 243.462 437.485 243.276 437.756 242.978C438.026 242.681 438.176 242.293 438.176 241.89C438.176 241.488 438.026 241.1 437.756 240.802C437.485 240.504 437.113 240.318 436.712 240.28C436.312 240.318 435.94 240.504 435.669 240.802C435.398 241.1 435.248 241.488 435.248 241.89C435.248 242.293 435.398 242.681 435.669 242.978C435.94 243.276 436.312 243.462 436.712 243.5Z" fill="black"/>
<path d="M433.742 247.261C433.475 256.986 433.792 266.719 434.689 276.406C436.773 295.001 438.58 309.807 438.58 309.807" stroke="black" stroke-width="0.574178" stroke-miterlimit="10"/>
<path d="M428.143 247.027C428.143 247.027 429.236 264.383 430.474 265.592C431.436 266.453 432.54 267.139 433.738 267.618" stroke="black" stroke-width="0.574178" stroke-miterlimit="10"/>
<path d="M481.028 142.09C481.028 142.09 482.85 212.665 471.935 236.113C454.2 241.242 411.793 239.217 403.443 236.871C395.093 234.524 390.779 142.148 390.779 142.148L415.669 115.494C415.669 115.494 422.723 114.708 425.87 114.708C441.594 113.454 447.584 114.314 447.584 114.314L481.028 142.09Z" fill="#FF6F5E"/>
<path d="M419.429 103.574L417.578 115.363C417.578 115.363 417.578 122.489 427.342 122.489C441.725 122.489 443.547 114.678 443.547 114.678L438.811 92.4839" fill="url(#paint17_linear_16292_110464)"/>
<path d="M419.041 108.042C419.041 108.042 425.89 108.421 430.262 105.229C432.416 103.394 433.847 100.853 434.299 98.0596" stroke="#F7A794" stroke-width="1.14836" stroke-miterlimit="10"/>
<path d="M412.685 90.7206C412.568 90.1085 411.752 89.8899 411.227 90.0502C410.804 90.1934 410.422 90.4364 410.112 90.7585C409.803 91.0806 409.576 91.4725 409.45 91.901C409.195 92.7611 409.135 93.6671 409.275 94.5532C409.328 95.3841 409.583 96.1895 410.018 96.8994C410.467 97.4855 411.116 97.8863 411.841 98.026C412.566 98.1656 413.318 98.0344 413.953 97.6572" fill="#F9BBAF"/>
<path d="M411.748 78.9598C411.748 78.9598 409.387 99.143 412.753 102.742C417.796 108.134 427.851 107.187 431.698 103.835C434.904 101.023 436.07 88.2135 435.618 84.9929C434.408 76.2493 415.755 73.7136 411.748 78.9598Z" fill="#FFDACF"/>
<path d="M439.831 74.1075C437.598 71.6022 434.787 69.6811 431.641 68.5116C428.089 66.7142 424.136 65.8563 420.158 66.0196C417.651 66.3535 415.22 67.1177 412.973 68.2784C412.163 68.6438 411.434 69.1692 410.831 69.8231C410.307 70.406 410.015 71.6447 409.112 71.7176C407.217 71.8633 407.96 73.9472 408.208 75.113C408.418 76.2897 409 77.3678 409.869 78.1878C410.754 78.8648 411.798 79.3015 412.901 79.4557C415.42 79.7692 417.965 79.8131 420.493 79.5868C424.259 79.4383 428.03 79.5894 431.772 80.0386C431.505 84.0627 431.894 88.1035 432.923 92.0028C433.812 91.449 435.051 90.939 435.838 91.6822C436.039 91.9233 436.192 92.2002 436.29 92.4982C436.831 93.851 437.454 95.1698 438.155 96.4474C438.563 97.1761 439.175 98.0067 440.006 97.9047C442.25 97.6278 442.119 94.2615 442.352 92.644C442.743 90.0288 442.952 87.3897 442.979 84.7456C443.141 80.9482 442.034 77.2049 439.831 74.1075Z" fill="#011E3B"/>
<path d="M431.498 90.7204C431.741 90.2471 432.081 89.8301 432.495 89.4963C432.909 89.1624 433.388 88.9192 433.903 88.7822C434.719 88.8055 435.5 89.1209 436.103 89.6712C439.018 92.1777 437.05 98.065 433.043 98.0068C431.585 98.0068 431.702 96.0249 431.702 96.0249" fill="#FFDACF"/>
<path d="M417.782 88.2285C417.782 88.2285 415.523 93.0812 415.669 94.1742C415.815 95.2671 418.802 95.442 418.802 95.442" stroke="#F7A794" stroke-width="1.14836" stroke-linejoin="round"/>
<path d="M423.162 89.1317C423.118 89.3441 423.159 89.565 423.276 89.7475C423.393 89.9299 423.577 90.0593 423.788 90.1081C424.182 90.1081 424.531 89.7584 424.56 89.2483C424.59 88.7383 424.327 88.2865 423.934 88.2574C423.54 88.2282 423.205 88.6217 423.162 89.1317Z" fill="#011E3B"/>
<path d="M412.289 88.1986C412.282 88.2943 412.294 88.3904 412.325 88.4814C412.355 88.5723 412.403 88.6564 412.466 88.7288C412.593 88.875 412.773 88.9647 412.967 88.9783C413.16 88.9918 413.35 88.928 413.497 88.8009C413.643 88.6738 413.733 88.4939 413.746 88.3006C413.79 88.0883 413.749 87.8674 413.632 87.6849C413.514 87.5025 413.331 87.3731 413.12 87.3243C412.682 87.2951 412.333 87.6886 412.289 88.1986Z" fill="#011E3B"/>
<path d="M422.941 98.8516L416.34 98.9973C416.34 98.9973 416.894 103.559 419.881 103.588C423.553 103.602 422.941 98.8516 422.941 98.8516Z" fill="white"/>
<path d="M427.286 84.8923L426.849 84.1928C426.798 84.0927 426.718 84.0108 426.618 83.9585C426.519 83.9063 426.406 83.8863 426.295 83.9014C425.314 83.9132 424.336 84.0305 423.38 84.2511C422.919 84.329 422.469 84.4611 422.04 84.6446C421.515 84.9069 421.602 84.9069 421.879 85.4315C421.905 85.4894 421.945 85.5396 421.996 85.5772C422.09 85.6131 422.193 85.6131 422.287 85.5772C423.838 85.1264 425.464 84.9926 427.067 85.1838C427.155 85.1838 427.257 85.1838 427.3 85.1109C427.317 85.0764 427.325 85.038 427.322 84.9996C427.32 84.9613 427.307 84.9242 427.286 84.8923Z" fill="#011E3B"/>
<path d="M411.46 84.5272L411.853 83.8568C411.896 83.7727 411.956 83.6983 412.028 83.6382C412.122 83.6024 412.226 83.6024 412.32 83.6382C413.106 83.6887 413.881 83.8506 414.622 84.1191C414.991 84.2207 415.344 84.3727 415.671 84.5709C416.079 84.8623 416.007 84.8478 415.671 85.3724C415.664 85.4053 415.648 85.4358 415.625 85.4611C415.603 85.4864 415.574 85.5057 415.543 85.5172C415.511 85.5288 415.477 85.5323 415.443 85.5273C415.41 85.5224 415.378 85.5092 415.351 85.489C414.144 84.9675 412.829 84.7475 411.518 84.8478C411.493 84.8667 411.462 84.8769 411.431 84.8769C411.399 84.8769 411.369 84.8667 411.343 84.8478C411.335 84.7889 411.341 84.7289 411.362 84.673C411.382 84.6171 411.416 84.567 411.46 84.5272Z" fill="#011E3B"/>
<path d="M447.656 114.299C447.656 114.299 440.792 138.417 445.513 191.403C448.268 222.166 458.133 256.033 458.133 256.033C458.133 256.033 491.753 252.973 491.753 248.455C491.753 243.938 483.708 218.654 483.708 202.872C483.708 187.09 481.595 129.425 481.595 129.425C481.595 129.425 466.221 116.324 447.656 114.299Z" fill="#323949"/>
<path d="M458.905 117.636C458.905 117.636 455.379 151.328 453.076 153.557C452.391 154.228 447.247 154.738 447.247 156.151C447.247 157.565 451.167 157.827 451.167 161.47C450.403 171.993 448.845 182.442 446.504 192.729" stroke="#161920" stroke-width="0.574178" stroke-miterlimit="10"/>
<path d="M415.671 115.494C415.671 115.494 412.873 251.617 411.008 256.047C402.789 257.782 387.691 253.235 387.691 253.235C387.691 253.235 391.539 208.759 390.708 195.644C389.426 175.242 388.333 151.386 388.333 151.386L389.09 125.155C389.09 125.155 399 118.816 415.671 115.494Z" fill="#323949"/>
<path d="M406.256 116.441C406.256 116.441 403.881 147.189 407.539 153.558C408.02 154.388 413.368 155.015 413.222 156.472C413.076 157.929 409.229 157.929 409.069 161.602C408.909 165.274 411.022 181.26 413.207 193.443" stroke="#161920" stroke-width="0.574178" stroke-miterlimit="10"/>
<path d="M388.84 161.806L388.578 141.536" stroke="#161920" stroke-width="0.574178" stroke-miterlimit="10"/>
<path d="M457.348 296.909C457.348 296.909 460.758 271.495 475.986 272.66C488.679 273.637 491.2 297.143 491.2 297.143" stroke="black" stroke-width="1.14836" stroke-miterlimit="10"/>
<path d="M446.927 293.645L443.371 370.297L511.557 367.237L502.361 291.167L446.927 293.645Z" fill="#00569F"/>
<path d="M511.559 367.237L502.363 291.167L519.661 360.446L511.559 367.237Z" fill="#749BE8"/>
<path d="M466.675 300.946C466.675 300.946 459.651 275.793 474.646 272.879C487.091 270.402 494.625 292.13 494.625 292.13" stroke="black" stroke-width="1.14836" stroke-miterlimit="10"/>
<path d="M455.846 297.711L466.834 364.79L525.372 349.619L503.426 285.383L455.846 297.711Z" fill="url(#paint18_linear_16292_110464)"/>
<path d="M525.374 349.619L503.428 285.383L531.145 342.246L525.374 349.619Z" fill="#ECBB1D"/>
<path d="M513.029 189.61C517.168 216.482 479.629 266.35 479.629 266.35L472.459 263.713C472.459 263.713 487.032 206.005 482.908 196.678" fill="url(#paint19_linear_16292_110464)"/>
<path d="M457.406 154.053C457.406 154.053 478.974 184.656 480.475 197.479C482.282 212.883 477.283 236.52 477.283 236.52C486.799 240.892 497.816 245.38 497.816 245.38C497.816 245.38 521.38 217.255 517.154 187.993C512.462 155.568 485.983 125.869 462.492 118.175" fill="#323949"/>
<path d="M477.327 236.521C477.327 236.521 482.923 209.59 480.518 197.48C478.114 185.37 461.297 159.693 461.297 159.693" stroke="#161920" stroke-width="0.574178" stroke-miterlimit="10"/>
<path d="M474.821 261.003C473.068 262.306 471.614 263.971 470.558 265.884C469.503 267.797 468.869 269.914 468.701 272.093C468.592 273.135 468.74 274.187 469.134 275.158C469.528 276.129 470.155 276.988 470.96 277.659C471.915 278.27 472.978 278.69 474.093 278.898C475.227 278.722 476.341 278.429 477.415 278.024C479.193 279.102 480.942 278.024 482.079 276.275C483.215 274.526 483.813 272.471 482.691 270.737C482.449 270.455 482.18 270.196 481.889 269.965C481.889 269.965 482.88 263.291 477.765 260.784" fill="url(#paint20_linear_16292_110464)"/>
<path d="M485.924 277.323C484.352 275.465 482.245 274.137 479.891 273.52" stroke="black" stroke-width="1.14836" stroke-miterlimit="10"/>
<path d="M485.501 279.335C485.501 279.335 482.368 274.963 479.891 273.506" stroke="black" stroke-width="1.14836" stroke-miterlimit="10"/>
<path d="M477.954 228.345L474.02 239.435L496.622 250.291L504.01 237.19L477.954 228.345Z" fill="#161920"/>
<defs>
<filter id="filter0_f_16292_110464" x="52" y="95" width="331" height="170" filterUnits="userSpaceOnUse" color-interpolation-filters="sRGB">
<feFlood flood-opacity="0" result="BackgroundImageFix"/>
<feBlend mode="normal" in="SourceGraphic" in2="BackgroundImageFix" result="shape"/>
<feGaussianBlur stdDeviation="32" result="effect1_foregroundBlur_16292_110464"/>
</filter>
<linearGradient id="paint0_linear_16292_110464" x1="152.617" y1="412.83" x2="156.942" y2="416.467" gradientUnits="userSpaceOnUse">
<stop stop-color="#AA80F9"/>
<stop offset="1" stop-color="#6165D7"/>
</linearGradient>
<linearGradient id="paint1_linear_16292_110464" x1="155.423" y1="421.091" x2="171.055" y2="421.091" gradientUnits="userSpaceOnUse">
<stop stop-color="#AA80F9"/>
<stop offset="1" stop-color="#6165D7"/>
</linearGradient>
<linearGradient id="paint2_linear_16292_110464" x1="159.963" y1="421.297" x2="166.514" y2="421.297" gradientUnits="userSpaceOnUse">
<stop stop-color="#40447E"/>
<stop offset="1" stop-color="#3C3B6B"/>
</linearGradient>
<linearGradient id="paint3_linear_16292_110464" x1="236.293" y1="403.815" x2="240.618" y2="407.45" gradientUnits="userSpaceOnUse">
<stop stop-color="#AA80F9"/>
<stop offset="1" stop-color="#6165D7"/>
</linearGradient>
<linearGradient id="paint4_linear_16292_110464" x1="239.099" y1="412.074" x2="254.73" y2="412.074" gradientUnits="userSpaceOnUse">
<stop stop-color="#AA80F9"/>
<stop offset="1" stop-color="#6165D7"/>
</linearGradient>
<linearGradient id="paint5_linear_16292_110464" x1="243.641" y1="412.283" x2="250.189" y2="412.283" gradientUnits="userSpaceOnUse">
<stop stop-color="#40447E"/>
<stop offset="1" stop-color="#3C3B6B"/>
</linearGradient>
<linearGradient id="paint6_linear_16292_110464" x1="358.63" y1="217.877" x2="434.265" y2="217.877" gradientUnits="userSpaceOnUse">
<stop stop-color="#40447E"/>
<stop offset="1" stop-color="#3C3B6B"/>
</linearGradient>
<linearGradient id="paint7_linear_16292_110464" x1="226.031" y1="440.869" x2="230.356" y2="444.506" gradientUnits="userSpaceOnUse">
<stop stop-color="#AA80F9"/>
<stop offset="1" stop-color="#6165D7"/>
</linearGradient>
<linearGradient id="paint8_linear_16292_110464" x1="228.837" y1="449.131" x2="244.469" y2="449.131" gradientUnits="userSpaceOnUse">
<stop stop-color="#AA80F9"/>
<stop offset="1" stop-color="#6165D7"/>
</linearGradient>
<linearGradient id="paint9_linear_16292_110464" x1="233.375" y1="449.337" x2="239.926" y2="449.337" gradientUnits="userSpaceOnUse">
<stop stop-color="#40447E"/>
<stop offset="1" stop-color="#3C3B6B"/>
</linearGradient>
<linearGradient id="paint10_linear_16292_110464" x1="298.475" y1="433.617" x2="302.799" y2="437.253" gradientUnits="userSpaceOnUse">
<stop stop-color="#AA80F9"/>
<stop offset="1" stop-color="#6165D7"/>
</linearGradient>
<linearGradient id="paint11_linear_16292_110464" x1="301.28" y1="441.877" x2="316.912" y2="441.877" gradientUnits="userSpaceOnUse">
<stop stop-color="#AA80F9"/>
<stop offset="1" stop-color="#6165D7"/>
</linearGradient>
<linearGradient id="paint12_linear_16292_110464" x1="305.822" y1="442.084" x2="312.371" y2="442.084" gradientUnits="userSpaceOnUse">
<stop stop-color="#40447E"/>
<stop offset="1" stop-color="#3C3B6B"/>
</linearGradient>
<linearGradient id="paint13_linear_16292_110464" x1="355.763" y1="122.199" x2="364.953" y2="169.013" gradientUnits="userSpaceOnUse">
<stop stop-color="#FFB29B"/>
<stop offset="1" stop-color="#FFD4C8"/>
</linearGradient>
<linearGradient id="paint14_linear_16292_110464" x1="311.044" y1="97.3764" x2="301.486" y2="116.676" gradientUnits="userSpaceOnUse">
<stop stop-color="#FEBBBA"/>
<stop offset="1" stop-color="#FF928E"/>
</linearGradient>
<linearGradient id="paint15_linear_16292_110464" x1="414.911" y1="423.919" x2="427.447" y2="440.099" gradientUnits="userSpaceOnUse">
<stop stop-color="#FFB29B"/>
<stop offset="1" stop-color="#FFD4C8"/>
</linearGradient>
<linearGradient id="paint16_linear_16292_110464" x1="494.172" y1="405.636" x2="509.94" y2="428.49" gradientUnits="userSpaceOnUse">
<stop stop-color="#FFB29B"/>
<stop offset="1" stop-color="#FFD4C8"/>
</linearGradient>
<linearGradient id="paint17_linear_16292_110464" x1="428.511" y1="101.704" x2="437.983" y2="122.834" gradientUnits="userSpaceOnUse">
<stop stop-color="#FFB29B"/>
<stop offset="1" stop-color="#FFD4C8"/>
</linearGradient>
<linearGradient id="paint18_linear_16292_110464" x1="451.098" y1="310.093" x2="537.077" y2="356.726" gradientUnits="userSpaceOnUse">
<stop stop-color="#FBDD7D"/>
<stop offset="1" stop-color="#FFCF34"/>
</linearGradient>
<linearGradient id="paint19_linear_16292_110464" x1="489.673" y1="213.19" x2="520.556" y2="255.605" gradientUnits="userSpaceOnUse">
<stop stop-color="#FFB29B"/>
<stop offset="1" stop-color="#FFD4C8"/>
</linearGradient>
<linearGradient id="paint20_linear_16292_110464" x1="474.822" y1="266.35" x2="480.803" y2="278.796" gradientUnits="userSpaceOnUse">
<stop stop-color="#FFB29B"/>
<stop offset="1" stop-color="#FFD4C8"/>
</linearGradient>
</defs>
</svg>
