<svg width="89" height="235" viewBox="0 0 89 235" fill="none" xmlns="http://www.w3.org/2000/svg">
<path d="M3.14111 67.7703L-13.9252 57.9066" stroke="url(#paint0_linear_12060_47969)" stroke-width="1.6547" stroke-miterlimit="10" stroke-linecap="round" stroke-linejoin="round"/>
<path d="M12.6685 91.1799L-0.35912 83.648" stroke="url(#paint1_linear_12060_47969)" stroke-width="1.6547" stroke-miterlimit="10" stroke-linecap="round" stroke-linejoin="round"/>
<path d="M24.7192 116.043L-35.5839 81.2167" stroke="url(#paint2_linear_12060_47969)" stroke-width="1.6547" stroke-miterlimit="10" stroke-linecap="round" stroke-linejoin="round"/>
<path d="M24.395 133.757L3.26189 121.555" stroke="url(#paint3_linear_12060_47969)" stroke-width="1.6547" stroke-miterlimit="10" stroke-linecap="round" stroke-linejoin="round"/>
<path d="M53.981 168.755L-68.4033 98.096" stroke="url(#paint4_linear_12060_47969)" stroke-width="1.6547" stroke-miterlimit="10" stroke-linecap="round" stroke-linejoin="round"/>
<path d="M14.3052 163.757L-13.4686 147.711" stroke="url(#paint5_linear_12060_47969)" stroke-width="1.6547" stroke-miterlimit="10" stroke-linecap="round" stroke-linejoin="round"/>
<path d="M22.8169 186.58L-34.2582 153.628" stroke="url(#paint6_linear_12060_47969)" stroke-width="1.6547" stroke-miterlimit="10" stroke-linecap="round" stroke-linejoin="round"/>
<g opacity="0.1">
<path d="M6.86048 175.846L67.6423 115.064C68.6038 114.102 68.6038 112.543 67.6423 111.582L6.86048 50.7999C5.89894 49.8384 4.33998 49.8384 3.37844 50.7999L-57.4034 111.582C-58.3649 112.543 -58.3649 114.102 -57.4034 115.064L3.37844 175.846C4.33998 176.807 5.89894 176.807 6.86048 175.846Z" stroke="#979797" stroke-width="3.3499" stroke-miterlimit="10"/>
<path d="M85.6674 118.548C85.4682 118.348 85.3327 118.095 85.2777 117.819C85.2228 117.542 85.251 117.256 85.3587 116.996C85.4665 116.736 85.649 116.514 85.8831 116.357C86.1172 116.201 86.3925 116.117 86.6741 116.117C86.9557 116.117 87.2309 116.201 87.465 116.357C87.6992 116.514 87.8816 116.736 87.9894 116.996C88.0972 117.256 88.1254 117.542 88.0704 117.819C88.0155 118.095 87.8799 118.349 87.6808 118.548C87.4138 118.815 87.0517 118.965 86.6741 118.965C86.2965 118.965 85.9344 118.815 85.6674 118.548V118.548Z" fill="#010101"/>
<path d="M69.9042 134.311C69.7051 134.112 69.5695 133.858 69.5145 133.582C69.4596 133.306 69.4878 133.02 69.5956 132.76C69.7033 132.499 69.8858 132.277 70.1199 132.121C70.354 131.964 70.6293 131.881 70.9109 131.881C71.1925 131.881 71.4677 131.964 71.7019 132.121C71.936 132.277 72.1185 132.499 72.2262 132.76C72.334 133.02 72.3622 133.306 72.3072 133.582C72.2523 133.858 72.1167 134.112 71.9176 134.311C71.6506 134.578 71.2885 134.728 70.9109 134.728C70.5333 134.728 70.1712 134.578 69.9042 134.311Z" fill="#010101"/>
<path d="M54.1376 150.077C53.9385 149.878 53.8029 149.625 53.7479 149.348C53.693 149.072 53.7212 148.786 53.829 148.526C53.9367 148.266 54.1192 148.043 54.3533 147.887C54.5874 147.73 54.8627 147.647 55.1443 147.647C55.4259 147.647 55.7011 147.73 55.9353 147.887C56.1694 148.043 56.3519 148.266 56.4596 148.526C56.5674 148.786 56.5956 149.072 56.5406 149.348C56.4857 149.625 56.3501 149.878 56.151 150.077C55.884 150.344 55.5219 150.494 55.1443 150.494C54.7667 150.494 54.4046 150.344 54.1376 150.077Z" fill="#010101"/>
<path d="M38.3744 165.841C38.1753 165.642 38.0397 165.388 37.9847 165.112C37.9298 164.836 37.958 164.549 38.0658 164.289C38.1735 164.029 38.356 163.807 38.5901 163.65C38.8243 163.494 39.0995 163.41 39.3811 163.41C39.6627 163.41 39.9379 163.494 40.1721 163.65C40.4062 163.807 40.5887 164.029 40.6964 164.289C40.8042 164.549 40.8324 164.836 40.7775 165.112C40.7225 165.388 40.5869 165.642 40.3878 165.841C40.1208 166.108 39.7587 166.258 39.3811 166.258C39.0035 166.258 38.6414 166.108 38.3744 165.841V165.841Z" fill="#010101"/>
<path d="M22.6136 181.602C22.4145 181.403 22.2789 181.149 22.224 180.873C22.1691 180.596 22.1973 180.31 22.305 180.05C22.4128 179.79 22.5953 179.568 22.8294 179.411C23.0635 179.255 23.3388 179.171 23.6204 179.171C23.9019 179.171 24.1772 179.255 24.4113 179.411C24.6455 179.568 24.8279 179.79 24.9357 180.05C25.0435 180.31 25.0717 180.596 25.0167 180.873C24.9618 181.149 24.8262 181.403 24.6271 181.602C24.3601 181.869 23.998 182.019 23.6204 182.019C23.2428 182.019 22.8806 181.869 22.6136 181.602V181.602Z" fill="#010101"/>
<path d="M71.5736 104.453C71.3745 104.254 71.2389 104.001 71.184 103.724C71.129 103.448 71.1572 103.162 71.265 102.902C71.3727 102.642 71.5552 102.419 71.7894 102.263C72.0235 102.107 72.2987 102.023 72.5803 102.023C72.8619 102.023 73.1372 102.107 73.3713 102.263C73.6054 102.419 73.7879 102.642 73.8957 102.902C74.0034 103.162 74.0316 103.448 73.9767 103.724C73.9217 104.001 73.7861 104.254 73.587 104.453C73.32 104.72 72.9579 104.87 72.5803 104.87C72.2027 104.87 71.8406 104.72 71.5736 104.453V104.453Z" fill="#010101"/>
<path d="M55.8099 120.217C55.6108 120.018 55.4752 119.764 55.4203 119.488C55.3654 119.212 55.3936 118.926 55.5013 118.665C55.6091 118.405 55.7916 118.183 56.0257 118.026C56.2598 117.87 56.5351 117.787 56.8167 117.787C57.0982 117.787 57.3735 117.87 57.6076 118.026C57.8418 118.183 58.0242 118.405 58.132 118.665C58.2397 118.926 58.2679 119.212 58.213 119.488C58.1581 119.764 58.0225 120.018 57.8234 120.217C57.5564 120.484 57.1942 120.634 56.8167 120.634C56.4391 120.634 56.0769 120.484 55.8099 120.217Z" fill="#010101"/>
<path d="M40.0438 135.983C39.8447 135.784 39.7091 135.53 39.6542 135.254C39.5993 134.978 39.6274 134.692 39.7352 134.432C39.843 134.172 40.0254 133.949 40.2596 133.793C40.4937 133.636 40.769 133.553 41.0505 133.553C41.3321 133.553 41.6074 133.636 41.8415 133.793C42.0756 133.949 42.2581 134.172 42.3659 134.432C42.4736 134.692 42.5018 134.978 42.4469 135.254C42.392 135.53 42.2564 135.784 42.0573 135.983C41.7903 136.25 41.4281 136.4 41.0505 136.4C40.6729 136.4 40.3108 136.25 40.0438 135.983Z" fill="#010101"/>
<path d="M24.2802 151.747C24.081 151.548 23.9455 151.294 23.8905 151.018C23.8356 150.742 23.8638 150.455 23.9715 150.195C24.0793 149.935 24.2618 149.713 24.4959 149.556C24.73 149.4 25.0053 149.316 25.2869 149.316C25.5684 149.316 25.8437 149.4 26.0778 149.556C26.312 149.713 26.4944 149.935 26.6022 150.195C26.71 150.455 26.7382 150.742 26.6832 151.018C26.6283 151.294 26.4927 151.548 26.2936 151.747C26.0266 152.014 25.6645 152.164 25.2869 152.164C24.9093 152.164 24.5471 152.014 24.2802 151.747Z" fill="#010101"/>
<path d="M8.51941 167.508C8.3203 167.308 8.18471 167.055 8.12977 166.779C8.07484 166.502 8.10303 166.216 8.21079 165.956C8.31855 165.696 8.50103 165.473 8.73515 165.317C8.96928 165.161 9.24454 165.077 9.52612 165.077C9.80771 165.077 10.083 165.161 10.3171 165.317C10.5512 165.473 10.7337 165.696 10.8415 165.956C10.9492 166.216 10.9774 166.502 10.9225 166.779C10.8675 167.055 10.7319 167.308 10.5328 167.508C10.2658 167.775 9.90372 167.925 9.52613 167.925C9.14854 167.925 8.78641 167.775 8.51941 167.508V167.508Z" fill="#010101"/>
<path d="M57.4916 90.3718C57.2925 90.1727 57.1569 89.919 57.1019 89.6428C57.047 89.3666 57.0752 89.0804 57.183 88.8202C57.2907 88.5601 57.4732 88.3377 57.7073 88.1813C57.9414 88.0248 58.2167 87.9413 58.4983 87.9413C58.7799 87.9413 59.0551 88.0248 59.2893 88.1813C59.5234 88.3377 59.7059 88.5601 59.8136 88.8202C59.9214 89.0804 59.9496 89.3666 59.8946 89.6428C59.8397 89.919 59.7041 90.1727 59.505 90.3718C59.238 90.6388 58.8759 90.7888 58.4983 90.7888C58.1207 90.7888 57.7586 90.6388 57.4916 90.3718V90.3718Z" fill="#010101"/>
<path d="M43.7418 106.135C44.2978 105.579 44.2978 104.678 43.7418 104.122C43.1858 103.566 42.2844 103.566 41.7284 104.122C41.1724 104.678 41.1724 105.579 41.7284 106.135C42.2844 106.691 43.1858 106.691 43.7418 106.135Z" fill="#010101"/>
<path d="M27.9752 121.901C28.5312 121.345 28.5312 120.444 27.9752 119.888C27.4192 119.332 26.5178 119.332 25.9618 119.888C25.4058 120.444 25.4058 121.345 25.9618 121.901C26.5178 122.457 27.4192 122.457 27.9752 121.901Z" fill="#010101"/>
<path d="M10.1986 137.665C9.9995 137.466 9.86391 137.212 9.80897 136.936C9.75404 136.66 9.78223 136.374 9.88999 136.113C9.99774 135.853 10.1802 135.631 10.4144 135.475C10.6485 135.318 10.9237 135.235 11.2053 135.235C11.4869 135.235 11.7622 135.318 11.9963 135.475C12.2304 135.631 12.4129 135.853 12.5207 136.113C12.6284 136.374 12.6566 136.66 12.6017 136.936C12.5467 137.212 12.4111 137.466 12.212 137.665C11.945 137.932 11.5829 138.082 11.2053 138.082C10.8277 138.082 10.4656 137.932 10.1986 137.665Z" fill="#010101"/>
<path d="M43.4095 76.2893C43.2104 76.0902 43.0748 75.8365 43.0199 75.5603C42.965 75.2842 42.9932 74.9979 43.1009 74.7378C43.2087 74.4776 43.3912 74.2553 43.6253 74.0988C43.8594 73.9424 44.1347 73.8589 44.4163 73.8589C44.6978 73.8589 44.9731 73.9424 45.2072 74.0988C45.4414 74.2553 45.6238 74.4776 45.7316 74.7378C45.8393 74.9979 45.8675 75.2842 45.8126 75.5603C45.7577 75.8365 45.6221 76.0902 45.423 76.2893C45.156 76.5563 44.7939 76.7063 44.4163 76.7063C44.0387 76.7063 43.6765 76.5563 43.4095 76.2893V76.2893Z" fill="#010101"/>
<path d="M29.6593 92.0529C30.2153 91.4969 30.2153 90.5954 29.6593 90.0394C29.1033 89.4834 28.2019 89.4834 27.6459 90.0394C27.0899 90.5954 27.0899 91.4969 27.6459 92.0529C28.2019 92.6088 29.1033 92.6088 29.6593 92.0529Z" fill="#010101"/>
<path d="M13.8932 107.819C14.4492 107.263 14.4492 106.362 13.8932 105.806C13.3372 105.25 12.4358 105.25 11.8798 105.806C11.3238 106.362 11.3238 107.263 11.8798 107.819C12.4358 108.375 13.3372 108.375 13.8932 107.819Z" fill="#010101"/>
<path d="M29.3153 62.1956C29.1162 61.9964 28.9806 61.7428 28.9257 61.4666C28.8707 61.1904 28.8989 60.9042 29.0067 60.644C29.1144 60.3839 29.2969 60.1615 29.5311 60.0051C29.7652 59.8486 30.0404 59.7651 30.322 59.7651C30.6036 59.7651 30.8789 59.8486 31.113 60.0051C31.3471 60.1615 31.5296 60.3839 31.6374 60.644C31.7451 60.9042 31.7733 61.1904 31.7184 61.4666C31.6634 61.7428 31.5278 61.9964 31.3287 62.1956C31.0617 62.4626 30.6996 62.6126 30.322 62.6126C29.9444 62.6126 29.5823 62.4626 29.3153 62.1956V62.1956Z" fill="#010101"/>
<path d="M15.5656 77.959C16.1215 77.4031 16.1215 76.5016 15.5656 75.9456C15.0096 75.3896 14.1081 75.3896 13.5521 75.9456C12.9961 76.5016 12.9961 77.4031 13.5521 77.959C14.1081 78.515 15.0096 78.515 15.5656 77.959Z" fill="#010101"/>
<path d="M-0.201052 93.7253C0.35494 93.1694 0.354938 92.2679 -0.201055 91.7119C-0.757047 91.1559 -1.65849 91.1559 -2.21448 91.7119C-2.77047 92.2679 -2.77047 93.1693 -2.21448 93.7253C-1.65849 94.2813 -0.757045 94.2813 -0.201052 93.7253Z" fill="#010101"/>
<path d="M15.2333 48.1132C15.0342 47.914 14.8986 47.6604 14.8436 47.3842C14.7887 47.108 14.8169 46.8218 14.9247 46.5616C15.0324 46.3015 15.2149 46.0791 15.449 45.9227C15.6831 45.7662 15.9584 45.6827 16.24 45.6827C16.5216 45.6827 16.7968 45.7662 17.031 45.9227C17.2651 46.0791 17.4476 46.3015 17.5553 46.5616C17.6631 46.8218 17.6913 47.108 17.6363 47.3842C17.5814 47.6604 17.4458 47.9141 17.2467 48.1132C16.9797 48.3802 16.6176 48.5302 16.24 48.5302C15.8624 48.5302 15.5003 48.3802 15.2333 48.1132V48.1132Z" fill="#010101"/>
<path d="M-0.530396 63.8766C-0.729505 63.6775 -0.865097 63.4239 -0.920031 63.1477C-0.974965 62.8715 -0.946774 62.5853 -0.839016 62.3251C-0.731259 62.065 -0.548779 61.8426 -0.314651 61.6862C-0.0805239 61.5297 0.194736 61.4462 0.476319 61.4462C0.757902 61.4462 1.03316 61.5297 1.26729 61.6862C1.50142 61.8426 1.6839 62.065 1.79165 62.3251C1.89941 62.5853 1.9276 62.8715 1.87267 63.1477C1.81774 63.4239 1.68214 63.6775 1.48303 63.8766C1.21604 64.1436 0.853907 64.2936 0.476317 64.2936C0.098726 64.2936 -0.263399 64.1436 -0.530396 63.8766Z" fill="#010101"/>
</g>
<defs>
<linearGradient id="paint0_linear_12060_47969" x1="-3.58749" y1="69.5732" x2="-7.19664" y2="56.1037" gradientUnits="userSpaceOnUse">
<stop stop-color="#C3C6E8"/>
<stop offset="1" stop-color="#C3C6E8" stop-opacity="0"/>
</linearGradient>
<linearGradient id="paint1_linear_12060_47969" x1="7.5325" y1="92.5561" x2="4.77684" y2="82.2718" gradientUnits="userSpaceOnUse">
<stop stop-color="#C3C6E8"/>
<stop offset="1" stop-color="#C3C6E8" stop-opacity="0"/>
</linearGradient>
<linearGradient id="paint2_linear_12060_47969" x1="0.940738" y1="122.415" x2="-11.8054" y2="74.8453" gradientUnits="userSpaceOnUse">
<stop stop-color="#C3C6E8"/>
<stop offset="1" stop-color="#DFE1F3"/>
</linearGradient>
<linearGradient id="paint3_linear_12060_47969" x1="16.0614" y1="135.99" x2="11.5955" y2="119.322" gradientUnits="userSpaceOnUse">
<stop stop-color="#C3C6E8"/>
<stop offset="1" stop-color="#C3C6E8" stop-opacity="0"/>
</linearGradient>
<linearGradient id="paint4_linear_12060_47969" x1="5.72023" y1="181.686" x2="-20.1426" y2="85.1646" gradientUnits="userSpaceOnUse">
<stop stop-color="#C3C6E8"/>
<stop offset="1" stop-color="#C3C6E8" stop-opacity="0"/>
</linearGradient>
<linearGradient id="paint5_linear_12060_47969" x1="3.35423" y1="166.691" x2="-2.51768" y2="144.777" gradientUnits="userSpaceOnUse">
<stop stop-color="#C3C6E8"/>
<stop offset="1" stop-color="#DFE1F3"/>
</linearGradient>
<linearGradient id="paint6_linear_12060_47969" x1="0.310039" y1="192.611" x2="-11.7514" y2="147.597" gradientUnits="userSpaceOnUse">
<stop stop-color="#C3C6E8"/>
<stop offset="1" stop-color="#C3C6E8" stop-opacity="0"/>
</linearGradient>
</defs>
</svg>
