<svg width="104" height="246" viewBox="0 0 104 246" fill="none" xmlns="http://www.w3.org/2000/svg">
<g opacity="0.4">
<path d="M96.5898 78.7704L113.656 68.9067" stroke="url(#paint0_linear_11978_48653)" stroke-width="1.6547" stroke-miterlimit="10" stroke-linecap="round" stroke-linejoin="round"/>
<path d="M87.0625 102.18L100.09 94.6481" stroke="url(#paint1_linear_11978_48653)" stroke-width="1.6547" stroke-miterlimit="10" stroke-linecap="round" stroke-linejoin="round"/>
<path d="M75.0117 127.043L135.315 92.2168" stroke="url(#paint2_linear_11978_48653)" stroke-width="1.6547" stroke-miterlimit="10" stroke-linecap="round" stroke-linejoin="round"/>
<path d="M75.3359 144.757L96.4691 132.555" stroke="url(#paint3_linear_11978_48653)" stroke-width="1.6547" stroke-miterlimit="10" stroke-linecap="round" stroke-linejoin="round"/>
<path d="M45.75 179.755L168.134 109.096" stroke="url(#paint4_linear_11978_48653)" stroke-width="1.6547" stroke-miterlimit="10" stroke-linecap="round" stroke-linejoin="round"/>
<path d="M85.4258 174.757L113.2 158.711" stroke="url(#paint5_linear_11978_48653)" stroke-width="1.6547" stroke-miterlimit="10" stroke-linecap="round" stroke-linejoin="round"/>
<path d="M76.9141 197.58L133.989 164.628" stroke="url(#paint6_linear_11978_48653)" stroke-width="1.6547" stroke-miterlimit="10" stroke-linecap="round" stroke-linejoin="round"/>
</g>
<g opacity="0.1">
<path d="M34.1375 160.557H120.096C121.456 160.557 122.558 159.454 122.558 158.094L122.558 72.136C122.558 70.7761 121.456 69.6738 120.096 69.6738L34.1375 69.6738C32.7777 69.6738 31.6753 70.7761 31.6753 72.136L31.6753 158.094C31.6753 159.454 32.7777 160.557 34.1375 160.557Z" stroke="#979797" stroke-width="3.3499" stroke-miterlimit="10"/>
<path d="M85.7886 175.766C85.7886 175.484 85.8721 175.209 86.0285 174.975C86.1849 174.741 86.4073 174.558 86.6675 174.451C86.9276 174.343 87.2139 174.315 87.49 174.37C87.7662 174.425 88.0199 174.56 88.219 174.759C88.4181 174.958 88.5537 175.212 88.6086 175.488C88.6636 175.764 88.6354 176.051 88.5276 176.311C88.4199 176.571 88.2374 176.793 88.0033 176.95C87.7691 177.106 87.4939 177.19 87.2123 177.19C86.8347 177.19 86.4726 177.04 86.2056 176.773C85.9386 176.506 85.7886 176.144 85.7886 175.766Z" fill="#010101"/>
<path d="M63.4956 175.766C63.4956 175.484 63.5791 175.209 63.7355 174.975C63.892 174.741 64.1143 174.558 64.3745 174.451C64.6346 174.343 64.9209 174.315 65.1971 174.37C65.4732 174.425 65.7269 174.56 65.926 174.759C66.1251 174.958 66.2607 175.212 66.3157 175.488C66.3706 175.764 66.3424 176.051 66.2346 176.311C66.1269 176.571 65.9444 176.793 65.7103 176.95C65.4762 177.106 65.2009 177.19 64.9193 177.19C64.5417 177.19 64.1796 177.04 63.9126 176.773C63.6456 176.506 63.4956 176.144 63.4956 175.766Z" fill="#010101"/>
<path d="M41.2065 175.766C41.2065 175.484 41.29 175.209 41.4465 174.975C41.6029 174.741 41.8253 174.558 42.0854 174.451C42.3456 174.343 42.6318 174.315 42.908 174.37C43.1842 174.425 43.4379 174.56 43.637 174.759C43.8361 174.958 43.9717 175.212 44.0266 175.488C44.0815 175.764 44.0533 176.051 43.9456 176.311C43.8378 176.571 43.6553 176.793 43.4212 176.95C43.1871 177.106 42.9118 177.19 42.6303 177.19C42.2527 177.19 41.8905 177.04 41.6235 176.773C41.3565 176.506 41.2065 176.144 41.2065 175.766Z" fill="#010101"/>
<path d="M85.7886 155.834C85.7886 155.552 85.8721 155.277 86.0285 155.043C86.1849 154.809 86.4073 154.626 86.6675 154.518C86.9276 154.411 87.2139 154.383 87.49 154.437C87.7662 154.492 88.0199 154.628 88.219 154.827C88.4181 155.026 88.5537 155.28 88.6086 155.556C88.6636 155.832 88.6354 156.118 88.5276 156.379C88.4199 156.639 88.2374 156.861 88.0033 157.018C87.7691 157.174 87.4939 157.258 87.2123 157.258C86.8347 157.258 86.4726 157.108 86.2056 156.841C85.9386 156.574 85.7886 156.211 85.7886 155.834Z" fill="#010101"/>
<path d="M63.4956 155.834C63.4956 155.552 63.5791 155.277 63.7355 155.043C63.892 154.809 64.1143 154.626 64.3745 154.518C64.6346 154.411 64.9209 154.383 65.1971 154.437C65.4732 154.492 65.7269 154.628 65.926 154.827C66.1251 155.026 66.2607 155.28 66.3157 155.556C66.3706 155.832 66.3424 156.118 66.2346 156.379C66.1269 156.639 65.9444 156.861 65.7103 157.018C65.4762 157.174 65.2009 157.258 64.9193 157.258C64.5417 157.258 64.1796 157.108 63.9126 156.841C63.6456 156.574 63.4956 156.211 63.4956 155.834Z" fill="#010101"/>
<path d="M41.2065 155.834C41.2065 155.552 41.29 155.277 41.4465 155.043C41.6029 154.809 41.8253 154.626 42.0854 154.518C42.3456 154.411 42.6318 154.383 42.908 154.437C43.1842 154.492 43.4379 154.628 43.637 154.827C43.8361 155.026 43.9717 155.28 44.0266 155.556C44.0815 155.832 44.0533 156.118 43.9456 156.379C43.8378 156.639 43.6553 156.861 43.4212 157.018C43.1871 157.174 42.9118 157.258 42.6303 157.258C42.2527 157.258 41.8905 157.108 41.6235 156.841C41.3565 156.574 41.2065 156.211 41.2065 155.834Z" fill="#010101"/>
<path d="M87.2123 137.343C87.9986 137.343 88.636 136.706 88.636 135.919C88.636 135.133 87.9986 134.496 87.2123 134.496C86.426 134.496 85.7886 135.133 85.7886 135.919C85.7886 136.706 86.426 137.343 87.2123 137.343Z" fill="#010101"/>
<path d="M63.4956 135.919C63.4956 135.638 63.5791 135.362 63.7355 135.128C63.892 134.894 64.1143 134.712 64.3745 134.604C64.6346 134.496 64.9209 134.468 65.1971 134.523C65.4732 134.578 65.7269 134.713 65.926 134.913C66.1251 135.112 66.2607 135.365 66.3157 135.642C66.3706 135.918 66.3424 136.204 66.2346 136.464C66.1269 136.724 65.9444 136.947 65.7103 137.103C65.4762 137.259 65.2009 137.343 64.9193 137.343C64.5417 137.343 64.1796 137.193 63.9126 136.926C63.6456 136.659 63.4956 136.297 63.4956 135.919Z" fill="#010101"/>
<path d="M41.2065 135.919C41.2065 135.638 41.29 135.362 41.4465 135.128C41.6029 134.894 41.8253 134.712 42.0854 134.604C42.3456 134.496 42.6318 134.468 42.908 134.523C43.1842 134.578 43.4379 134.713 43.637 134.913C43.8361 135.112 43.9717 135.365 44.0266 135.642C44.0815 135.918 44.0533 136.204 43.9456 136.464C43.8378 136.724 43.6553 136.947 43.4212 137.103C43.1871 137.259 42.9118 137.343 42.6303 137.343C42.2527 137.343 41.8905 137.193 41.6235 136.926C41.3565 136.659 41.2065 136.297 41.2065 135.919Z" fill="#010101"/>
<path d="M87.2123 117.427C87.9986 117.427 88.636 116.79 88.636 116.004C88.636 115.217 87.9986 114.58 87.2123 114.58C86.426 114.58 85.7886 115.217 85.7886 116.004C85.7886 116.79 86.426 117.427 87.2123 117.427Z" fill="#010101"/>
<path d="M63.4956 116.004C63.4956 115.722 63.5791 115.447 63.7355 115.213C63.892 114.979 64.1143 114.796 64.3745 114.688C64.6346 114.581 64.9209 114.552 65.1971 114.607C65.4732 114.662 65.7269 114.798 65.926 114.997C66.1251 115.196 66.2607 115.45 66.3157 115.726C66.3706 116.002 66.3424 116.288 66.2346 116.549C66.1269 116.809 65.9444 117.031 65.7103 117.187C65.4762 117.344 65.2009 117.427 64.9193 117.427C64.5417 117.427 64.1796 117.277 63.9126 117.01C63.6456 116.743 63.4956 116.381 63.4956 116.004Z" fill="#010101"/>
<path d="M41.2065 116.004C41.2065 115.722 41.29 115.447 41.4465 115.213C41.6029 114.979 41.8253 114.796 42.0854 114.688C42.3456 114.581 42.6318 114.552 42.908 114.607C43.1842 114.662 43.4379 114.798 43.637 114.997C43.8361 115.196 43.9717 115.45 44.0266 115.726C44.0815 116.002 44.0533 116.288 43.9456 116.549C43.8378 116.809 43.6553 117.031 43.4212 117.187C43.1871 117.344 42.9118 117.427 42.6303 117.427C42.2527 117.427 41.8905 117.277 41.6235 117.01C41.3565 116.743 41.2065 116.381 41.2065 116.004Z" fill="#010101"/>
<path d="M87.2123 97.4958C87.9986 97.4958 88.636 96.8584 88.636 96.0721C88.636 95.2858 87.9986 94.6484 87.2123 94.6484C86.426 94.6484 85.7886 95.2858 85.7886 96.0721C85.7886 96.8584 86.426 97.4958 87.2123 97.4958Z" fill="#010101"/>
<path d="M63.4956 96.0721C63.4956 95.7905 63.5791 95.5152 63.7355 95.2811C63.892 95.047 64.1143 94.8645 64.3745 94.7568C64.6346 94.649 64.9209 94.6208 65.1971 94.6757C65.4732 94.7307 65.7269 94.8663 65.926 95.0654C66.1251 95.2645 66.2607 95.5182 66.3157 95.7943C66.3706 96.0705 66.3424 96.3568 66.2346 96.6169C66.1269 96.8771 65.9444 97.0994 65.7103 97.2559C65.4762 97.4123 65.2009 97.4958 64.9193 97.4958C64.5417 97.4958 64.1796 97.3458 63.9126 97.0788C63.6456 96.8118 63.4956 96.4497 63.4956 96.0721Z" fill="#010101"/>
<path d="M41.2065 96.0721C41.2065 95.7905 41.29 95.5152 41.4465 95.2811C41.6029 95.047 41.8253 94.8645 42.0854 94.7568C42.3456 94.649 42.6318 94.6208 42.908 94.6757C43.1842 94.7307 43.4379 94.8663 43.637 95.0654C43.8361 95.2645 43.9717 95.5182 44.0266 95.7943C44.0815 96.0705 44.0533 96.3568 43.9456 96.6169C43.8378 96.8771 43.6553 97.0994 43.4212 97.2559C43.1871 97.4123 42.9118 97.4958 42.6303 97.4958C42.2527 97.4958 41.8905 97.3458 41.6235 97.0788C41.3565 96.8118 41.2065 96.4497 41.2065 96.0721Z" fill="#010101"/>
<path d="M85.7886 76.1566C85.7886 75.875 85.8721 75.5997 86.0285 75.3656C86.1849 75.1315 86.4073 74.949 86.6675 74.8412C86.9276 74.7335 87.2139 74.7053 87.49 74.7602C87.7662 74.8151 88.0199 74.9507 88.219 75.1498C88.4181 75.349 88.5537 75.6026 88.6086 75.8788C88.6636 76.155 88.6354 76.4412 88.5276 76.7014C88.4199 76.9615 88.2374 77.1839 88.0033 77.3403C87.7691 77.4968 87.4939 77.5803 87.2123 77.5803C86.8347 77.5803 86.4726 77.4303 86.2056 77.1633C85.9386 76.8963 85.7886 76.5341 85.7886 76.1566Z" fill="#010101"/>
<path d="M63.4956 76.1566C63.4956 75.875 63.5791 75.5997 63.7355 75.3656C63.892 75.1315 64.1143 74.949 64.3745 74.8412C64.6346 74.7335 64.9209 74.7053 65.1971 74.7602C65.4732 74.8151 65.7269 74.9507 65.926 75.1498C66.1251 75.349 66.2607 75.6026 66.3157 75.8788C66.3706 76.155 66.3424 76.4412 66.2346 76.7014C66.1269 76.9615 65.9444 77.1839 65.7103 77.3403C65.4762 77.4968 65.2009 77.5803 64.9193 77.5803C64.5417 77.5803 64.1796 77.4303 63.9126 77.1633C63.6456 76.8963 63.4956 76.5341 63.4956 76.1566Z" fill="#010101"/>
<path d="M41.2065 76.1566C41.2065 75.875 41.29 75.5997 41.4465 75.3656C41.6029 75.1315 41.8253 74.949 42.0854 74.8412C42.3456 74.7335 42.6318 74.7053 42.908 74.7602C43.1842 74.8151 43.4379 74.9507 43.637 75.1498C43.8361 75.349 43.9717 75.6026 44.0266 75.8788C44.0815 76.155 44.0533 76.4412 43.9456 76.7014C43.8378 76.9615 43.6553 77.1839 43.4212 77.3403C43.1871 77.4968 42.9118 77.5803 42.6303 77.5803C42.2527 77.5803 41.8905 77.4303 41.6235 77.1633C41.3565 76.8963 41.2065 76.5341 41.2065 76.1566Z" fill="#010101"/>
</g>
<defs>
<linearGradient id="paint0_linear_11978_48653" x1="103.318" y1="80.5733" x2="106.928" y2="67.1038" gradientUnits="userSpaceOnUse">
<stop stop-color="#C3C6E8"/>
<stop offset="1" stop-color="#C3C6E8" stop-opacity="0"/>
</linearGradient>
<linearGradient id="paint1_linear_11978_48653" x1="92.1985" y1="103.556" x2="94.9541" y2="93.2719" gradientUnits="userSpaceOnUse">
<stop stop-color="#C3C6E8"/>
<stop offset="1" stop-color="#C3C6E8" stop-opacity="0"/>
</linearGradient>
<linearGradient id="paint2_linear_11978_48653" x1="98.7902" y1="133.415" x2="111.536" y2="85.8454" gradientUnits="userSpaceOnUse">
<stop stop-color="#C3C6E8"/>
<stop offset="1" stop-color="#DFE1F3"/>
</linearGradient>
<linearGradient id="paint3_linear_11978_48653" x1="83.6695" y1="146.99" x2="88.1355" y2="130.322" gradientUnits="userSpaceOnUse">
<stop stop-color="#C3C6E8"/>
<stop offset="1" stop-color="#C3C6E8" stop-opacity="0"/>
</linearGradient>
<linearGradient id="paint4_linear_11978_48653" x1="94.0107" y1="192.686" x2="119.874" y2="96.1647" gradientUnits="userSpaceOnUse">
<stop stop-color="#C3C6E8"/>
<stop offset="1" stop-color="#C3C6E8" stop-opacity="0"/>
</linearGradient>
<linearGradient id="paint5_linear_11978_48653" x1="96.3767" y1="177.691" x2="102.249" y2="155.777" gradientUnits="userSpaceOnUse">
<stop stop-color="#C3C6E8"/>
<stop offset="1" stop-color="#DFE1F3"/>
</linearGradient>
<linearGradient id="paint6_linear_11978_48653" x1="99.4209" y1="203.611" x2="111.482" y2="158.597" gradientUnits="userSpaceOnUse">
<stop stop-color="#C3C6E8"/>
<stop offset="1" stop-color="#C3C6E8" stop-opacity="0"/>
</linearGradient>
</defs>
</svg>
