<svg
      xmlns="http://www.w3.org/2000/svg"
      width="186"
      height="64"
      fill="none"
      className="logo d-none d-sm-flex"
    >
      <g clipPath="url(#a)">
        <path
          fill="#A5A7AA"
          d="M164.503 2.205a31.199 31.199 0 00-7.65-1.598 2.337 2.337 0 00-2.524 2.489l.436 6.305a2.34 2.34 0 002.058 2.159c2.178.267 4.258.882 6.183 1.789a2.328 2.328 0 002.867-.746l3.721-5.113a2.333 2.333 0 00-.806-3.444 31.226 31.226 0 00-4.285-1.84zm18.358 26.093l-6.202 1.22a2.34 2.34 0 00-1.884 2.306c0 2.172-.348 4.356-.996 6.37a2.328 2.328 0 001.1 2.745l5.535 3.054a2.333 2.333 0 003.315-1.227 31.195 31.195 0 001.914-12.268 2.338 2.338 0 00-2.782-2.2zm-1.269-11.908a31.14 31.14 0 00-4.674-6.262 2.34 2.34 0 00-3.54.193l-3.849 5.013a2.343 2.343 0 00.111 2.978 20.322 20.322 0 013.45 5.434 2.327 2.327 0 002.641 1.34l6.175-1.367a2.335 2.335 0 001.676-3.115 31.185 31.185 0 00-1.99-4.214z"
        ></path>
        <path
          fill="#0058A0"
          d="M172.69 44.794a2.327 2.327 0 00-2.924.485c-3.346 3.852-8.102 6.446-13.461 6.969a20.13 20.13 0 01-3.996 0 20.336 20.336 0 01-9.561-3.487 20.409 20.409 0 01-3.058-2.57 20.459 20.459 0 01-5.099-8.808 20.21 20.21 0 01-.692-3.934 19.914 19.914 0 01-.06-1.57c0-3.015.654-5.876 1.83-8.454a20.585 20.585 0 0110.446-10.302c.755-.33 1.53-.874 1.906-1.508.278-.469 1.783-3.826 1.783-3.826.724-1.432.923-3.169-1.051-3.806l-4.07-1.31a2.338 2.338 0 00-1.758-.027A31.248 31.248 0 00132.132 9.7a31.288 31.288 0 00-5.932 8.255 31.2 31.2 0 00-3.251 13.923c0 1.166.063 2.323.188 3.469.144 1.328.376 2.64.689 3.934a31.253 31.253 0 008.835 15.287 31.17 31.17 0 009.438 6.202 31.116 31.116 0 0010.213 2.404 32.367 32.367 0 003.996 0 31.087 31.087 0 0010.212-2.404 31.237 31.237 0 009.968-6.72 31.833 31.833 0 002.349-2.624 2.33 2.33 0 00-.664-3.469l-5.483-3.163z"
        ></path>
        <path
          fill="#838484"
          d="M1.1 57.042c.291 0 .536.102.729.307a1 1 0 01.291.701c0 .268-.09.505-.272.714-.18.205-.43.307-.748.307-.323 0-.572-.102-.75-.307a1.053 1.053 0 01-.263-.714c0-.275.09-.512.272-.713.181-.197.43-.295.74-.295zm-.852-8.453h1.73v7.665H.248v-7.665zm5.773 9.958c.197-.316.327-.6.394-.852s.099-.512.099-.78c0-1.032-.465-1.836-1.395-2.408l.867-1.52c.709.464 1.26 1.024 1.65 1.678a4 4 0 01.588 2.08c0 .454-.055.891-.166 1.313-.11.422-.319.886-.622 1.403l-1.801 3.046-1.47-.843 1.856-3.117zm-.126-6.404c-.311 0-.56-.103-.749-.311a1.04 1.04 0 01-.283-.718c0-.291.102-.535.307-.729a1.02 1.02 0 01.721-.291c.268 0 .504.098.713.291a.961.961 0 01.308.73c0 .28-.099.523-.292.724a.944.944 0 01-.725.304zm3.645-3.554h1.73V59H9.54V48.59zm3.023 4.433h2.857a2.98 2.98 0 012.16.886 2.9 2.9 0 01.615.954c.145.366.22.756.22 1.166 0 .442-.078.843-.236 1.206a2.803 2.803 0 01-.65.934 3.012 3.012 0 01-.946.615c-.355.146-.733.22-1.131.22h-2.885v-1.702h2.822c.382 0 .697-.114.95-.339.252-.228.374-.536.374-.93 0-.142-.024-.291-.075-.45a1.22 1.22 0 00-.236-.417 1.219 1.219 0 00-.414-.3 1.4 1.4 0 00-.6-.117h-2.82v-1.726h-.005zm7.129 5.453c.197-.323.327-.607.394-.859s.099-.512.099-.78c0-1.029-.465-1.828-1.395-2.4l.867-1.521c.709.465 1.26 1.025 1.65 1.679a4 4 0 01.588 2.08v.32c0 .106-.012.209-.036.307h.915v1.702h-1.47a2.887 2.887 0 01-.197.386l-1.801 3.047-1.47-.844 1.856-3.117z"
        ></path>
        <path
          fill="#838484"
          d="M22.781 59.004a.528.528 0 01-.489-.264 1.13 1.13 0 01-.157-.58c0-.208.051-.405.157-.586a.527.527 0 01.489-.272h4.583v1.702h-4.583z"
        ></path>
        <path
          fill="#838484"
          d="M27.73 61.644c-.315 0-.567-.107-.752-.323-.185-.217-.276-.446-.276-.69 0-.28.103-.524.303-.73a.983.983 0 01.726-.307c.244 0 .472.095.69.284.216.19.322.442.322.757 0 .268-.094.504-.275.71a.97.97 0 01-.737.299zm-.366-2.64a.537.537 0 01-.48-.265 1.066 1.066 0 01-.166-.579c0-.209.055-.398.165-.567a.633.633 0 01.481-.292c.304-.043.58-.181.824-.418.244-.236.366-.532.366-.89V52.91h1.718v3.082c0 .477-.094.914-.287 1.308h1.824v1.702h-2.415v-.894a2.883 2.883 0 01-.974.678c-.35.142-.705.216-1.056.216zm1.486 4.547c-.327 0-.583-.106-.769-.311a1.024 1.024 0 01-.276-.698c0-.291.103-.54.304-.737.2-.2.45-.3.745-.3.232 0 .46.1.681.3a.957.957 0 01.331.737.993.993 0 01-.295.698.978.978 0 01-.721.311zm1.103-1.907c-.327 0-.583-.107-.768-.312a1.024 1.024 0 01-.276-.697c0-.292.102-.54.303-.737.201-.201.45-.3.745-.3.233 0 .461.099.682.3.22.2.33.445.33.737a.994.994 0 01-.295.697.985.985 0 01-.72.312z"
        ></path>
        <path
          fill="#838484"
          d="M31.813 57.301c.304-.043.58-.181.824-.418.244-.236.366-.532.366-.89V52.91h1.703v3.082c0 .453-.087.863-.257 1.23a3.052 3.052 0 01-1.6 1.56c-.35.145-.693.22-1.032.22a.537.537 0 01-.48-.264 1.066 1.066 0 01-.166-.579c0-.209.055-.398.165-.567a.625.625 0 01.477-.292zm1.675 4.583c-.268 0-.508-.095-.717-.288a.959.959 0 01-.315-.744c0-.292.102-.536.303-.733.201-.197.445-.296.725-.296.28 0 .524.102.725.303a.998.998 0 01.304.726.987.987 0 01-.304.733.98.98 0 01-.721.3zm3.617-15.64h2.625v.528h-2.624v-.528zm0 1.084h2.625v.528h-2.624v-.528zm1.096 1.261h1.73V59h-1.73V48.59zm3.007 8.712h2.822c.43 0 .756-.13.985-.386.228-.256.339-.552.339-.887 0-.142-.024-.291-.075-.449a1.22 1.22 0 00-.237-.418 1.217 1.217 0 00-.413-.3 1.388 1.388 0 00-.6-.117h-2.821v-1.726h2.857a2.979 2.979 0 012.16.886 2.9 2.9 0 01.614.954c.146.366.22.757.22 1.166 0 .477-.09.903-.267 1.273h1.04V59h-6.616v-1.7h-.008z"
        ></path>
        <path
          fill="#838484"
          d="M47.832 59.003a.528.528 0 01-.489-.264 1.13 1.13 0 01-.158-.579c0-.209.052-.406.158-.587a.527.527 0 01.489-.272h1.371a3.208 3.208 0 01-.315-1.344c0-.477.083-.898.252-1.269.166-.366.386-.674.662-.918s.587-.43.934-.552a3.213 3.213 0 012.4.102c.433.19.816.501 1.15.93l-1.237 1.21c-.28-.464-.71-.697-1.28-.697-.316 0-.588.11-.816.331-.229.22-.34.512-.34.879 0 .35.111.662.332.926.22.264.544.398.965.398h3.634v1.702h-7.712v.004z"
        ></path>
        <path
          fill="#838484"
          d="M55.551 57.301c.304-.043.58-.181.824-.418.244-.236.367-.532.367-.89V52.91h1.702v3.082c0 .453-.087.863-.256 1.23a3.052 3.052 0 01-1.6 1.56c-.35.145-.694.22-1.032.22a.537.537 0 01-.481-.264 1.066 1.066 0 01-.166-.579c0-.209.055-.398.166-.567a.619.619 0 01.476-.292zm1.675 4.583c-.268 0-.508-.095-.717-.288a.959.959 0 01-.315-.744c0-.292.102-.536.303-.733.201-.197.446-.296.725-.296a1 1 0 01.725.303.995.995 0 01.304.726.987.987 0 01-.304.733c-.2.2-.44.3-.72.3z"
        ></path>
        <path
          fill="#0058A0"
          d="M61.802 59.004v-.09c0-.56.075-1.116.22-1.663a7.885 7.885 0 01.639-1.624h1.253a8.484 8.484 0 00-.386 2.514v.426c0 .142.012.283.035.433h-1.761v.004zm5.111-.529c.197-.323.327-.607.394-.859s.098-.512.098-.78c0-1.029-.465-1.828-1.395-2.4l.867-1.521c.71.465 1.261 1.025 1.651 1.679a4 4 0 01.587 2.08v.32c0 .106-.011.209-.035.307h.914v1.702h-1.47c-.023.06-.055.123-.09.194-.036.07-.071.133-.107.193l-1.8 3.046-1.47-.844 1.856-3.117z"
        ></path>
        <path
          fill="#0058A0"
          d="M70.002 59.004a.528.528 0 01-.489-.264 1.13 1.13 0 01-.157-.58c0-.208.05-.405.157-.586a.527.527 0 01.489-.272h4.583v1.702h-4.583z"
        ></path>
        <path
          fill="#0058A0"
          d="M74.589 59.004a.537.537 0 01-.481-.264 1.113 1.113 0 010-1.166.532.532 0 01.48-.273h5.604l-.492-1.013c-.233-.464-.513-.839-.844-1.119-.327-.28-.69-.421-1.083-.421-.256 0-.477.055-.658.165-.182.11-.359.312-.532.603l-1.506-.859c.375-.591.785-1.017 1.226-1.28.441-.265.977-.395 1.612-.395.488 0 .91.08 1.268.24.355.162.674.39.954.682.28.292.54.65.78 1.068.24.422.481.887.725 1.403.174.359.347.603.517.73.17.13.358.192.567.192V59H74.59v.004zm3.274-8.91c.28 0 .52.102.718.307a.98.98 0 01-.035 1.438c-.222.201-.45.304-.683.304a.996.996 0 01-.737-.303 1.01 1.01 0 01-.299-.745c0-.256.09-.489.272-.694.181-.205.437-.307.764-.307z"
        ></path>
        <path
          fill="#0058A0"
          d="M82.726 57.301c.304-.043.58-.181.824-.418.244-.236.366-.532.366-.89V52.91h1.703v3.082c0 .453-.087.863-.256 1.23a3.052 3.052 0 01-1.6 1.56c-.351.145-.694.22-1.033.22a.537.537 0 01-.48-.264 1.066 1.066 0 01-.166-.579c0-.209.055-.398.165-.567a.619.619 0 01.477-.292zm1.675 4.583c-.268 0-.508-.095-.717-.288a.959.959 0 01-.315-.744c0-.292.102-.536.303-.733.201-.197.445-.296.725-.296a1 1 0 01.725.303.995.995 0 01.304.726.987.987 0 01-.304.733c-.2.2-.441.3-.72.3zm13.761-4.736c0 .615-.094 1.202-.283 1.765-.19.56-.47 1.06-.844 1.502a4.074 4.074 0 01-1.422 1.052c-.576.264-1.25.394-2.018.394a4.57 4.57 0 01-1.442-.256 4.177 4.177 0 01-1.391-.788 4.222 4.222 0 01-1.044-1.356c-.276-.547-.414-1.202-.414-1.962 0-.584.098-1.14.295-1.667.197-.524.485-.99.863-1.395.379-.406.84-.733 1.383-.985.544-.252 1.155-.394 1.837-.43v1.71c-.363.024-.71.107-1.033.249a2.692 2.692 0 00-.843.567c-.236.24-.422.528-.556.863a3.03 3.03 0 00-.2 1.123c0 .43.07.808.208 1.14.142.326.335.602.588.823.252.22.535.39.858.504.324.118.67.174 1.04.174.352 0 .69-.067 1.018-.201.327-.134.614-.331.863-.596.252-.264.449-.579.595-.953.145-.375.22-.8.22-1.277v-4.2h1.718v4.2h.004zm-4.476 1.194a.946.946 0 01-.721-.3 1.016 1.016 0 01-.284-.72c0-.288.094-.529.284-.73.189-.2.43-.3.72-.3.312 0 .56.1.75.3.189.201.283.442.283.73 0 .28-.098.52-.3.72-.2.198-.445.3-.732.3zm8.902-1.47c.229-.268.339-.56.339-.879V48.59h1.73v7.404c0 .43-.083.824-.244 1.187a3.23 3.23 0 01-.659.953 2.966 2.966 0 01-.953.642 2.914 2.914 0 01-1.151.23h-2.534v-1.703h1.801l-2.364-6.7 1.647-.457 2.388 6.727zm3.4-8.283h1.73V59h-1.73V48.59zM5.28 28.065c.524 3.405 2.345 5.15 5.462 5.25v5.067h-.607C6.16 38.406 3.03 36.12.748 31.529a8.269 8.269 0 01-.606-3.07V9.15c.07-2.806 1.785-4.843 5.138-6.104v25.02z"
        ></path>
        <path
          fill="#0058A0"
          d="M9.383 33.31h2.069V2.825h5.174v14.99c1.785-.642 2.845-1 3.176-1.071l1.427-.178h7.747c3.807 0 6.83 2.227 9.067 6.676.406 1.072.607 2.057.607 2.963v7.105h2.18l-.036 5.068H9.383V33.31zm24.274 0v-6.67c-.618-3.26-2.179-4.89-4.677-4.89h-7.673c-2.474 0-4.023 1.63-4.642 4.89v6.675h16.992v-.004z"
        ></path>
        <path
          fill="#0058A0"
          d="M79.492 34.989c-1.62 1.261-3.023 2.191-4.213 2.782a8.269 8.269 0 01-3.07.607h-1.643c-1.927 0-4.2-.99-6.817-2.963h-.607c-2.664 1.974-4.95 2.963-6.853 2.963h-1.643c-2.404 0-4.832-1.143-7.283-3.428-2.522 2.285-4.89 3.428-7.105 3.428h-.926V33.31h.394c3.33-.023 4.997-2.297 4.997-6.817v-10.14h5.21v11.744c0 2.593 1.737 4.295 5.21 5.103 3.664-.666 5.496-2.487 5.496-5.462V16.35h5.391v10.458c0 3.57 1.521 5.627 4.568 6.175h1.355c3.306-.5 4.962-2.44 4.962-5.816V16.35h5.21v11.313c.306 3.736 1.642 5.616 3.999 5.64v5.067c-1.923.012-4.134-1.119-6.632-3.381z"
        ></path>
        <path
          fill="#0058A0"
          d="M87.34 28.208V20.07c0-3.712 2.251-6.663 6.747-8.85l2.534-.466h1.462c3.76 0 6.735 2.191 8.922 6.57.382.977.571 1.95.571 2.927v10.424c0 2.857-2.415 5.32-7.247 7.388l-1.997.323H84.98V33.32l12.921-.036c3.306.024 4.961-1.142 4.961-3.499v-1.608l-15.522.032zm4.41-19.16c-1.217 0-2.257-.43-3.117-1.292-.862-.86-1.292-1.9-1.292-3.117 0-1.175.43-2.195 1.293-3.054.859-.86 1.899-1.293 3.117-1.293 1.217 0 2.258.43 3.117 1.293s1.292 1.88 1.292 3.054c0 1.217-.43 2.258-1.292 3.117-.86.859-1.9 1.292-3.117 1.292zm.481 14.77h10.636v-2.676c0-3.546-1.655-5.32-4.961-5.32h-.713c-2.81 0-4.461 1.738-4.962 5.21v2.786zm10.029-14.77c-1.217 0-2.258-.43-3.117-1.292-.863-.86-1.292-1.9-1.292-3.117 0-1.218.43-2.247 1.292-3.086.859-.84 1.9-1.261 3.117-1.261 1.218 0 2.258.422 3.117 1.261.859.84 1.293 1.868 1.293 3.086 0 1.217-.43 2.258-1.293 3.117-.859.859-1.899 1.292-3.117 1.292z"
        ></path>
      </g>
      <defs>
        <clipPath id="a">
          <path fill="#fff" d="M0 0h186v63.839H0z"></path>
        </clipPath>
      </defs>
    </svg>