<svg width="88" height="64" viewBox="0 0 88 64" fill="none" xmlns="http://www.w3.org/2000/svg">
<path d="M26.4005 -0.000244141C11.8439 -0.000244141 0.000488281 11.7887 0.000488281 26.2783C0.000488281 40.768 11.8439 52.5569 26.4005 52.5569C40.9571 52.5569 52.8005 40.768 52.8005 26.2783C52.8005 11.7887 40.9571 -0.000244141 26.4005 -0.000244141ZM26.4005 35.0379C24.66 35.0379 22.9586 34.5241 21.5115 33.5616C20.0643 32.5991 18.9364 31.2311 18.2703 29.6305C17.6043 28.0299 17.43 26.2686 17.7696 24.5694C18.1091 22.8703 18.9472 21.3095 20.1779 20.0844C21.4087 18.8594 22.9767 18.0251 24.6837 17.6871C26.3907 17.3491 28.1601 17.5226 29.7681 18.1856C31.3761 18.8486 32.7505 19.9713 33.7174 21.4118C34.6844 22.8523 35.2005 24.5459 35.2005 26.2783C35.1982 28.6008 34.2703 30.8275 32.6205 32.4697C30.9707 34.112 28.7337 35.0356 26.4005 35.0379Z" fill="url(#paint0_linear_11978_48615)"/>
<path d="M61.5997 -0.000244141C47.0431 -0.000244141 35.1997 11.7887 35.1997 26.2783C35.1997 40.768 47.0431 52.5569 61.5997 52.5569C76.1563 52.5569 87.9997 40.768 87.9997 26.2783C87.9997 11.7887 76.1563 -0.000244141 61.5997 -0.000244141ZM61.5997 35.0379C59.8592 35.0379 58.1578 34.5241 56.7107 33.5616C55.2635 32.5991 54.1356 31.2311 53.4696 29.6305C52.8035 28.0299 52.6292 26.2686 52.9688 24.5694C53.3083 22.8703 54.1465 21.3095 55.3772 20.0844C56.6079 18.8594 58.1759 18.0251 59.8829 17.6871C61.5899 17.3491 63.3593 17.5226 64.9673 18.1856C66.5753 18.8486 67.9497 19.9713 68.9166 21.4118C69.8836 22.8523 70.3997 24.5459 70.3997 26.2783C70.3974 28.6008 69.4695 30.8275 67.8197 32.4697C66.1699 34.112 63.9329 35.0356 61.5997 35.0379Z" fill="url(#paint1_linear_11978_48615)"/>
<path d="M70.4005 26.2783C70.4005 28.6015 69.4733 30.8295 67.823 32.4723C66.1727 34.115 63.9344 35.0379 61.6005 35.0379C59.2666 35.0379 57.0283 34.115 55.3779 32.4723C53.7276 30.8295 52.8005 28.6015 52.8005 26.2783C52.8005 11.7887 40.9571 -0.000244141 26.4005 -0.000244141C11.8439 -0.000244141 0.000488281 11.7887 0.000488281 26.2783H17.6005C17.6005 23.9552 18.5276 21.7272 20.1779 20.0844C21.8283 18.4417 24.0666 17.5188 26.4005 17.5188C28.7344 17.5188 30.9727 18.4417 32.623 20.0844C34.2733 21.7272 35.2005 23.9552 35.2005 26.2783C35.2005 40.768 47.0439 52.5569 61.6005 52.5569C76.1571 52.5569 88.0005 40.768 88.0005 26.2783H70.4005Z" fill="url(#paint2_linear_11978_48615)"/>
<path style="mix-blend-mode:multiply" opacity="0.4" d="M87.0005 60.9998C87.0005 62.6598 67.7566 63.9998 44.0005 63.9998C20.2444 63.9998 1.00049 62.6607 1.00049 60.9998C1.00049 59.3388 20.2459 57.9998 44.0005 57.9998C67.7551 57.9998 87.0005 59.3461 87.0005 60.9998Z" fill="url(#paint3_radial_11978_48615)"/>
<defs>
<linearGradient id="paint0_linear_11978_48615" x1="0.000488281" y1="26.2783" x2="52.8005" y2="26.2783" gradientUnits="userSpaceOnUse">
<stop offset="0.3" stop-color="#00569F"/>
<stop offset="0.42" stop-color="#00569F"/>
<stop offset="0.63" stop-color="#143F64"/>
<stop offset="1" stop-color="#0A1A27"/>
</linearGradient>
<linearGradient id="paint1_linear_11978_48615" x1="45" y1="29.9996" x2="87.0786" y2="19.3785" gradientUnits="userSpaceOnUse">
<stop stop-color="#000202"/>
<stop offset="0.140625" stop-color="#0D6F54"/>
<stop offset="0.41" stop-color="#1BC698"/>
<stop offset="0.56" stop-color="#16D8A4"/>
<stop offset="0.7" stop-color="#16D8A4"/>
</linearGradient>
<linearGradient id="paint2_linear_11978_48615" x1="0.000488281" y1="26.9998" x2="71.5005" y2="26.9998" gradientUnits="userSpaceOnUse">
<stop stop-color="#00569F"/>
<stop offset="1" stop-color="#16D8A4"/>
</linearGradient>
<radialGradient id="paint3_radial_11978_48615" cx="0" cy="0" r="1" gradientUnits="userSpaceOnUse" gradientTransform="translate(44.2376 60.9785) scale(43.1113 2.72073)">
<stop offset="0.1" stop-color="#B1A4A1"/>
<stop offset="0.26" stop-color="#C3B9B6"/>
<stop offset="0.58" stop-color="#E3DFDE"/>
<stop offset="0.84" stop-color="#F8F6F6"/>
<stop offset="1" stop-color="white"/>
</radialGradient>
</defs>
</svg>
