<svg width="88" height="64" viewBox="0 0 88 64" fill="none" xmlns="http://www.w3.org/2000/svg">
<path style="mix-blend-mode:multiply" opacity="0.4" d="M87.0005 60.9998C87.0005 62.6598 67.7566 63.9998 44.0005 63.9998C20.2444 63.9998 1.00049 62.6607 1.00049 60.9998C1.00049 59.3388 20.2459 57.9998 44.0005 57.9998C67.7551 57.9998 87.0005 59.3461 87.0005 60.9998Z" fill="url(#paint0_radial_11978_48647)"/>
<path d="M73.2257 51.9081C73.1132 51.5052 73.1145 51.0795 73.2293 50.678C73.3441 50.2765 73.568 49.9147 73.8763 49.6326C74.0462 49.4761 74.216 49.3197 74.3761 49.1458C74.5362 48.9719 74.7012 48.8068 74.8525 48.6377C75.1223 48.3213 75.475 48.086 75.8715 47.9579C76.268 47.8298 76.6927 47.814 77.0984 47.9121L79.9254 48.6285L82.2473 39.4531L79.4203 38.7367C79.0147 38.6324 78.6459 38.4178 78.355 38.1169C78.0642 37.8159 77.8628 37.4405 77.7734 37.0327C77.6813 36.5758 77.5648 36.1241 77.4245 35.6794C77.2864 35.2871 77.2603 34.8647 77.3489 34.4593C77.4376 34.0538 77.6375 33.6813 77.9266 33.3831L79.9488 31.3036L73.1266 24.6913L71.0635 26.7591C70.772 27.0546 70.404 27.2638 70.0002 27.3638C69.5964 27.4638 69.1723 27.4506 68.7748 27.3259C68.3249 27.1819 67.8668 27.0651 67.4031 26.976C66.9921 26.8993 66.6104 26.7101 66.3007 26.4296C65.9909 26.1491 65.7654 25.7884 65.6495 25.3879L64.8515 22.5939L55.7006 25.155L56.5083 27.9665C56.6193 28.3671 56.6177 28.79 56.5036 29.189C56.3895 29.588 56.1674 29.9476 55.8615 30.2285C55.6917 30.3849 55.5287 30.5433 55.3618 30.7153C55.1949 30.8872 55.0454 31.0495 54.8921 31.2253C54.6206 31.5412 54.2666 31.776 53.8691 31.9037C53.4716 32.0314 53.0461 32.047 52.6395 31.9489L49.8056 31.2306L47.4925 40.4012L50.3127 41.1156C50.7183 41.2199 51.0871 41.4345 51.378 41.7355C51.6688 42.0364 51.8702 42.4118 51.9596 42.8196C52.0517 43.2765 52.1682 43.7283 52.3085 44.173C52.4481 44.5661 52.4756 44.9897 52.3878 45.3967C52.3 45.8037 52.1004 46.178 51.8113 46.4779L49.791 48.5507L56.6132 55.163L58.6335 53.0902C58.9245 52.7918 59.2937 52.5808 59.6994 52.481C60.105 52.3812 60.531 52.3966 60.9291 52.5254C61.38 52.6656 61.8379 52.7824 62.3008 52.8753C62.712 52.9512 63.0942 53.1401 63.404 53.4208C63.7139 53.7014 63.9392 54.0625 64.0544 54.4634L64.9116 57.2818L74.0421 54.7148L73.2257 51.9081ZM59.462 45.4574C58.3567 44.3871 57.5937 43.0152 57.2692 41.5151C56.9448 40.0151 57.0736 38.4543 57.6393 37.0302C58.2051 35.606 59.1823 34.3825 60.4475 33.5143C61.7127 32.646 63.209 32.1722 64.7472 32.1525C66.2854 32.1329 67.7964 32.5684 69.0891 33.404C70.3818 34.2396 71.3981 35.4378 72.0096 36.8469C72.621 38.256 72.8001 39.8129 72.5242 41.3206C72.2483 42.8283 71.5297 44.2191 70.4595 45.3171C69.0245 46.7893 67.0597 47.6311 64.9973 47.6574C62.935 47.6837 60.9439 46.8924 59.462 45.4574Z" fill="url(#paint1_linear_11978_48647)"/>
<path d="M21.7726 51.9238L28.757 51.9327L29.1748 46.5833C31.7399 46.0197 34.1694 44.9599 36.3263 43.4637L40.3087 46.8758L45.2435 41.9441L41.7735 37.8813C43.2403 35.6707 44.2497 33.1886 44.7422 30.5812L49.8274 30.1923L49.8274 23.2169L44.7422 22.8152C44.2284 20.1259 43.1708 17.5691 41.6343 15.3013L44.7477 11.6645L39.8241 6.72029L36.1926 9.82208C33.8478 8.21654 31.1905 7.12421 28.395 6.61673L28.0385 2.16267L21.0708 2.15385L20.7143 6.69052C17.8832 7.24609 15.2052 8.40262 12.861 10.082L9.51917 7.21076L4.57324 12.1146L7.55862 15.5978C5.99877 17.9916 4.96774 20.6909 4.53425 23.5158L0.000487056 23.8663L0.000487361 30.8418L4.81831 31.2209C5.43099 33.9233 6.59316 36.4716 8.23256 38.7073L5.08009 42.3998L10.0149 47.3384L13.9137 44.0031C16.1824 45.423 18.7129 46.3728 21.3549 46.7961L21.7726 51.9238ZM15.1724 26.6635C15.1724 24.7785 15.7317 22.9365 16.7795 21.3705C17.8272 19.8045 19.3164 18.5849 21.0588 17.8657C22.8012 17.1466 24.7184 16.9603 26.5681 17.3303C28.4178 17.7004 30.1168 18.6103 31.4504 19.9449C32.7839 21.2795 33.6921 22.9788 34.06 24.8281C34.4279 26.6773 34.2391 28.5934 33.5174 30.334C32.7957 32.0746 31.5735 33.5615 30.0054 34.6068C28.4373 35.6521 26.5938 36.2087 24.7078 36.2063C23.4554 36.2054 22.2152 35.9579 21.0579 35.4777C19.9007 34.9975 18.8493 34.2942 17.9637 33.4079C17.0781 32.5216 16.3757 31.4698 15.8968 30.3125C15.4179 29.1553 15.1717 27.9153 15.1724 26.6635Z" fill="url(#paint2_linear_11978_48647)"/>
<defs>
<radialGradient id="paint0_radial_11978_48647" cx="0" cy="0" r="1" gradientUnits="userSpaceOnUse" gradientTransform="translate(44.2376 60.9785) scale(43.1113 2.72073)">
<stop offset="0.1" stop-color="#B1A4A1"/>
<stop offset="0.26" stop-color="#C3B9B6"/>
<stop offset="0.58" stop-color="#E3DFDE"/>
<stop offset="0.84" stop-color="#F8F6F6"/>
<stop offset="1" stop-color="white"/>
</radialGradient>
<linearGradient id="paint1_linear_11978_48647" x1="65.1639" y1="23.003" x2="64.5899" y2="56.8499" gradientUnits="userSpaceOnUse">
<stop stop-color="#16D8A4"/>
<stop offset="0.0001" stop-color="#007052"/>
<stop offset="0.229167" stop-color="#0DB386"/>
<stop offset="0.359375" stop-color="#16D8A4"/>
<stop offset="0.56" stop-color="#16D8A4"/>
<stop offset="0.7" stop-color="#16D8A4"/>
</linearGradient>
<linearGradient id="paint2_linear_11978_48647" x1="31.362" y1="51.0908" x2="18.5452" y2="2.97423" gradientUnits="userSpaceOnUse">
<stop/>
<stop offset="0.0001" stop-color="#002747"/>
<stop offset="0.229167" stop-color="#0B4677"/>
<stop offset="0.359375" stop-color="#00569F"/>
<stop offset="0.56" stop-color="#00569F"/>
<stop offset="0.7" stop-color="#00569F"/>
</linearGradient>
</defs>
</svg>
