<svg width="88" height="64" viewBox="0 0 88 64" fill="none" xmlns="http://www.w3.org/2000/svg">
<path style="mix-blend-mode:multiply" opacity="0.4" d="M87.0005 60.9998C87.0005 62.6598 67.7566 63.9998 44.0005 63.9998C20.2444 63.9998 1.00049 62.6607 1.00049 60.9998C1.00049 59.3388 20.2459 57.9998 44.0005 57.9998C67.7551 57.9998 87.0005 59.3461 87.0005 60.9998Z" fill="url(#paint0_radial_11978_48623)"/>
<g clip-path="url(#clip0_11978_48623)">
<path d="M62.3361 6.38578C64.3892 8.01066 66.2137 9.90518 67.7601 12.018C71.5942 17.233 73.608 23.5636 73.4916 30.0352C73.3751 36.5069 71.1348 42.7609 67.1156 47.8345C66.1506 49.0545 65.0859 50.1921 63.9325 51.2357C60.2052 54.6561 55.6606 57.0602 50.7357 58.2167C45.8107 59.3733 40.6711 59.2435 35.8108 57.8397C31.5868 56.6282 27.6882 54.4849 24.402 51.5676C21.1157 48.6503 18.5254 45.0332 16.8218 40.9826C14.7724 36.1146 14.0685 30.7854 14.7837 25.5523C15.4989 20.3192 17.6069 15.3743 20.8873 11.2347L21.0063 11.0959C21.0511 11.0237 21.1044 10.9571 21.165 10.8975C23.8721 7.55569 27.2791 4.84799 31.1458 2.96516C35.0126 1.08232 39.2451 0.0701418 43.5453 -0.000102267C45.8115 -0.0505321 48.0754 0.172535 50.2882 0.664267C54.6909 1.61892 58.8139 3.57691 62.3361 6.38578Z" fill="url(#paint1_linear_11978_48623)"/>
<g style="mix-blend-mode:soft-light">
<path d="M34.8508 1.45576L34.1841 1.68207L53.1235 57.4758L53.7902 57.2495L34.8508 1.45576Z" fill="white"/>
<path d="M54.6885 56.9178L54.1629 56.5212C57.0143 51.7825 58.8015 46.4807 59.4008 40.9829C60 35.485 59.397 29.9227 57.6335 24.681C51.089 5.5531 34.5987 1.98335 34.4302 1.91394L34.569 1.22974C34.7475 1.22974 51.6145 4.93831 58.2483 24.4529C60.0423 29.7991 60.6531 35.4713 60.0384 41.0768C59.4238 46.6824 57.5984 52.0874 54.6885 56.9178Z" fill="white"/>
<path d="M54.5788 57.0267L54.2218 56.4218C54.4301 56.3028 74.2223 44.2847 67.2911 21.3689C60.6771 -0.525571 34.7965 1.89393 34.5386 1.92367L34.4692 1.21964C34.737 1.21964 61.1729 -1.2891 67.9654 21.1706C75.0454 44.6218 54.7871 56.8978 54.5788 57.0267Z" fill="white"/>
<path d="M52.1787 57.7706C46.9273 55.7177 42.1852 52.5471 38.2813 48.4788C34.3774 44.4105 31.405 39.5418 29.5703 34.2102C22.9365 14.6857 34.0622 1.48755 34.1812 1.35864L34.7068 1.81478C34.5977 1.98335 23.7298 14.8741 30.2347 33.9822C32.0312 39.2114 34.9427 43.9878 38.7676 47.9805C42.5926 51.9733 47.2396 55.087 52.387 57.1062L52.1787 57.7706Z" fill="white"/>
<path d="M52.3294 57.7904C52.0914 57.7904 28.5311 60.4281 19.8645 37.5222C11.5252 15.5782 34.0344 1.43799 34.2625 1.28925L34.6294 1.8842C34.4112 1.98336 12.4176 15.8657 20.519 37.2743C28.9971 59.6745 52.0121 57.1062 52.2501 57.1062L52.3294 57.7904Z" fill="white"/>
<path d="M71.9034 20.1792C53.5886 22.1624 31.7239 29.6489 16.1955 39.1187L15.8286 38.5138C31.4363 29.0044 53.42 21.5277 71.8241 19.485L71.9034 20.1792Z" fill="white"/>
<path d="M68.3145 46.6053C56.9357 48.4721 45.9857 52.3717 35.9885 58.1178L35.6216 57.5129C45.6978 51.7218 56.7357 47.795 68.2055 45.9211L68.3145 46.6053Z" fill="white"/>
<path d="M51.5189 1.29919C30.0607 4.56154 18.9449 14.6659 18.8358 14.7651L18.3599 14.2494C18.4689 14.1503 29.7533 3.90709 51.4098 0.61499L51.5189 1.29919Z" fill="white"/>
</g>
<path fill-rule="evenodd" clip-rule="evenodd" d="M62.3344 6.38579C64.3875 8.01068 66.212 9.90519 67.7584 12.0181C67.195 12.9548 66.3992 13.7302 65.448 14.269C63.9904 15.0523 62.6319 15.9745 61.0949 16.6984C58.021 18.166 56.1369 16.2125 53.2316 15.3994C52.043 14.9848 50.827 14.6535 49.5924 14.4078C48.2934 14.2095 46.7862 14.4673 45.5665 14.15C44.8426 15.9547 47.7778 15.0325 48.4818 15.2011C49.989 15.5878 50.0783 17.1843 50.8121 18.2552C52.3391 20.5061 55.0363 22.0728 54.6595 25.008C54.5107 26.0492 54.5107 27.2093 54.2826 28.1613C54.0546 29.1132 53.1721 29.9065 52.7853 30.9179C52.2499 32.4053 53.3505 37.1352 51.0699 36.9468C49.7114 36.8278 49.4635 35.033 48.5116 34.567C47.5596 34.1009 46.5779 34.4579 45.5368 33.7539C44.4956 33.0498 43.6825 32.4945 42.7702 31.8996C41.8928 31.3328 40.9858 30.8132 40.0532 30.3428C39.0616 29.8172 38.2485 28.905 37.2371 28.3596C36.6917 28.0423 36.2455 28.1117 35.71 27.6853C35.1746 27.2589 35.1547 26.6937 34.7184 26.307C33.5087 25.3848 32.6658 26.307 32.7947 24.4229C32.8935 23.4079 33.1166 22.4088 33.4591 21.4481C33.8458 20.6648 34.7284 19.7922 35.244 18.9394C35.7723 18.021 36.4415 17.1911 37.2272 16.4802C38.1494 15.6771 39.5178 15.1813 40.3408 14.3086C40.9754 13.6145 41.6299 12.6229 42.2645 11.8197C41.4018 10.729 38.7939 11.9883 37.6734 12.5337C40.0136 15.0424 35.2837 15.5085 34.4606 16.5001C33.469 14.3086 32.9038 11.8495 34.1433 9.97537C35.1349 8.45823 36.8008 5.65201 38.4468 5.01739C39.7062 8.22025 44.446 3.18293 45.9334 2.64747C47.324 2.18935 48.6686 1.60173 49.9494 0.892346L50.2865 0.674194C54.6884 1.62591 58.8113 3.58047 62.3344 6.38579Z" fill="url(#paint2_linear_11978_48623)"/>
<path fill-rule="evenodd" clip-rule="evenodd" d="M65.5475 31.4931C64.3873 31.0964 62.4934 31.7211 61.3233 32.0285C59.5285 32.4946 59.2013 33.4663 57.9816 34.5868C57.2776 35.2215 57.2974 34.9835 56.5735 35.3504C55.8497 35.7173 55.2745 35.8363 54.8184 36.57C53.8764 38.1169 55.0465 39.2573 55.4927 40.8339C56.0259 42.3913 56.4305 43.9898 56.7024 45.6134C57.2219 45.3096 57.725 44.9786 58.2097 44.6218C58.9363 44.2258 59.6961 43.894 60.4804 43.6302C61.8197 43.2252 63.1802 42.8942 64.5559 42.6386C67.8182 41.647 68.1554 37.7996 67.9273 34.8843C67.848 33.8531 67.2828 30.4321 65.5475 31.4931Z" fill="url(#paint3_linear_11978_48623)"/>
<path fill-rule="evenodd" clip-rule="evenodd" d="M19.6082 22.1423C20.0581 23.5737 20.2133 25.0816 20.0643 26.5747C19.9652 28.0918 20.4015 29.7577 19.9454 31.2649C19.0728 34.091 18.3985 41.1115 16.8218 40.9528C14.1557 34.6402 13.7734 27.5957 15.741 21.0317C17.1391 20.7044 19.1025 21.0217 19.6082 22.1423Z" fill="url(#paint4_linear_11978_48623)"/>
</g>
<defs>
<radialGradient id="paint0_radial_11978_48623" cx="0" cy="0" r="1" gradientUnits="userSpaceOnUse" gradientTransform="translate(44.2376 60.9785) scale(43.1113 2.72073)">
<stop offset="0.1" stop-color="#B1A4A1"/>
<stop offset="0.26" stop-color="#C3B9B6"/>
<stop offset="0.58" stop-color="#E3DFDE"/>
<stop offset="0.84" stop-color="#F8F6F6"/>
<stop offset="1" stop-color="white"/>
</radialGradient>
<linearGradient id="paint1_linear_11978_48623" x1="15.5139" y1="37.1312" x2="72.4973" y2="21.8679" gradientUnits="userSpaceOnUse">
<stop/>
<stop offset="0.0001" stop-color="#002747"/>
<stop offset="0.229167" stop-color="#0B4677"/>
<stop offset="0.359375" stop-color="#00569F"/>
<stop offset="0.56" stop-color="#00569F"/>
<stop offset="0.7" stop-color="#00569F"/>
</linearGradient>
<linearGradient id="paint2_linear_11978_48623" x1="32.5005" y1="25.9999" x2="67.3699" y2="14.7545" gradientUnits="userSpaceOnUse">
<stop stop-color="#16D8A4"/>
<stop offset="0.0001" stop-color="#007052"/>
<stop offset="0.229167" stop-color="#0DB386"/>
<stop offset="0.359375" stop-color="#16D8A4"/>
<stop offset="0.56" stop-color="#16D8A4"/>
<stop offset="0.7" stop-color="#16D8A4"/>
</linearGradient>
<linearGradient id="paint3_linear_11978_48623" x1="54.6911" y1="40.3058" x2="67.8499" y2="36.9768" gradientUnits="userSpaceOnUse">
<stop stop-color="#16D8A4"/>
<stop offset="0.0001" stop-color="#007052"/>
<stop offset="0.229167" stop-color="#0DB386"/>
<stop offset="0.359375" stop-color="#16D8A4"/>
<stop offset="0.56" stop-color="#16D8A4"/>
<stop offset="0.7" stop-color="#16D8A4"/>
</linearGradient>
<linearGradient id="paint4_linear_11978_48623" x1="14.5966" y1="33.5267" x2="20.4206" y2="33.0863" gradientUnits="userSpaceOnUse">
<stop stop-color="#16D8A4"/>
<stop offset="0.0001" stop-color="#007052"/>
<stop offset="0.229167" stop-color="#0DB386"/>
<stop offset="0.359375" stop-color="#16D8A4"/>
<stop offset="0.56" stop-color="#16D8A4"/>
<stop offset="0.7" stop-color="#16D8A4"/>
</linearGradient>
<clipPath id="clip0_11978_48623">
<rect width="59" height="59" fill="white" transform="translate(14.5005 -0.000244141)"/>
</clipPath>
</defs>
</svg>
