<svg width="48" height="50" viewBox="0 0 48 50" fill="none" xmlns="http://www.w3.org/2000/svg">
                        <rect width="48" height="48" rx="20" fill="white"></rect>
                        <g filter="url(#filter0_d)">
                          <path d="M31 28L25 35L24 36.5L19.5 31L15 24V19.5L16.5 15L21 12.5H26L29.5 13.5L32.5 18L33 23L31 28Z" fill="#00569F"></path>
                          <path fill-rule="evenodd" clip-rule="evenodd" d="M24 25.334C21.7907 25.334 20 23.5433 20 21.334C20 19.1247 21.7907 17.334 24 17.334C26.2093 17.334 28 19.1247 28 21.334C28 23.5433 26.2093 25.334 24 25.334Z" fill="white" stroke="#00569F" stroke-width="2" stroke-linecap="round" stroke-linejoin="round"></path>
                          <path fill-rule="evenodd" clip-rule="evenodd" d="M23.9998 36C23.9998 36 14.6665 28.3333 14.6665 21.3333C14.6665 16.1787 18.8452 12 23.9998 12C29.1545 12 33.3332 16.1787 33.3332 21.3333C33.3332 28.3333 23.9998 36 23.9998 36Z" stroke="#00569F" stroke-width="2" stroke-linecap="round" stroke-linejoin="round"></path>
                        </g>
                        <defs>
                          <filter id="filter0_d" x="3.6665" y="10" width="34.6667" height="40" filterUnits="userSpaceOnUse" color-interpolation-filters="sRGB">
                            <feFlood flood-opacity="0" result="BackgroundImageFix"></feFlood>
                            <feColorMatrix in="SourceAlpha" type="matrix" values="0 0 0 0 0 0 0 0 0 0 0 0 0 0 0 0 0 0 127 0" result="hardAlpha"></feColorMatrix>
                            <feOffset dx="-3" dy="6"></feOffset>
                            <feGaussianBlur stdDeviation="3.5"></feGaussianBlur>
                            <feColorMatrix type="matrix" values="0 0 0 0 0 0 0 0 0 0.337255 0 0 0 0 0.623529 0 0 0 0.22 0"></feColorMatrix>
                            <feBlend mode="normal" in2="BackgroundImageFix" result="effect1_dropShadow"></feBlend>
                            <feBlend mode="normal" in="SourceGraphic" in2="effect1_dropShadow" result="shape"></feBlend>
                          </filter>
                        </defs>
                      </svg>