<svg width="76" height="71" viewBox="0 0 76 71" fill="none" xmlns="http://www.w3.org/2000/svg">
<mask id="path-1-outside-1_11659_45130" maskUnits="userSpaceOnUse" x="-1.79076" y="-1.33404" width="65.4799" height="56.9946" fill="black">
<rect fill="white" x="-1.79076" y="-1.33404" width="65.4799" height="56.9946"/>
<path fill-rule="evenodd" clip-rule="evenodd" d="M54.6456 22.8706L51.0213 9.3444C50.1663 6.15362 46.884 4.25858 43.6932 5.11354L8.88445 14.4405C5.6969 15.2946 3.80185 18.5769 4.65682 21.7677L10.8228 44.7793C11.6777 47.9701 14.96 49.8651 18.1508 49.0101L20.6075 48.3519"/>
</mask>
<path fill-rule="evenodd" clip-rule="evenodd" d="M54.6456 22.8706L51.0213 9.3444C50.1663 6.15362 46.884 4.25858 43.6932 5.11354L8.88445 14.4405C5.6969 15.2946 3.80185 18.5769 4.65682 21.7677L10.8228 44.7793C11.6777 47.9701 14.96 49.8651 18.1508 49.0101L20.6075 48.3519" fill="url(#paint0_linear_11659_45130)"/>
<path d="M58.2624 21.9014L54.6381 8.37526L47.4044 10.3135L51.0287 23.8397L58.2624 21.9014ZM54.6381 8.37526C53.2479 3.18695 47.9124 0.106484 42.7241 1.49669L44.6623 8.7304C45.8556 8.41067 47.0847 9.12029 47.4044 10.3135L54.6381 8.37526ZM42.7241 1.49669L7.91532 10.8237L9.85359 18.0574L44.6623 8.7304L42.7241 1.49669ZM7.91532 10.8237C2.72892 12.2134 -0.349887 17.5499 1.03996 22.7368L8.27367 20.7986C7.95359 19.604 8.66488 18.3759 9.85359 18.0574L7.91532 10.8237ZM1.03996 22.7368L7.2059 45.7484L14.4396 43.8102L8.27367 20.7986L1.03996 22.7368ZM7.2059 45.7484C8.5961 50.9367 13.9316 54.0172 19.1199 52.627L17.1817 45.3933C15.9884 45.713 14.7593 45.0034 14.4396 43.8102L7.2059 45.7484ZM19.1199 52.627L21.5766 51.9687L19.6383 44.735L17.1817 45.3933L19.1199 52.627Z" fill="white" mask="url(#path-1-outside-1_11659_45130)"/>
<path d="M18.7306 52.0365L18.7306 52.0366C18.7241 56.7633 22.5572 60.5937 27.2806 60.5878L27.2809 60.5878L61.9287 60.5386L61.9294 60.5386C66.617 60.5302 70.4464 56.7011 70.4556 52.0136L70.4557 52.0125L70.4876 29.5419L70.4876 29.5418C70.494 24.8151 66.6609 20.9847 61.9376 20.9906L61.9373 20.9906L27.2894 21.0398L27.2882 21.0398C22.585 21.0496 18.7703 24.8594 18.7625 29.5654L20.6327 29.5686L18.7625 29.5659L18.7306 52.0365Z" fill="url(#paint1_linear_11659_45130)" stroke="white" stroke-width="3.74444"/>
<path fill-rule="evenodd" clip-rule="evenodd" d="M54.6456 22.8706L51.0213 9.3444C50.1663 6.15362 46.884 4.25858 43.6932 5.11354L8.88445 14.4405C5.6969 15.2946 3.80185 18.5769 4.65682 21.7677L10.8228 44.7793C11.6777 47.9701 14.96 49.8651 18.1508 49.0101L20.6075 48.3519" fill="url(#paint2_linear_11659_45130)"/>
<path d="M54.6456 22.8706L51.0213 9.3444C50.1663 6.15362 46.884 4.25858 43.6932 5.11354L8.88445 14.4405C5.6969 15.2946 3.80185 18.5769 4.65682 21.7677L10.8228 44.7793C11.6777 47.9701 14.96 49.8651 18.1508 49.0101L20.6075 48.3519" stroke="#3D3D3D" stroke-width="3.74444"/>
<path fill-rule="evenodd" clip-rule="evenodd" d="M20.6347 29.5686L20.6028 52.0392C20.5977 55.7295 23.5904 58.7202 27.2782 58.7156L61.9261 58.6664C65.5823 58.6599 68.5762 55.6663 68.5834 52.0099L68.6154 29.5393C68.6204 25.8489 65.6277 22.8582 61.9399 22.8628L27.2921 22.912C23.6189 22.9196 20.6408 25.8951 20.6347 29.5686V29.5686Z" fill="url(#paint3_linear_11659_45130)" stroke="#3D3D3D" stroke-width="3.74444"/>
<path d="M20.6322 36.824L68.5961 36.8095" stroke="#3D3D3D" stroke-width="3.74444" stroke-linecap="round" stroke-linejoin="round"/>
<defs>
<linearGradient id="paint0_linear_11659_45130" x1="34.927" y1="44.515" x2="25.6639" y2="9.94448" gradientUnits="userSpaceOnUse">
<stop stop-color="#3EA6FF"/>
<stop offset="0.473958" stop-color="#007AE1"/>
<stop offset="0.776042" stop-color="#3AA5FF"/>
<stop offset="1" stop-color="#6DBCFF"/>
</linearGradient>
<linearGradient id="paint1_linear_11659_45130" x1="49.6087" y1="62.1979" x2="38.234" y2="19.7468" gradientUnits="userSpaceOnUse">
<stop stop-color="#3EA6FF"/>
<stop offset="0.473958" stop-color="#007AE1"/>
<stop offset="0.776042" stop-color="#3AA5FF"/>
<stop offset="1" stop-color="#6DBCFF"/>
</linearGradient>
<linearGradient id="paint2_linear_11659_45130" x1="34.927" y1="44.515" x2="25.6639" y2="9.94448" gradientUnits="userSpaceOnUse">
<stop stop-color="#3EA6FF"/>
<stop offset="0.473958" stop-color="#007AE1"/>
<stop offset="0.776042" stop-color="#3AA5FF"/>
<stop offset="1" stop-color="#6DBCFF"/>
</linearGradient>
<linearGradient id="paint3_linear_11659_45130" x1="49.6087" y1="62.1979" x2="38.234" y2="19.7468" gradientUnits="userSpaceOnUse">
<stop stop-color="#3EA6FF"/>
<stop offset="0.244792" stop-color="#3EA6FF"/>
<stop offset="0.473958" stop-color="#007AE1"/>
<stop offset="0.776042" stop-color="#3AA5FF"/>
<stop offset="1" stop-color="#6DBCFF"/>
</linearGradient>
</defs>
</svg>
