<svg width="336" height="397" viewBox="0 0 336 397" fill="none" xmlns="http://www.w3.org/2000/svg">
<path fill-rule="evenodd" clip-rule="evenodd" d="M7.184 237.217C4.70014 194.676 19.4006 152.428 48.7964 121.47C77.7269 91.0024 119.014 77.2752 161.101 75.1199C203.5 72.9487 246.908 81.5866 278.625 109.701C310.685 138.118 327.203 180.16 327.773 222.859C328.325 264.221 310.025 302.832 281.605 332.994C253.593 362.722 216.285 382.177 175.386 384.583C133.906 387.023 93.1036 373.255 61.9013 345.918C30.1226 318.076 9.63884 279.261 7.184 237.217Z" fill="url(#paint0_linear_11978_48506)"/>
<path fill-rule="evenodd" clip-rule="evenodd" d="M291.198 42.9884C295.531 48.6942 297.439 55.9656 296.237 63.035C295.054 69.9926 290.578 75.7686 284.905 80.0042C279.19 84.2711 272.322 87.1236 265.26 86.1645C258.121 85.1951 251.875 80.8711 247.794 74.9642C243.841 69.2424 242.776 62.142 243.917 55.2749C245.04 48.5066 248.425 42.303 253.908 38.1436C259.469 33.925 266.455 32.0322 273.372 32.9309C280.418 33.8463 286.914 37.3492 291.198 42.9884Z" fill="url(#paint1_linear_11978_48506)"/>
<path fill-rule="evenodd" clip-rule="evenodd" d="M292.398 9.01764C294.267 11.478 295.09 14.6134 294.571 17.6617C294.061 20.6618 292.131 23.1524 289.685 24.9788C287.221 26.8187 284.259 28.0486 281.214 27.6351C278.136 27.2171 275.443 25.3526 273.683 22.8056C271.978 20.3383 271.519 17.2766 272.011 14.3156C272.496 11.3971 273.955 8.72212 276.319 6.92858C278.717 5.10957 281.73 4.29338 284.712 4.68091C287.75 5.0756 290.552 6.58605 292.398 9.01764Z" fill="url(#paint2_linear_11978_48506)"/>
<path d="M229.605 234.164C229.533 234.524 229.461 234.869 229.36 235.228C229.288 235.53 229.187 235.817 229.086 236.119L228.985 236.378C228.884 236.637 228.783 236.895 228.667 237.154V237.298C228.523 237.585 228.379 237.887 228.22 238.175L228.09 238.405L227.671 239.095C227.615 239.166 227.567 239.243 227.527 239.325L226.921 240.158L226.806 240.302C226.618 240.546 226.416 240.776 226.214 241.006L226.026 241.222C225.781 241.495 225.521 241.754 225.262 242.012L224.367 242.817L224.049 243.076L223.4 243.594L222.808 244.025L222.505 244.24C222.173 244.456 221.856 244.672 221.51 244.873C221.163 245.074 220.788 245.304 220.413 245.505L220.052 245.706L219.273 246.095L218.826 246.31L218.09 246.641L217.614 246.842L216.849 247.144L216.358 247.316L215.521 247.618L215.088 247.762L213.948 248.092H213.789C213.357 248.222 212.909 248.337 212.462 248.437L212.043 248.538L211.105 248.739L210.586 248.826L209.706 248.984L209.157 249.07L208.277 249.199H207.729L206.791 249.3H206.286L205.117 249.372H204.843C204.352 249.372 203.861 249.372 203.4 249.372H200.297H199.604H198.739H198.046L197.18 249.3L196.531 249.329L195.607 249.228L195.088 249.156L193.962 248.998H193.63L192.187 248.739L191.841 248.667L190.759 248.38L190.326 248.279L189.157 248.021L188.796 247.934L187.353 247.546L187.079 247.46C186.704 247.355 186.329 247.24 185.953 247.115L185.506 246.971L184.525 246.583L184.15 246.439C183.688 246.281 183.24 246.109 182.793 245.922L182.562 245.836L181.466 245.376L180.917 245.146L180.08 244.758L179.517 244.499L178.709 244.097L178.161 243.809L177.353 243.364L176.848 243.076L175.982 242.573L175.564 242.271L174.323 241.466C165.823 235.774 162.071 228.386 163.341 221.818L162.129 228.07C160.902 234.624 164.654 242.012 173.154 247.762L174.395 248.567L174.828 248.826C175.059 248.969 175.275 249.113 175.52 249.242L175.679 249.343L176.184 249.616L176.992 250.062L177.541 250.349L178.349 250.752L178.911 251.025L179.748 251.398L180.297 251.643L180.542 251.758L181.408 252.103L181.624 252.203L182.981 252.721L183.356 252.85L184.38 253.195L184.828 253.353L185.174 253.454L185.953 253.698L186.228 253.784L187.671 254.158L188.031 254.259L189.128 254.517L189.561 254.618H189.878L190.672 254.776H191.018C191.509 254.877 191.985 254.963 192.461 255.035H192.793L193.933 255.193H194.41H194.886H195.348L196.04 255.279H196.906H197.599H198.464H199.157H200.023H202.173H203.616H203.89L205.074 255.193H205.564L206.502 255.092H207.051L207.931 254.963C208.118 254.963 208.306 254.963 208.479 254.877L209.359 254.733L209.879 254.632L210.831 254.431L211.235 254.331L212.577 254H212.722L213.876 253.655L214.295 253.511L215.146 253.224L215.622 253.037L216.387 252.735L216.863 252.534L217.599 252.203L218.032 252.333L218.811 251.945L219.172 251.758C219.547 251.542 219.922 251.341 220.269 251.125L221.264 250.478L221.567 250.263L222.072 249.904H222.159L222.823 249.386L223.126 249.127C223.443 248.869 223.732 248.596 224.021 248.322C224.309 248.049 224.54 247.805 224.785 247.532L224.973 247.316L225.175 247.101L225.565 246.612L225.68 246.483C225.897 246.195 226.099 245.922 226.286 245.635L226.43 245.405C226.575 245.189 226.719 244.959 226.849 244.729L226.979 244.485C226.984 244.442 226.984 244.398 226.979 244.355C227.123 244.111 227.239 243.852 227.354 243.608V243.479L227.671 242.688C227.711 242.604 227.745 242.518 227.772 242.429C227.873 242.142 227.974 241.84 228.061 241.538C228.162 241.207 228.234 240.863 228.306 240.503L229.605 234.164Z" fill="url(#paint3_linear_11978_48506)"/>
<path d="M171.443 211.079C183.665 203.605 204.762 205.129 218.572 214.472C230.751 222.708 233.176 234.307 225.181 242.04C224.043 243.136 222.785 244.1 221.429 244.915C209.207 252.332 188.11 250.894 174.315 241.523C162.121 233.272 159.697 221.687 167.662 213.94C168.816 212.854 170.084 211.895 171.443 211.079Z" fill="url(#paint4_radial_11978_48506)"/>
<path d="M179.34 216.733C187.695 211.631 202.154 212.666 211.577 219.047C219.903 224.682 221.577 232.631 216.094 237.934C215.317 238.674 214.461 239.325 213.539 239.875C205.185 244.977 190.754 243.943 181.303 237.561C172.977 231.926 171.317 223.978 176.786 218.688C177.568 217.951 178.424 217.296 179.34 216.733ZM210.957 219.421C201.923 213.298 188.042 212.306 180.033 217.193C179.148 217.728 178.325 218.36 177.58 219.076C172.327 224.15 173.915 231.782 181.909 237.187C190.957 243.31 204.838 244.374 212.861 239.415C213.734 238.879 214.546 238.253 215.286 237.546C220.552 232.458 218.951 224.826 210.957 219.421Z" fill="url(#paint5_linear_11978_48506)"/>
<path d="M180.929 217.836C188.504 213.208 201.621 214.156 210.178 219.934C217.725 225.023 219.226 232.209 214.262 237.025C213.562 237.699 212.788 238.292 211.953 238.793C204.377 243.421 191.26 242.472 182.718 236.694C175.157 231.577 173.656 224.376 178.62 219.575C179.327 218.918 180.101 218.335 180.929 217.836ZM209.615 220.279C201.419 214.717 188.822 213.811 181.563 218.253C180.763 218.742 180.018 219.315 179.341 219.963C174.565 224.563 176.008 231.462 183.266 236.392C191.477 241.94 204.06 242.846 211.333 238.404C212.132 237.92 212.877 237.351 213.555 236.708C218.317 232.094 216.874 225.209 209.615 220.279Z" fill="url(#paint6_linear_11978_48506)"/>
<path d="M182.58 218.927C189.348 214.788 201.065 215.636 208.698 220.796C215.452 225.367 216.794 231.806 212.349 236.089C211.729 236.698 211.036 237.229 210.286 237.67C203.532 241.81 191.815 240.962 184.167 235.802C177.428 231.231 176.086 224.792 180.516 220.508C181.147 219.911 181.839 219.381 182.58 218.927ZM208.208 221.098C200.848 216.139 189.622 215.334 183.143 219.272C182.423 219.702 181.754 220.214 181.151 220.796C176.895 224.907 178.179 231.087 184.658 235.471C192.003 240.43 203.244 241.221 209.737 237.268C210.45 236.839 211.113 236.333 211.714 235.759C215.971 231.633 214.687 225.453 208.208 221.069" fill="url(#paint7_linear_11978_48506)"/>
<path d="M184.221 220.036C190.181 216.385 200.527 217.161 207.309 221.689C213.269 225.713 214.452 231.391 210.542 235.186C209.989 235.728 209.38 236.21 208.723 236.623C202.749 240.274 192.403 239.498 185.635 234.956C179.676 230.931 178.42 225.253 182.417 221.473C182.956 220.92 183.562 220.437 184.221 220.036ZM206.833 221.947C200.368 217.635 190.441 216.859 184.712 220.366C184.076 220.738 183.49 221.187 182.966 221.703C179.2 225.34 180.34 230.787 186.054 234.639C192.533 239.023 202.446 239.728 208.189 236.235C208.814 235.847 209.398 235.399 209.935 234.898C213.687 231.262 212.547 225.8 206.833 221.962" fill="url(#paint8_linear_11978_48506)"/>
<path d="M179.34 216.397C187.695 211.323 202.154 212.358 211.577 218.74C219.903 224.375 221.577 232.323 216.094 237.613C215.318 238.357 214.461 239.012 213.539 239.568C205.185 244.67 190.754 243.621 181.303 237.253C172.977 231.619 171.317 223.67 176.786 218.367C177.567 217.624 178.423 216.964 179.34 216.397ZM210.957 219.114C201.909 212.991 188.027 211.927 180.019 216.886C179.137 217.421 178.315 218.047 177.565 218.755C172.313 223.843 173.9 231.475 181.894 236.88C190.942 243.003 204.824 243.995 212.847 239.093C213.731 238.568 214.549 237.941 215.286 237.225C220.552 232.151 218.951 224.518 210.957 219.114Z" fill="url(#paint9_linear_11978_48506)"/>
<path d="M180.929 217.51C188.504 212.881 201.621 213.816 210.178 219.608C217.725 224.711 219.226 231.926 214.262 236.727C213.558 237.398 212.784 237.99 211.953 238.495C204.377 243.124 191.26 242.175 182.718 236.397C175.157 231.28 173.656 224.078 178.62 219.278C179.322 218.606 180.097 218.014 180.929 217.51ZM209.615 219.939C201.419 214.391 188.822 213.528 181.563 217.927C180.764 218.411 180.019 218.98 179.341 219.623C174.565 224.237 176.008 231.122 183.266 236.052C191.477 241.614 204.06 242.52 211.333 238.078C212.133 237.589 212.878 237.016 213.555 236.368C218.317 231.768 216.874 224.869 209.615 219.939Z" fill="url(#paint10_linear_11978_48506)"/>
<path d="M182.587 218.626C189.312 214.486 201.072 215.334 208.706 220.494C215.459 225.022 216.801 231.49 212.4 235.788C211.772 236.388 211.08 236.918 210.336 237.369C203.583 241.509 191.866 240.661 184.218 235.486C177.479 230.93 176.137 224.49 180.567 220.207C181.177 219.604 181.855 219.073 182.587 218.626ZM208.215 220.796C200.856 215.837 189.629 215.032 183.15 218.999C182.434 219.403 181.766 219.885 181.159 220.437C176.902 224.634 178.186 230.771 184.665 235.184C192.01 240.157 203.251 240.934 209.745 236.995C210.455 236.557 211.117 236.046 211.722 235.472C215.979 231.361 214.694 225.18 208.215 220.796Z" fill="url(#paint11_linear_11978_48506)"/>
<path d="M184.221 219.724C190.181 216.073 200.527 216.849 207.309 221.377C213.269 225.416 214.452 231.094 210.542 234.874C209.993 235.421 209.383 235.903 208.723 236.311C202.749 239.962 192.403 239.186 185.635 234.658C179.676 230.634 178.42 224.956 182.417 221.161C182.959 220.613 183.565 220.13 184.221 219.724ZM206.833 221.65C200.368 217.266 190.441 216.548 184.712 220.055C184.083 220.436 183.497 220.884 182.966 221.391C179.2 225.028 180.34 230.49 186.054 234.328C192.533 238.64 202.446 239.416 208.189 235.909C208.82 235.53 209.406 235.082 209.935 234.572C213.687 230.936 212.547 225.488 206.833 221.636" fill="url(#paint12_linear_11978_48506)"/>
<path d="M174.482 213.132C185.204 206.578 203.747 207.914 215.897 216.107C226.59 223.294 228.712 233.542 221.67 240.341C220.675 241.294 219.576 242.133 218.394 242.842C207.687 249.454 189.115 248.017 177.008 239.881C166.315 232.694 164.179 222.432 171.236 215.633C172.225 214.686 173.314 213.848 174.482 213.132ZM214.368 217.027C203.213 209.481 186.084 208.245 176.2 214.296C175.113 214.951 174.102 215.722 173.184 216.596C166.704 222.863 168.667 232.278 178.523 238.947C189.692 246.579 206.806 247.729 216.734 241.692C217.808 241.039 218.806 240.267 219.707 239.393C226.201 233.126 224.238 223.711 214.368 217.042" fill="url(#paint13_linear_11978_48506)"/>
<path d="M183.851 219.992L184.024 219.863C184.358 219.702 184.729 219.632 185.099 219.66C185.469 219.688 185.825 219.812 186.131 220.021L187.357 220.841L188.079 220.409C188.448 220.232 188.858 220.156 189.266 220.189C189.674 220.222 190.066 220.363 190.402 220.596C191.008 220.999 191.124 221.559 190.734 221.933L190.546 222.077L188.815 223.14C188.669 223.226 188.534 223.327 188.411 223.442C187.646 224.19 187.891 225.181 189.031 225.958C189.744 226.383 190.551 226.628 191.382 226.671C192.212 226.713 193.04 226.552 193.793 226.202C195.5 225.563 197.333 225.334 199.146 225.531C200.958 225.728 202.698 226.347 204.226 227.337C206.809 229.077 207.588 231.649 206.03 233.475L207.473 234.438C208.021 234.812 208.122 235.343 207.761 235.688L207.603 235.803C207.27 235.968 206.9 236.041 206.53 236.016C206.16 235.99 205.803 235.868 205.496 235.66L204.212 234.797C202.306 235.577 200.206 235.758 198.194 235.315C197.791 235.26 197.403 235.123 197.054 234.912C196.376 234.438 196.434 233.935 196.78 233.604C196.836 233.544 196.899 233.491 196.968 233.446C197.392 233.235 197.877 233.179 198.339 233.288C199.672 233.626 201.083 233.468 202.307 232.842C202.531 232.702 202.744 232.543 202.942 232.368C204.14 231.204 203.577 229.723 202.09 228.717C201.184 228.156 200.157 227.816 199.094 227.726C198.03 227.636 196.96 227.798 195.972 228.2C194.512 228.783 192.935 229.015 191.368 228.878C189.801 228.74 188.289 228.237 186.953 227.409C184.558 225.843 184.082 223.586 185.51 222.149L184.154 221.229C183.548 220.855 183.548 220.352 183.851 219.992Z" fill="url(#paint14_linear_11978_48506)"/>
<path d="M183.924 219.746L184.097 219.617C184.431 219.456 184.802 219.386 185.172 219.414C185.542 219.442 185.898 219.566 186.204 219.775L187.431 220.594L188.152 220.163C188.52 219.983 188.931 219.906 189.34 219.938C189.748 219.971 190.141 220.114 190.475 220.35C191.081 220.752 191.197 221.313 190.807 221.687L190.62 221.83L188.888 222.894C188.739 222.975 188.603 223.076 188.484 223.196C187.719 223.929 187.965 224.935 189.105 225.711C189.815 226.137 190.62 226.382 191.448 226.425C192.276 226.467 193.101 226.306 193.852 225.956C195.561 225.316 197.397 225.085 199.212 225.283C201.026 225.48 202.769 226.099 204.299 227.091C206.882 228.83 207.662 231.403 206.103 233.229L207.546 234.192C208.094 234.565 208.181 235.097 207.835 235.428C207.793 235.483 207.738 235.527 207.676 235.557C207.341 235.721 206.968 235.794 206.596 235.769C206.224 235.744 205.864 235.621 205.555 235.413L204.285 234.551C202.378 235.326 200.28 235.507 198.268 235.069C197.866 235.007 197.479 234.87 197.128 234.666C196.435 234.192 196.507 233.674 196.853 233.358C196.909 233.298 196.972 233.245 197.041 233.2C197.465 232.989 197.95 232.933 198.412 233.042C199.722 233.362 201.105 233.204 202.308 232.596C202.532 232.456 202.745 232.297 202.943 232.122C204.141 230.943 203.578 229.477 202.092 228.471C201.19 227.9 200.165 227.55 199.102 227.45C198.038 227.35 196.966 227.503 195.973 227.896C194.512 228.472 192.936 228.701 191.37 228.564C189.804 228.426 188.292 227.927 186.954 227.106C184.631 225.539 184.155 223.34 185.584 221.845L184.227 220.925C183.679 220.609 183.549 220.091 183.924 219.746Z" fill="url(#paint15_radial_11978_48506)"/>
<g filter="url(#filter0_f_11978_48506)">
<path d="M243.886 188.373C243.796 188.785 243.679 189.19 243.553 189.587C243.379 190.086 243.175 190.577 242.94 191.058C242.877 191.198 242.805 191.338 242.733 191.47C242.544 191.86 242.328 192.206 242.094 192.611L241.878 192.957C241.56 193.446 241.208 193.92 240.825 194.377C240.744 194.48 240.654 194.575 240.564 194.678C240.24 195.061 239.889 195.436 239.511 195.804C239.385 195.922 239.268 196.047 239.142 196.172C238.683 196.598 238.241 197.025 237.683 197.437C237.125 197.849 236.873 198.062 236.441 198.364L235.991 198.658C235.694 198.857 235.397 199.056 235.091 199.254C234.785 199.453 234.533 199.585 234.245 199.755L233.821 200.005C233.371 200.248 232.921 200.498 232.444 200.74C231.634 201.189 230.734 201.557 229.834 201.925L229.411 202.102C228.51 202.447 227.61 202.771 226.71 203.073L226.179 203.249C225.279 203.543 224.306 203.823 223.334 204.073L222.974 204.161C222.02 204.404 221.039 204.625 220.049 204.824L219.752 204.882C218.725 205.081 217.69 205.258 216.637 205.412L216.043 205.493C215.008 205.633 213.954 205.758 212.892 205.854L212.325 205.905C211.218 206.001 210.111 206.082 208.985 206.126L208.859 206.126C207.752 206.17 206.627 206.192 205.511 206.192L205.006 206.192C203.773 206.192 202.531 206.192 201.289 206.096L200.731 206.096C199.506 206.03 198.273 205.935 197.049 205.824L196.401 205.758C195.365 205.655 194.321 205.537 193.286 205.397L192.926 205.339C191.972 205.206 191.018 205.052 190.063 204.89L189.397 204.772C188.434 204.603 187.462 204.412 186.508 204.206L186.021 204.132C185.193 203.948 184.374 203.749 183.555 203.543L182.862 203.367C181.899 203.117 180.935 202.852 179.981 202.565L179.504 202.418C178.667 202.16 177.839 201.888 177.02 201.609L176.434 201.41C175.372 201.035 174.337 200.674 173.311 200.225L172.744 199.99C171.717 199.571 170.709 199.122 169.719 198.658L169.305 198.452C168.27 197.952 167.244 197.43 166.253 196.885C154.317 190.22 149.051 181.715 150.779 174.152L149.141 181.325C147.412 188.91 152.678 197.415 164.615 204.036C165.605 204.588 166.631 205.111 167.667 205.611L167.928 205.743L168.081 205.809C169.071 206.28 170.079 206.722 171.105 207.148L171.672 207.384C172.69 207.796 173.734 208.193 174.796 208.561L174.985 208.635L175.381 208.767C176.2 209.047 177.029 209.319 177.866 209.569L178.343 209.723C179.297 210.01 180.251 210.275 181.223 210.525L181.494 210.599L181.917 210.702C182.736 210.908 183.555 211.099 184.383 211.283L184.887 211.401C185.841 211.607 186.805 211.791 187.777 211.967L188.038 212.019C188.173 212.019 188.308 212.019 188.443 212.085C189.397 212.247 190.342 212.394 191.297 212.527L191.648 212.578C192.683 212.718 193.718 212.843 194.753 212.946L195.104 212.946C195.203 212.946 195.302 212.946 195.41 212.946C196.635 213.064 197.868 213.152 199.092 213.218L199.65 213.218C200.893 213.277 202.135 213.306 203.368 213.314L203.872 213.314C204.988 213.314 206.105 213.314 207.212 213.248L207.329 213.248C208.454 213.196 209.561 213.122 210.669 213.027L211.236 212.975C212.298 212.88 213.351 212.755 214.386 212.615L214.972 212.527C216.025 212.372 217.069 212.203 218.095 212.004L218.392 211.938C219.382 211.747 220.355 211.526 221.318 211.283L221.678 211.195C222.65 210.937 223.595 210.665 224.523 210.364L225.054 210.194C225.954 209.893 226.854 209.569 227.754 209.223L228.177 209.039C229.077 208.671 229.978 208.304 230.797 207.862C231.265 207.619 231.697 207.377 232.174 207.126L232.597 206.884L233.308 206.472L233.443 206.376C233.758 206.185 234.056 205.986 234.344 205.78C234.497 205.684 234.65 205.589 234.785 205.486C235.217 205.184 235.64 204.882 236.036 204.566C236.432 204.25 237.035 203.808 237.503 203.396C237.557 203.345 237.62 203.301 237.665 203.249C237.71 203.198 237.8 203.102 237.872 203.036C238.238 202.663 238.589 202.288 238.926 201.91C239.007 201.807 239.106 201.712 239.187 201.609C239.568 201.151 239.919 200.677 240.24 200.189C240.24 200.189 240.294 200.122 240.312 200.086C240.33 200.049 240.402 199.924 240.456 199.843C240.69 199.468 240.906 199.107 241.095 198.703C241.167 198.563 241.239 198.43 241.302 198.291C241.536 197.809 241.737 197.318 241.905 196.819C242.031 196.429 242.139 196.039 242.229 195.642L243.886 188.373Z" fill="url(#paint16_linear_11978_48506)"/>
<path d="M162.233 161.779C179.381 153.171 209.042 154.922 228.397 165.678C245.5 175.177 248.921 188.537 237.677 197.454C236.081 198.706 234.321 199.811 232.429 200.75C215.254 209.358 185.62 207.607 166.256 196.851C149.135 187.345 145.732 173.97 156.976 165.075C158.575 163.823 160.338 162.718 162.233 161.779Z" fill="url(#paint17_radial_11978_48506)"/>
<path d="M218.469 171.026C205.219 163.669 184.91 162.492 173.19 168.37C171.891 169.006 170.683 169.759 169.589 170.614C161.902 176.713 164.188 185.872 175.891 192.361C189.132 199.719 209.45 200.91 221.17 195.032C222.471 194.398 223.679 193.646 224.771 192.788C232.53 186.689 230.154 177.53 218.469 171.026ZM223.691 192.361C222.644 193.181 221.491 193.904 220.252 194.517C209 200.145 189.501 198.983 176.791 191.935C165.565 185.74 163.333 176.912 170.723 171.026C171.766 170.209 172.912 169.486 174.144 168.87C185.406 163.257 204.904 164.404 217.605 171.467C228.84 177.699 231.072 186.476 223.691 192.361Z" fill="url(#paint18_linear_11978_48506)"/>
<path d="M216.539 172.008C204.495 165.328 186.032 164.239 175.374 169.558C174.201 170.139 173.111 170.825 172.124 171.603C165.129 177.151 167.245 185.471 177.876 191.379C189.912 198.082 208.384 199.17 219.033 193.836C220.206 193.256 221.296 192.57 222.282 191.791C229.286 186.237 227.135 177.916 216.539 172.008ZM221.292 191.372C220.332 192.121 219.272 192.78 218.133 193.336C207.906 198.486 190.182 197.427 178.623 191.011C168.442 185.346 166.417 177.349 173.123 172.023C174.071 171.279 175.115 170.623 176.238 170.066C186.473 164.916 204.198 165.982 215.756 172.398C225.973 178.063 228.035 186.053 221.292 191.372Z" fill="url(#paint19_linear_11978_48506)"/>
<path d="M214.637 172.966C203.772 166.941 187.127 165.962 177.522 170.759C176.467 171.286 175.484 171.902 174.588 172.598C168.286 177.608 170.195 185.105 179.773 190.432C190.629 196.457 207.283 197.436 216.897 192.639C217.95 192.11 218.93 191.491 219.822 190.792C226.124 185.797 224.215 178.285 214.637 172.966ZM218.913 190.424C218.055 191.097 217.11 191.691 216.095 192.197C206.877 196.825 190.89 195.876 180.475 190.101C171.266 184.951 169.439 177.778 175.497 172.981C176.352 172.31 177.294 171.718 178.306 171.215C187.532 166.587 203.511 167.536 213.935 173.319C223.135 178.425 224.971 185.628 218.913 190.424Z" fill="url(#paint20_linear_11978_48506)"/>
<path d="M212.818 173.877C203.087 168.477 188.181 167.601 179.566 171.913C178.624 172.385 177.746 172.938 176.947 173.561C171.321 178.041 173.004 184.766 181.591 189.533C191.313 194.933 206.229 195.809 214.844 191.497C215.785 191.025 216.663 190.472 217.463 189.849C223.116 185.369 221.406 178.644 212.818 173.877ZM216.653 189.518C215.883 190.119 215.035 190.65 214.124 191.1C205.869 195.249 191.556 194.403 182.213 189.224C173.976 184.641 172.311 178.188 177.712 173.884C178.208 173.503 178.738 173.152 179.296 172.832C179.335 172.998 179.418 173.154 179.537 173.291C179.657 173.428 179.811 173.543 179.989 173.627L181.934 174.708C179.944 176.445 180.61 178.968 183.869 180.778C185.747 181.725 187.87 182.298 190.068 182.451C192.267 182.605 194.478 182.334 196.525 181.661C197.914 181.201 199.416 181.014 200.91 181.117C202.403 181.219 203.846 181.607 205.122 182.249C207.201 183.405 208.002 185.111 206.31 186.45C206.036 186.661 205.734 186.846 205.41 187.002C203.925 187.738 202.043 187.804 199.928 187.517C199.275 187.384 198.585 187.455 197.993 187.716C197.893 187.761 197.802 187.818 197.722 187.885C197.254 188.253 197.146 188.849 198.119 189.356C198.607 189.598 199.148 189.758 199.712 189.827C202.542 190.338 205.495 190.127 208.173 189.224L209.974 190.217C210.404 190.459 210.905 190.602 211.425 190.633C211.946 190.664 212.467 190.582 212.935 190.394C213.017 190.355 213.093 190.308 213.16 190.254C213.655 189.864 213.538 189.253 212.755 188.827L210.748 187.738C212.944 185.634 211.828 182.669 208.227 180.66C206.082 179.517 203.637 178.803 201.091 178.577C198.544 178.351 195.969 178.618 193.573 179.358C190.593 180.234 188.433 179.925 186.893 179.079C185.354 178.232 184.949 177.033 185.993 176.18C186.163 176.045 186.35 175.927 186.551 175.827L188.982 174.613C189.075 174.569 189.159 174.514 189.234 174.451C189.792 174.01 189.63 173.355 188.784 172.891C188.308 172.625 187.755 172.465 187.18 172.428C186.605 172.39 186.029 172.477 185.507 172.678L184.508 173.178L182.789 172.229C182.349 171.997 181.844 171.86 181.321 171.832C189.711 168.256 203.223 169.22 212.161 174.193C220.434 178.762 222.072 185.214 216.653 189.518Z" fill="url(#paint21_linear_11978_48506)"/>
<path d="M238.356 186.777C238.356 186.63 238.356 186.475 238.419 186.328C238.482 186.181 238.419 186.026 238.419 185.872C238.536 184.238 238.317 182.599 237.771 181.024C237.69 180.788 237.609 180.56 237.519 180.288C237.429 180.016 237.375 179.935 237.294 179.766C237.213 179.596 237.105 179.339 236.997 179.125L236.88 178.897L236.718 178.588C236.52 178.228 236.313 177.853 236.078 177.507C235.934 177.271 235.781 177.043 235.619 176.815C235.295 176.352 234.953 175.896 234.575 175.44C234.197 174.983 233.99 174.755 233.675 174.41L233.495 174.218C233.198 173.909 232.901 173.6 232.595 173.299L232.379 173.093L232.127 172.857L231.902 172.651C231.614 172.391 231.313 172.134 231.001 171.879C230.92 171.805 230.83 171.739 230.74 171.665C230.038 171.084 229.291 170.518 228.49 169.966C228.337 169.855 228.184 169.745 228.022 169.642C227.671 169.399 227.311 169.164 226.942 168.906L226.536 168.656C225.936 168.264 225.288 167.881 224.592 167.509C223.476 166.91 222.312 166.334 221.099 165.78L220.73 165.61L220.262 165.397L219.857 165.221L218.534 164.669L218.084 164.485L216.841 164.007L216.211 163.779L215.167 163.411L214.708 163.256L213.628 162.932L212.539 162.594L212.241 162.506L211.467 162.285L210.873 162.123L209.712 161.814L209.451 161.748L208.227 161.417L207.633 161.284L206.669 161.071L205.67 160.872L204.77 160.703L204.59 160.703L203.789 160.563L203.618 160.563L202.717 160.409L201.655 160.247C200.206 160.041 198.748 159.865 197.289 159.732L196.299 159.651C195.642 159.6 194.976 159.556 194.319 159.526L192.923 159.394L192.41 159.394L191.429 159.394C190.286 159.394 189.152 159.394 188.026 159.394L187.522 159.401C187.198 159.401 186.883 159.401 186.559 159.445C185.92 159.445 185.29 159.519 184.66 159.563C183.706 159.636 182.769 159.732 181.842 159.842L180.465 160.026L179.565 160.166L179.115 160.24C178.664 160.313 178.214 160.394 177.773 160.483L177.332 160.563C175.04 161.016 172.799 161.629 170.635 162.395L170.248 162.543C168.963 163.009 167.718 163.545 166.521 164.146C165.668 164.57 164.845 165.031 164.054 165.53L163.766 165.713C163.109 166.14 162.497 166.582 161.966 167.03C160.143 168.448 158.675 170.142 157.645 172.018C157.528 172.232 157.429 172.445 157.321 172.659C157.213 172.872 156.997 173.232 156.916 173.527L156.835 173.747C156.781 173.895 156.736 174.042 156.691 174.189C156.646 174.336 156.601 174.483 156.565 174.63L156.457 175.079C156.457 175.226 156.394 175.373 156.367 175.528C156.34 175.682 156.295 175.977 156.268 176.205L156.268 176.44C156.268 176.587 156.268 176.734 156.268 176.882C156.268 177.029 156.268 177.338 156.268 177.566C156.243 178.33 156.288 179.095 156.403 179.854C156.403 180.008 156.466 180.163 156.511 180.317C156.803 181.517 157.256 182.686 157.861 183.805L157.987 184.04C159.385 186.472 161.289 188.687 163.613 190.588C163.955 190.875 164.315 191.162 164.685 191.449C165.054 191.736 165.243 191.875 165.54 192.081C165.837 192.287 165.927 192.368 166.125 192.508L167.025 193.126L167.34 193.332C167.763 193.604 168.195 193.876 168.636 194.141L170.014 194.936C172.168 196.126 174.428 197.183 176.774 198.099L177.674 198.445C178.277 198.666 178.88 198.887 179.475 199.093L180.375 199.402L181.275 199.696L182.175 199.983C183.075 200.262 184.057 200.52 185.02 200.763L186.46 201.108L186.937 201.219C188.413 201.557 189.908 201.844 191.438 202.094L192.338 202.234L193.329 202.381C195.462 202.683 197.613 202.896 199.747 203.021L200.737 203.073L201.25 203.073L202.213 203.073L202.699 203.073L203.681 203.073L204.167 203.073C205.31 203.073 206.435 203.073 207.561 203.007L208.038 203.007C208.842 202.972 209.634 202.921 210.414 202.852L210.891 202.808L211.791 202.712L212.692 202.609C213.304 202.536 213.916 202.447 214.492 202.359L214.942 202.286C215.842 202.146 216.742 201.977 217.643 201.793L218.084 201.704L218.984 201.506L219.416 201.403L220.262 201.189L221.099 200.961C223.528 200.287 225.859 199.397 228.049 198.305C228.49 198.085 228.949 197.864 229.327 197.629C229.939 197.283 230.524 196.93 231.127 196.562L231.668 196.187C232.019 195.936 232.361 195.679 232.694 195.451C232.847 195.333 232.991 195.208 233.144 195.083L233.576 194.708C234.266 194.096 234.898 193.441 235.466 192.751C235.583 192.618 235.691 192.479 235.79 192.346L235.943 192.14C236.15 191.868 236.34 191.588 236.52 191.316C236.601 191.176 236.691 191.037 236.772 190.889L237.015 190.47L237.123 190.257C237.195 190.11 237.267 189.97 237.33 189.823C237.393 189.676 237.528 189.396 237.618 189.175C237.762 188.815 237.888 188.44 237.987 188.079C237.987 187.925 238.068 187.777 238.104 187.63C238.248 187.38 238.311 187.078 238.356 186.777ZM230.002 194.384C228.711 195.395 227.29 196.288 225.762 197.047C211.881 204.007 187.837 202.595 172.165 193.891C158.311 186.203 155.557 175.366 164.658 168.141C165.948 167.13 167.37 166.237 168.897 165.478C182.778 158.518 206.822 159.938 222.504 168.634C236.349 176.33 239.103 187.167 230.002 194.384Z" fill="url(#paint22_linear_11978_48506)"/>
<path d="M173.319 167.93C185.021 162.044 205.348 163.251 218.598 170.601C230.301 177.097 232.614 186.257 224.9 192.356C223.801 193.196 222.594 193.936 221.299 194.563C209.597 200.448 189.252 199.242 176.02 191.892C164.317 185.396 161.995 176.244 169.718 170.137C170.819 169.299 172.026 168.559 173.319 167.93ZM217.743 171.027C205.033 163.965 185.535 162.817 174.282 168.46C173.042 169.069 171.891 169.792 170.852 170.615C163.462 176.501 165.694 185.263 176.92 191.495C189.639 198.558 209.128 199.72 220.381 194.062C221.621 193.447 222.774 192.721 223.82 191.899C231.201 186.014 228.969 177.259 217.743 171.035" fill="url(#paint23_radial_11978_48506)"/>
<path d="M175.503 169.146C186.161 163.805 204.624 164.886 216.668 171.574C227.299 177.46 229.415 185.803 222.42 191.35C221.433 192.126 220.343 192.809 219.171 193.388C208.512 198.729 190.041 197.64 178.005 190.96C167.374 185.074 165.258 176.731 172.253 171.184C173.244 170.412 174.334 169.729 175.503 169.146ZM215.894 171.964C204.336 165.548 186.629 164.496 176.376 169.632C175.251 170.187 174.206 170.843 173.261 171.589C166.546 176.915 168.571 184.905 178.779 190.577C190.338 196.985 208.071 198.037 218.289 192.902C219.417 192.342 220.467 191.684 221.421 190.938C228.128 185.611 226.102 177.629 215.894 171.964Z" fill="url(#paint24_radial_11978_48506)"/>
<path d="M177.627 170.337C187.241 165.518 203.876 166.496 214.741 172.544C224.355 177.848 226.237 185.353 219.936 190.355C219.047 191.056 218.066 191.673 217.01 192.195C207.396 197.014 190.742 196.028 179.886 189.988C170.308 184.661 168.391 177.157 174.701 172.154C175.591 171.462 176.572 170.852 177.627 170.337ZM214.039 172.875C203.624 167.092 187.637 166.151 178.41 170.771C177.4 171.277 176.458 171.868 175.601 172.536C169.543 177.341 171.379 184.543 180.579 189.656C191.003 195.439 206.982 196.381 216.2 191.753C217.222 191.252 218.173 190.66 219.035 189.988C225.085 185.183 223.248 177.981 214.048 172.875" fill="url(#paint25_radial_11978_48506)"/>
<path d="M179.703 171.477C188.308 167.159 203.215 168.034 212.946 173.434C221.533 178.202 223.244 184.926 217.591 189.421C216.796 190.049 215.917 190.602 214.971 191.069C206.357 195.388 191.441 194.505 181.719 189.112C173.122 184.33 171.421 177.606 177.074 173.125C177.871 172.496 178.753 171.943 179.703 171.477ZM212.316 173.751C202.99 168.601 188.668 167.725 180.405 171.867C179.498 172.32 178.653 172.85 177.884 173.449C172.483 177.753 174.104 184.205 182.385 188.781C191.72 193.931 206.033 194.807 214.296 190.665C215.205 190.212 216.051 189.68 216.817 189.076C222.218 184.779 220.597 178.327 212.316 173.751Z" fill="url(#paint26_radial_11978_48506)"/>
<path d="M208.321 188.819L210.122 189.812C210.552 190.052 211.053 190.195 211.573 190.226C212.093 190.257 212.614 190.175 213.083 189.989C213.166 189.948 213.245 189.901 213.317 189.849C213.812 189.452 213.686 188.848 212.903 188.414L210.932 187.303C213.119 185.199 212.021 182.227 208.402 180.218C206.253 179.078 203.807 178.367 201.26 178.141C198.713 177.914 196.137 178.18 193.738 178.916C190.759 179.799 188.607 179.49 187.059 178.637C185.511 177.783 185.124 176.591 186.159 175.738C186.332 175.604 186.522 175.485 186.726 175.385L189.157 174.171C189.246 174.126 189.33 174.074 189.409 174.016C189.958 173.575 189.796 172.92 188.95 172.449C188.474 172.182 187.92 172.023 187.345 171.986C186.77 171.95 186.193 172.039 185.673 172.243L184.674 172.744L182.954 171.765C182.521 171.527 182.019 171.386 181.498 171.355C180.977 171.324 180.455 171.405 179.984 171.589C179.895 171.632 179.814 171.684 179.741 171.743C179.237 172.14 179.39 172.729 180.164 173.163L182.063 174.215C180.074 175.944 180.749 178.475 183.999 180.277C185.874 181.231 187.998 181.81 190.198 181.969C192.398 182.127 194.613 181.86 196.664 181.19C198.052 180.731 199.553 180.546 201.045 180.649C202.537 180.753 203.978 181.142 205.252 181.786C207.331 182.941 208.132 184.64 206.44 185.986C206.165 186.197 205.864 186.382 205.54 186.538C204.054 187.274 202.173 187.34 200.058 187.053C199.406 186.921 198.717 186.989 198.122 187.245C198.027 187.295 197.937 187.352 197.852 187.414C197.384 187.789 197.285 188.385 198.248 188.885C198.738 189.148 199.285 189.331 199.86 189.422C202.689 189.933 205.642 189.722 208.321 188.819Z" fill="url(#paint27_radial_11978_48506)"/>
</g>
<path d="M253.123 161.243C253.021 161.819 252.887 162.386 252.743 162.942C252.546 163.64 252.313 164.327 252.045 165.001C251.973 165.197 251.891 165.393 251.809 165.578C251.594 166.124 251.347 166.608 251.08 167.174L250.834 167.658C250.471 168.343 250.07 169.006 249.633 169.646C249.54 169.79 249.438 169.924 249.335 170.068C248.965 170.603 248.565 171.128 248.134 171.643C247.99 171.808 247.857 171.983 247.713 172.158C247.189 172.756 246.686 173.353 246.05 173.929C245.413 174.506 245.126 174.805 244.633 175.227L244.12 175.639C243.781 175.917 243.442 176.195 243.093 176.473C242.744 176.751 242.456 176.936 242.128 177.173L241.645 177.523C241.132 177.863 240.619 178.213 240.075 178.553C239.151 179.181 238.124 179.696 237.097 180.211L236.615 180.458C235.588 180.942 234.561 181.395 233.535 181.817L232.929 182.065C231.902 182.477 230.794 182.868 229.685 183.218L229.274 183.342C228.186 183.681 227.067 183.99 225.938 184.268L225.599 184.351C224.428 184.629 223.248 184.876 222.047 185.092L221.369 185.205C220.188 185.401 218.987 185.576 217.776 185.71L217.129 185.782C215.866 185.916 214.603 186.029 213.32 186.091L213.176 186.091C211.914 186.153 210.63 186.184 209.357 186.184L208.782 186.184C207.376 186.184 205.959 186.184 204.542 186.05L203.906 186.05C202.51 185.957 201.103 185.823 199.707 185.669L198.968 185.576C197.787 185.432 196.596 185.267 195.415 185.072L195.005 184.989C193.917 184.804 192.828 184.588 191.74 184.361L190.98 184.196C189.882 183.959 188.773 183.692 187.685 183.403L187.13 183.3C186.186 183.043 185.252 182.765 184.317 182.477L183.527 182.229C182.428 181.879 181.33 181.509 180.242 181.107L179.697 180.901C178.743 180.541 177.798 180.16 176.864 179.768L176.197 179.49C174.985 178.965 173.804 178.46 172.634 177.832L171.987 177.503C170.817 176.916 169.667 176.288 168.538 175.639L168.066 175.351C166.885 174.65 165.715 173.919 164.585 173.157C150.972 163.827 144.966 151.923 146.937 141.337L145.069 151.378C143.097 161.994 149.103 173.899 162.717 183.166C163.846 183.939 165.016 184.67 166.197 185.37L166.495 185.556L166.669 185.648C167.799 186.307 168.948 186.925 170.119 187.522L170.766 187.852C171.926 188.429 173.117 188.985 174.328 189.499L174.544 189.602L174.995 189.788C175.93 190.179 176.874 190.56 177.829 190.91L178.373 191.127C179.461 191.528 180.55 191.899 181.658 192.249L181.966 192.352L182.449 192.496C183.383 192.784 184.317 193.052 185.262 193.31L185.837 193.474C186.925 193.763 188.024 194.02 189.132 194.267L189.43 194.339C189.584 194.339 189.738 194.339 189.892 194.432C190.98 194.659 192.058 194.865 193.147 195.05L193.547 195.122C194.728 195.318 195.908 195.493 197.089 195.637L197.489 195.637C197.602 195.637 197.715 195.637 197.838 195.637C199.235 195.802 200.641 195.925 202.037 196.018L202.674 196.018C204.091 196.1 205.507 196.141 206.914 196.152L207.489 196.152C208.762 196.152 210.035 196.152 211.298 196.059L211.431 196.059C212.714 195.987 213.977 195.884 215.24 195.75L215.887 195.678C217.098 195.544 218.299 195.369 219.48 195.174L220.147 195.05C221.349 194.834 222.539 194.597 223.71 194.319L224.049 194.226C225.178 193.958 226.287 193.649 227.385 193.31L227.796 193.186C228.905 192.826 229.983 192.445 231.04 192.022L231.646 191.786C232.672 191.363 233.699 190.91 234.726 190.426L235.208 190.169C236.235 189.654 237.262 189.139 238.196 188.521C238.73 188.181 239.222 187.842 239.767 187.491L240.249 187.152L241.06 186.575L241.214 186.441C241.573 186.173 241.912 185.895 242.241 185.607C242.415 185.473 242.59 185.339 242.744 185.195C243.237 184.773 243.719 184.351 244.171 183.908C244.623 183.465 245.31 182.847 245.844 182.271C245.906 182.198 245.978 182.137 246.029 182.065C246.08 181.993 246.183 181.859 246.265 181.766C246.683 181.244 247.083 180.719 247.466 180.19C247.559 180.046 247.672 179.912 247.764 179.768C248.199 179.127 248.6 178.464 248.965 177.781C248.965 177.781 249.027 177.688 249.047 177.637C249.068 177.585 249.15 177.41 249.212 177.297C249.479 176.772 249.725 176.267 249.941 175.701C250.023 175.505 250.105 175.32 250.177 175.124C250.444 174.451 250.673 173.763 250.865 173.064C251.008 172.519 251.132 171.973 251.234 171.417L253.123 161.243Z" fill="url(#paint28_linear_11978_48506)"/>
<path d="M160.005 124.017C179.563 111.969 213.391 114.42 235.464 129.475C254.97 142.769 258.871 161.47 246.048 173.951C244.228 175.703 242.221 177.25 240.063 178.564C220.475 190.612 186.678 188.161 164.594 173.106C145.068 159.802 141.187 141.08 154.01 128.631C155.834 126.878 157.845 125.331 160.005 124.017Z" fill="url(#paint29_radial_11978_48506)"/>
<path d="M224.141 136.962C209.029 126.665 185.867 125.017 172.5 133.245C171.019 134.135 169.642 135.189 168.394 136.386C159.626 144.923 162.234 157.743 175.58 166.826C190.682 177.123 213.854 178.791 227.221 170.564C228.704 169.677 230.082 168.623 231.327 167.423C240.177 158.886 237.467 146.066 224.141 136.962ZM230.095 166.826C228.902 167.972 227.587 168.984 226.174 169.843C213.34 177.721 191.103 176.094 176.607 166.228C163.805 157.558 161.259 145.201 169.687 136.962C170.876 135.819 172.184 134.807 173.589 133.945C186.432 126.088 208.669 127.695 223.155 137.58C235.968 146.302 238.514 158.588 230.095 166.826Z" fill="url(#paint30_linear_11978_48506)"/>
<path d="M221.935 138.327C208.199 128.976 187.142 127.452 174.987 134.898C173.649 135.711 172.406 136.671 171.281 137.76C163.303 145.525 165.716 157.171 177.841 165.44C191.567 174.822 212.634 176.346 224.779 168.88C226.117 168.067 227.36 167.107 228.485 166.017C236.473 158.242 234.019 146.596 221.935 138.327ZM227.356 165.43C226.261 166.479 225.052 167.401 223.752 168.18C212.09 175.388 191.875 173.905 178.693 164.926C167.082 156.996 164.772 145.803 172.42 138.347C173.501 137.307 174.692 136.388 175.972 135.608C187.645 128.4 207.86 129.893 221.042 138.872C232.695 146.802 235.046 157.985 227.356 165.43Z" fill="url(#paint31_linear_11978_48506)"/>
<path d="M219.769 139.672C207.378 131.238 188.395 129.868 177.441 136.583C176.238 137.32 175.116 138.183 174.094 139.157C166.907 146.17 169.084 156.663 180.007 164.118C192.389 172.552 211.382 173.922 222.346 167.208C223.547 166.468 224.666 165.601 225.683 164.623C232.869 157.631 230.693 147.117 219.769 139.672ZM224.646 164.108C223.667 165.049 222.59 165.881 221.433 166.59C210.92 173.067 192.686 171.739 180.808 163.655C170.306 156.447 168.221 146.406 175.131 139.692C176.106 138.754 177.18 137.926 178.334 137.221C188.857 130.744 207.08 132.072 218.969 140.166C229.461 147.313 231.555 157.394 224.646 164.108Z" fill="url(#paint32_linear_11978_48506)"/>
<path d="M246.818 159.01C246.818 158.804 246.818 158.588 246.89 158.382C246.962 158.176 246.89 157.96 246.89 157.743C247.023 155.456 246.773 153.162 246.151 150.957C246.059 150.628 245.966 150.308 245.864 149.927C245.761 149.546 245.699 149.433 245.607 149.196C245.514 148.959 245.391 148.599 245.268 148.3L245.135 147.981L244.95 147.549C244.724 147.044 244.488 146.519 244.221 146.035C244.057 145.705 243.882 145.386 243.697 145.067C243.328 144.418 242.938 143.78 242.506 143.141C242.075 142.503 241.839 142.184 241.48 141.7L241.274 141.432C240.936 140.999 240.597 140.567 240.248 140.145L240.001 139.856L239.714 139.527L239.457 139.238C239.129 138.875 238.786 138.514 238.431 138.157C238.338 138.054 238.236 137.962 238.133 137.859C237.332 137.045 236.48 136.252 235.566 135.48C235.392 135.325 235.217 135.171 235.032 135.027C234.632 134.687 234.221 134.357 233.8 133.997L233.338 133.647C232.654 133.098 231.915 132.562 231.121 132.04C229.848 131.203 228.52 130.396 227.137 129.62L226.717 129.384L226.183 129.085L225.721 128.838L224.212 128.066L223.698 127.808L222.281 127.139L221.563 126.82L220.372 126.305L219.848 126.088L218.616 125.635L217.374 125.162L217.035 125.038L216.152 124.729L215.475 124.503L214.15 124.07L213.853 123.977L212.456 123.514L211.779 123.329L210.68 123.03L209.541 122.752L208.514 122.515L208.309 122.515L207.395 122.319L207.2 122.319L206.173 122.103L204.962 121.877C203.309 121.588 201.646 121.341 199.983 121.156L198.853 121.043C198.104 120.97 197.344 120.909 196.595 120.867L195.003 120.682L194.418 120.682L193.299 120.682C191.995 120.682 190.702 120.682 189.418 120.682L188.844 120.692C188.474 120.692 188.115 120.692 187.745 120.754C187.016 120.754 186.297 120.857 185.579 120.919C184.491 121.022 183.423 121.156 182.365 121.31L180.795 121.568L179.768 121.763L179.255 121.866C178.741 121.969 178.228 122.083 177.725 122.206L177.222 122.319C174.607 122.953 172.052 123.811 169.584 124.884L169.142 125.09C167.678 125.743 166.258 126.493 164.892 127.334C163.919 127.927 162.98 128.573 162.079 129.27L161.75 129.528C161.001 130.125 160.303 130.743 159.697 131.371C157.618 133.355 155.944 135.727 154.769 138.353C154.636 138.652 154.523 138.95 154.4 139.249C154.276 139.547 154.03 140.052 153.938 140.464L153.845 140.773C153.784 140.979 153.732 141.185 153.681 141.391C153.63 141.597 153.578 141.803 153.537 142.009L153.414 142.637C153.414 142.843 153.342 143.049 153.311 143.265C153.28 143.481 153.229 143.893 153.198 144.212L153.198 144.542C153.198 144.748 153.198 144.954 153.198 145.16C153.198 145.366 153.198 145.798 153.198 146.117C153.17 147.187 153.222 148.258 153.352 149.32C153.352 149.536 153.424 149.752 153.476 149.969C153.809 151.647 154.325 153.284 155.016 154.85L155.159 155.179C156.754 158.583 158.925 161.684 161.576 164.344C161.966 164.746 162.377 165.147 162.798 165.549C163.218 165.951 163.434 166.146 163.773 166.435C164.112 166.723 164.214 166.836 164.44 167.032L165.467 167.897L165.826 168.185C166.309 168.566 166.801 168.947 167.304 169.318L168.875 170.43C171.332 172.096 173.909 173.576 176.585 174.858L177.612 175.342C178.3 175.651 178.988 175.96 179.665 176.248L180.692 176.681L181.719 177.093L182.745 177.494C183.772 177.886 184.891 178.246 185.989 178.586L187.632 179.07L188.176 179.224C189.86 179.698 191.564 180.1 193.309 180.45L194.336 180.645L195.465 180.851C197.899 181.273 200.352 181.572 202.785 181.747L203.915 181.819L204.5 181.819L205.598 181.819L206.153 181.819L207.272 181.819L207.826 181.819C209.13 181.819 210.413 181.819 211.697 181.727L212.241 181.727C213.158 181.679 214.061 181.606 214.951 181.51L215.495 181.449L216.522 181.315L217.549 181.171C218.247 181.068 218.945 180.944 219.602 180.82L220.115 180.717C221.142 180.522 222.169 180.285 223.195 180.027L223.698 179.904L224.725 179.626L225.218 179.482L226.183 179.183L227.137 178.864C229.908 177.921 232.565 176.674 235.063 175.146C235.566 174.837 236.09 174.529 236.521 174.199C237.219 173.715 237.886 173.221 238.574 172.706L239.19 172.181C239.591 171.831 239.981 171.47 240.361 171.151C240.535 170.986 240.699 170.811 240.874 170.636L241.367 170.111C242.154 169.254 242.875 168.338 243.523 167.372C243.656 167.186 243.779 166.991 243.892 166.805L244.067 166.517C244.303 166.136 244.519 165.745 244.724 165.364C244.816 165.168 244.919 164.972 245.011 164.766L245.289 164.179L245.412 163.881C245.494 163.675 245.576 163.479 245.648 163.273C245.72 163.067 245.874 162.676 245.976 162.367C246.141 161.862 246.284 161.337 246.397 160.833C246.397 160.616 246.49 160.41 246.531 160.204C246.695 159.854 246.767 159.432 246.818 159.01ZM237.291 169.658C235.819 171.073 234.198 172.323 232.456 173.385C216.625 183.127 189.203 181.15 171.329 168.968C155.529 158.207 152.387 143.038 162.767 132.926C164.239 131.511 165.86 130.261 167.602 129.198C183.433 119.457 210.855 121.444 228.739 133.616C244.529 144.387 247.67 159.556 237.291 169.658Z" fill="url(#paint33_linear_11978_48506)"/>
<path d="M172.647 132.626C185.994 124.387 209.175 126.076 224.288 136.364C237.634 145.456 240.272 158.277 231.474 166.814C230.221 167.99 228.844 169.026 227.368 169.903C214.021 178.141 190.819 176.452 175.727 166.165C162.381 157.072 159.732 144.262 168.541 135.715C169.796 134.541 171.173 133.506 172.647 132.626ZM223.312 136.961C208.816 127.075 186.579 125.469 173.746 133.367C172.331 134.22 171.019 135.232 169.834 136.384C161.405 144.622 163.952 156.887 176.754 165.609C191.26 175.495 213.487 177.122 226.32 169.203C227.734 168.341 229.049 167.326 230.242 166.175C238.661 157.937 236.115 145.683 223.312 136.971" fill="url(#paint34_radial_11978_48506)"/>
<path d="M175.131 134.327C187.287 126.85 208.343 128.364 222.08 137.725C234.204 145.963 236.617 157.64 228.64 165.405C227.514 166.491 226.271 167.448 224.934 168.257C212.778 175.733 191.712 174.209 177.985 164.859C165.861 156.621 163.448 144.943 171.425 137.179C172.556 136.098 173.798 135.142 175.131 134.327ZM221.197 138.271C208.015 129.291 187.821 127.818 176.127 135.006C174.845 135.783 173.653 136.702 172.575 137.745C164.916 145.201 167.226 156.384 178.868 164.324C192.05 173.293 212.275 174.765 223.928 167.578C225.215 166.794 226.413 165.872 227.5 164.828C235.149 157.373 232.839 146.2 221.197 138.271Z" fill="url(#paint35_radial_11978_48506)"/>
<path d="M177.548 135.99C188.513 129.245 207.485 130.614 219.877 139.079C230.841 146.504 232.987 157.007 225.801 164.01C224.788 164.99 223.669 165.854 222.464 166.584C211.499 173.329 192.506 171.949 180.125 163.495C169.202 156.039 167.015 145.536 174.212 138.533C175.227 137.564 176.346 136.711 177.548 135.99ZM219.076 139.542C207.198 131.448 188.965 130.13 178.441 136.597C177.29 137.305 176.216 138.134 175.238 139.069C168.329 145.793 170.423 155.874 180.916 163.031C192.804 171.125 211.027 172.443 221.54 165.966C222.706 165.265 223.79 164.436 224.774 163.495C231.673 156.77 229.579 146.689 219.086 139.542" fill="url(#paint36_radial_11978_48506)"/>
<path d="M179.924 137.587C189.739 131.542 206.74 132.768 217.838 140.326C227.632 146.999 229.583 156.411 223.136 162.703C222.229 163.581 221.227 164.355 220.148 165.01C210.323 171.054 193.312 169.819 182.224 162.271C172.419 155.577 170.479 146.165 176.926 139.894C177.835 139.013 178.841 138.239 179.924 137.587ZM217.12 140.769C206.484 133.561 190.15 132.335 180.725 138.133C179.691 138.766 178.727 139.508 177.85 140.347C171.69 146.371 173.538 155.402 182.984 161.807C193.63 169.016 209.954 170.241 219.378 164.443C220.415 163.81 221.379 163.064 222.253 162.219C228.413 156.205 226.565 147.174 217.12 140.769Z" fill="url(#paint37_radial_11978_48506)"/>
<path d="M206.742 294.735C206.742 294.735 197.09 278.518 204.548 265.81C212.006 253.101 204.987 240.173 198.601 242.747C192.216 245.32 188.268 255.237 180.322 255.674C172.377 256.111 166.686 249.605 159.423 253.052C152.16 256.499 159.862 263.564 149.296 266.404C138.731 269.245 171.743 288.253 171.743 288.253L170.646 302.115L206.742 294.735Z" fill="#16D8A4"/>
<path d="M211.8 292.755C211.8 292.755 211.13 276.976 198.152 277.206C190.377 277.34 180.226 280.69 173.341 283.36C171.712 283.982 170.239 284.952 169.027 286.202C167.815 287.452 166.894 288.952 166.328 290.596C165.762 292.24 165.565 293.988 165.751 295.716C165.938 297.444 166.503 299.11 167.407 300.597L167.577 300.864L211.8 292.755Z" fill="#19806C"/>
<path d="M312.202 396.416H105.695C105.695 396.416 112.288 318.925 165.675 294.867C172.186 291.955 179.066 289.942 186.124 288.883C208.802 285.399 271.732 295.316 312.202 396.416Z" fill="#16D8A4"/>
<path d="M208.131 341.133L205.834 327.843C210.164 327.662 214.485 328.345 218.546 329.851L220.808 319.61C215.466 317.615 209.725 316.91 204.057 317.555L202.577 308.99L194.723 310.336L196.223 319.021C184.087 322.493 179.239 330.715 180.669 338.993C182.602 350.177 192.841 351.403 201.926 352.025L204.181 365.076C198.617 365.51 193.036 364.497 187.982 362.138L185.324 372.447C190.217 375.07 198.094 376.219 205.957 375.352L207.428 383.869L215.282 382.523L213.769 373.766C225.835 370.171 230.574 362.103 229.17 353.981C227.261 342.928 217.189 341.674 208.131 341.133ZM199.94 340.529C196.291 340.022 193.679 338.93 193.207 336.203C192.736 333.475 194.013 331.064 198.019 329.416L199.94 340.529ZM211.981 363.419L210.121 352.653C213.703 353.27 216.224 354.341 216.698 357.08C217.128 359.568 215.75 361.898 211.981 363.419Z" fill="#0AA979"/>
<g style="mix-blend-mode:multiply">
<path d="M237.988 396.417H105.695C105.695 396.417 112.288 318.926 165.675 294.868C165.675 294.868 74.5469 385.517 237.988 396.417Z" fill="#70C8BC"/>
</g>
<path d="M156.21 75.4749C156.21 75.4749 166.265 67.448 163.643 61.8603C161.02 56.2726 150.557 56.9818 148.177 70.8819C145.798 84.7819 156.21 75.4749 156.21 75.4749Z" fill="#FAAE7B"/>
<path d="M81.2886 124.856L82.7822 128.947L89.5295 147.483L89.6598 147.829L89.929 147.752C105.822 141.825 120.357 132.777 132.671 121.145C136.751 117.159 140.35 112.712 143.395 107.894C153.616 92.0995 159.026 74.0389 159.026 74.0389C159.026 74.0389 155.631 69.1345 148.024 67.9236L120.01 104.97C120.01 104.97 96.6416 118.083 81.2886 124.856Z" fill="#323949"/>
<g style="mix-blend-mode:multiply">
<path d="M89.5326 147.484L89.9321 147.753C105.825 141.826 120.36 132.778 132.674 121.146C136.754 117.16 140.354 112.713 143.398 107.895C143.398 107.895 122.357 138.861 82.7853 128.983C82.0257 128.881 81.2583 128.849 80.4928 128.888C63.733 127.919 73.5457 137.07 89.5326 147.484Z" fill="#26225A"/>
</g>
<path d="M84.8179 221.818C84.8786 231.947 86.7283 240.787 92.555 242.759C97.6002 244.489 103.418 244.878 108.906 244.67C111.889 244.534 114.863 244.246 117.816 243.806C119.153 243.607 120.421 243.399 121.584 243.183C126.282 242.318 129.4 241.384 129.4 241.384C129.4 241.384 123.868 236.081 118.528 199C118.267 197.189 118.01 195.301 117.755 193.335C117.234 189.425 116.713 185.213 116.218 180.654C112.093 143.21 101.178 130.797 94.9517 126.723C93.6033 125.743 92.0564 125.067 90.4188 124.743L89.0468 186.432C89.0468 186.432 88.1784 190.16 87.3101 195.687C86.1378 202.815 84.7571 212.814 84.8179 221.818Z" fill="#323949"/>
<path d="M117.248 378.128C117.248 378.128 120.113 385.403 127.355 387.011C134.598 388.62 137.472 391.933 137.689 396.664L105.959 396.396C105.959 396.396 104.066 390.532 106.107 378.682C108.147 366.832 117.248 378.128 117.248 378.128Z" fill="#0D101B"/>
<path d="M72.2456 223.134L72.8535 225.072L79.1058 245.148L81.0423 251.376L85.7489 266.504L96.8469 302.21L97.2724 307.149L98.5836 322.718L103.603 382.401C113.103 386.959 121.465 381.536 121.465 381.536C121.465 381.536 125.877 320.902 126.528 300.419C126.693 294.771 125.66 286.044 124.114 276.373C123.758 274.194 123.385 271.971 122.976 269.73C122.316 265.959 121.587 262.136 120.84 258.339C119.972 253.91 119.051 249.559 118.174 245.433C118.044 244.862 117.931 244.292 117.801 243.703C116.064 235.529 114.397 228.454 113.337 223.973C112.573 220.747 112.104 218.87 112.104 218.87L109.204 219.164L100.52 220.029L93.3299 220.782L84.8285 221.647L72.2456 223.134Z" fill="#181E27"/>
<g style="mix-blend-mode:multiply" opacity="0.5">
<path d="M79.1206 245.148L81.0571 251.376L85.7636 266.504L96.8613 302.21L97.2868 307.149L98.598 322.718C113.925 301.388 119.135 276.071 120.872 258.443C120.003 254.014 119.083 249.663 118.206 245.537C118.075 244.966 117.963 244.395 117.832 243.807C116.096 235.633 114.428 228.558 113.369 224.077C112.605 220.851 112.136 218.974 112.136 218.974L109.235 219.268L100.552 220.133L93.3618 220.886L79.1206 245.148Z" fill="#6D2337"/>
</g>
<path d="M46.5872 368.837C46.5872 368.837 45.7189 376.622 51.398 381.371C57.0771 386.119 58.067 390.41 56.0524 394.7L28.0737 379.797C28.0737 379.797 29.1245 373.742 36.4621 364.167C43.7998 354.591 46.5872 368.837 46.5872 368.837Z" fill="#0D101B"/>
<path d="M31.7065 368.016C38.1586 376.346 48.4316 375.368 48.4316 375.368C48.4316 375.368 79.6933 323.159 89.4974 305.15C99.3014 287.141 113.369 225.858 113.369 225.858L75.9072 211.69L72.3381 232.994L71.0877 240.442L62.2128 293.395L51.0454 320.737L45.427 334.464L31.7065 368.016Z" fill="#181E27"/>
<path d="M59.3081 218.256C60.0123 219.82 61.2401 221.092 62.7816 221.854C66.0336 223.263 69.4201 224.341 72.8896 225.072C74.6871 225.478 76.5281 225.824 78.4038 226.136H78.6209C85.8102 227.198 93.0631 227.776 100.33 227.866C103.865 227.935 106.921 227.909 109.162 227.866C111.672 227.796 113.174 227.71 113.174 227.71C113.243 226.49 113.304 225.262 113.374 224.068C113.374 223.991 113.374 223.93 113.374 223.852C117.029 151.8 96.5617 129.943 91.5511 125.67C91.1981 125.356 90.8238 125.067 90.4309 124.805L72.8375 123.075C72.8375 123.075 70.1281 132.114 66.9499 144.673C64.8484 153.011 62.5385 162.941 60.6802 172.845C61.2706 176.919 61.9827 181.002 62.7643 184.955C65.0481 196.666 62.5906 208.733 59.3081 218.256Z" fill="#FF6F5E"/>
<g style="mix-blend-mode:multiply" opacity="0.5">
<path d="M51.0386 320.736C82.7866 309.301 99.1556 245.709 99.1556 245.709L72.3313 233.028L71.0808 240.476L62.206 293.395L51.0386 320.736Z" fill="#A32E68"/>
</g>
<path d="M76.325 108.007L76.1948 109.953V110.048L75.144 125.194C75.144 125.194 84.7568 129.873 90.9743 125.488L90.7485 123.118L89.4026 108.932" fill="#FAAE7B"/>
<g style="mix-blend-mode:multiply">
<path d="M76.1782 109.953C76.1743 109.985 76.1743 110.017 76.1782 110.048C76.2477 111.207 77.3331 122.089 90.732 123.109L89.386 108.924L76.1956 109.953H76.1782Z" fill="#FAAE7B"/>
</g>
<path d="M6.77613 239.516L5.03937 249.204L2.8771 261.495C2.5588 263.314 2.97675 265.184 4.03948 266.696C5.10222 268.209 6.72318 269.24 8.54763 269.565L56.6126 278.016C57.5162 278.18 58.4436 278.164 59.341 277.969C60.2384 277.774 61.0881 277.403 61.8407 276.879C62.5934 276.354 63.2342 275.686 63.726 274.913C64.2178 274.141 64.5508 273.278 64.7059 272.376L66.8681 260.18L68.6049 250.415C68.9232 248.596 68.5053 246.726 67.4425 245.214C66.3798 243.701 64.7588 242.67 62.9344 242.345L14.8347 233.894C13.9348 233.735 13.0122 233.754 12.1198 233.951C11.2274 234.147 10.3826 234.517 9.63403 235.039C8.88542 235.562 8.24764 236.226 7.75722 236.994C7.26681 237.762 6.93341 238.62 6.77613 239.516Z" fill="#0F4C81"/>
<path d="M33.2958 226.023C31.655 225.736 29.9671 226.11 28.6028 227.062C27.2384 228.014 26.3091 229.466 26.0189 231.1L25.2026 235.711L29.7181 236.506L30.5344 231.887C30.5987 231.556 30.7657 231.254 31.012 231.023C31.2044 230.83 31.4408 230.687 31.701 230.606C31.9612 230.524 32.2373 230.507 32.5056 230.555L47.5369 233.202C47.977 233.287 48.3673 233.537 48.6262 233.901C48.8851 234.266 48.9927 234.716 48.9263 235.157L48.1101 239.776L52.6256 240.563L53.4418 235.953C53.7272 234.317 53.3501 232.634 52.3932 231.274C51.4362 229.914 49.9774 228.987 48.3358 228.696L33.2958 226.023Z" fill="#131922"/>
<path d="M6.77143 239.517L5.03467 249.222L66.8895 260.182L68.6263 250.416C68.9446 248.597 68.5266 246.727 67.4639 245.215C66.4011 243.702 64.7802 242.671 62.9557 242.346L14.8561 233.895C13.9543 233.732 13.029 233.748 12.1336 233.943C11.2381 234.138 10.3902 234.507 9.63875 235.03C8.88726 235.553 8.24701 236.218 7.7549 236.988C7.2628 237.758 6.92855 238.618 6.77143 239.517Z" fill="#072944"/>
<path d="M33.7554 259.211L36.4387 259.687C36.8601 259.762 37.2944 259.668 37.6462 259.425C37.9979 259.181 38.2382 258.809 38.3143 258.389L39.0004 254.557C39.0737 254.137 38.977 253.704 38.7313 253.354C38.4857 253.004 38.111 252.765 37.6891 252.689L35.0059 252.213C34.5885 252.148 34.162 252.248 33.8179 252.492C33.4737 252.736 33.2393 253.105 33.1649 253.519L32.4789 257.351C32.4026 257.766 32.4939 258.195 32.733 258.543C32.972 258.891 33.3395 259.131 33.7554 259.211Z" fill="#6FACDD"/>
<g style="mix-blend-mode:multiply" opacity="0.6">
<path d="M6.76745 239.534L5.03068 249.222L2.8771 261.496C2.5588 263.314 2.97675 265.185 4.03948 266.697C5.10221 268.209 6.72318 269.241 8.54763 269.566L56.6126 278.017C7.22769 268.779 6.77613 240.451 6.76745 239.534Z" fill="#2A519F"/>
</g>
<path d="M50.855 236.592C55.9958 242.578 64.7491 245.242 73.3461 246.28C81.9479 247.16 90.6262 246.968 99.1804 245.709C99.6957 239.47 100.072 233.536 100.309 227.908C100.408 225.717 100.483 223.572 100.535 221.473C100.683 216.075 100.7 210.972 100.631 206.146C99.3628 131.827 72.8424 123.057 72.8424 123.057C65.4612 126.058 61.649 133.056 60.0859 142.086C59.7499 143.999 59.5122 145.927 59.3738 147.864C58.818 155.562 59.4693 164.229 60.7024 172.844C61.2929 176.918 62.005 181.001 62.7865 184.954C65.0704 196.665 62.6129 208.732 59.313 218.255C57.1417 224.644 54.307 230.79 50.855 236.592Z" fill="#323949"/>
<g style="mix-blend-mode:multiply">
<path d="M50.855 236.593C55.9957 242.579 64.7488 245.243 73.3456 246.281C76.3901 239.979 78.1042 233.123 78.3821 226.136C79.2505 205.134 67.9617 188.198 75.1431 178.753C84.6951 166.159 84.8688 143.626 84.8688 143.626L75.1431 141.239L66.9458 144.699L59.3476 147.89C58.7918 155.589 59.4431 164.256 60.6762 172.871C61.2667 176.945 61.9787 181.027 62.7602 184.98C65.044 196.692 62.5866 208.758 59.2868 218.282C57.1221 224.661 54.2963 230.797 50.855 236.593Z" fill="#26225A"/>
</g>
<path d="M37.7884 219.821C37.7884 219.821 32.0485 231.317 36.7898 235.287C41.5311 239.257 50.6836 234.223 47.0104 220.582C43.3372 206.942 37.7884 219.821 37.7884 219.821Z" fill="#FAAE7B"/>
<path d="M67.5568 126.292C55.5196 138.347 46.0787 152.722 39.812 168.537C31.189 190.499 35.8522 222.338 35.8522 222.338C35.8522 222.338 40.993 225.357 48.409 223.264L58.1783 177.87C58.1783 177.87 73.8092 156.203 84.8637 143.626L67.5568 126.292Z" fill="#323949"/>
<path d="M92.0794 109.624C88.3715 117.919 72.1071 105.377 71.5513 101.839C70.4051 94.5991 72.0202 90.1186 74.1564 87.3766C74.3299 87.1396 74.5154 86.9115 74.7122 86.6933C76.1019 85.0687 77.9271 83.8717 79.9745 83.2421L91.6887 86.1051C91.6887 86.1051 91.8276 86.9701 92.0273 88.4232C92.2965 90.2743 92.6352 93.0595 92.8957 96.0436C93.2604 101.112 93.3299 106.769 92.0794 109.624Z" fill="#FAAE7B"/>
<g style="mix-blend-mode:multiply">
<path d="M92.863 96.0437C85.9161 97.5055 79.5683 92.9558 79.5683 92.9558C78.9668 94.5449 77.8909 95.9124 76.4856 96.8741L74.1324 87.3595L73.9761 86.754L74.6881 86.6761L83.0678 85.7506C86.1076 86.4669 89.1004 87.3681 92.0294 88.4493C92.2986 90.2744 92.6372 93.0596 92.863 96.0437Z" fill="#FAAE7B"/>
</g>
<path d="M73.4974 104.719C75.8073 100.394 78.2734 90.4209 78.2734 90.4209C78.2734 90.4209 93.3656 97.4531 97.5684 89.4522C101.771 81.4512 93.6087 76.2787 89.4406 79.2369C85.2724 82.1951 79.793 79.8683 72.1688 84.7294C61.705 91.3984 73.4974 104.719 73.4974 104.719Z" fill="#191918"/>
<path d="M77.8231 96.3651C77.8231 96.3651 79.7248 108.648 93.3234 103.605C93.3234 103.605 95.9285 112.618 85.8034 113.751C75.6782 114.884 73.5073 104.721 73.5073 104.721L76.1124 95.0244L77.8231 96.3651Z" fill="#191918"/>
<path d="M71.8693 98.8802C71.9133 99.6363 72.1813 100.362 72.6394 100.967C73.0974 101.571 73.7251 102.027 74.443 102.276C75.1609 102.526 75.9369 102.558 76.673 102.368C77.4091 102.178 78.0722 101.776 78.5787 101.211C79.0852 100.646 79.4123 99.9442 79.5187 99.1944C79.625 98.4445 79.5059 97.68 79.1764 96.9975C78.8469 96.315 78.3217 95.745 77.6672 95.3596C77.0127 94.9742 76.2582 94.7907 75.499 94.8322C74.9936 94.8598 74.4986 94.9865 74.0424 95.205C73.5862 95.4236 73.1778 95.7296 72.8406 96.1057C72.5034 96.4818 72.244 96.9204 72.0773 97.3965C71.9106 97.8726 71.8399 98.3768 71.8693 98.8802Z" fill="#FAAE7B"/>
<rect x="33.812" y="396.187" width="274.447" height="0.813595" fill="#3D3D3D"/>
<defs>
<filter id="filter0_f_11978_48506" x="119.475" y="126.969" width="154.069" height="115.69" filterUnits="userSpaceOnUse" color-interpolation-filters="sRGB">
<feFlood flood-opacity="0" result="BackgroundImageFix"/>
<feBlend mode="normal" in="SourceGraphic" in2="BackgroundImageFix" result="shape"/>
<feGaussianBlur stdDeviation="14.6724" result="effect1_foregroundBlur_11978_48506"/>
</filter>
<linearGradient id="paint0_linear_11978_48506" x1="174.654" y1="384.631" x2="161.049" y2="75.0794" gradientUnits="userSpaceOnUse">
<stop stop-color="#D5E2EA"/>
<stop offset="0.0520833" stop-color="#E2EBF0"/>
<stop offset="0.442708" stop-color="#E2EBF0"/>
<stop offset="0.609375" stop-color="#ECF2F5"/>
<stop offset="0.933412" stop-color="#E2EBF0"/>
<stop offset="1" stop-color="#D5E2EA"/>
</linearGradient>
<linearGradient id="paint1_linear_11978_48506" x1="254.006" y1="38.0684" x2="284.871" y2="80.0379" gradientUnits="userSpaceOnUse">
<stop stop-color="#D5E2EA"/>
<stop offset="0.0520833" stop-color="#E2EBF0"/>
<stop offset="0.442708" stop-color="#E2EBF0"/>
<stop offset="0.933412" stop-color="#E2EBF0"/>
<stop offset="1" stop-color="#D5E2EA"/>
</linearGradient>
<linearGradient id="paint2_linear_11978_48506" x1="276.361" y1="6.89617" x2="289.671" y2="24.9933" gradientUnits="userSpaceOnUse">
<stop stop-color="#D5E2EA"/>
<stop offset="0.0520833" stop-color="#E2EBF0"/>
<stop offset="0.442708" stop-color="#E2EBF0"/>
<stop offset="0.933412" stop-color="#E2EBF0"/>
<stop offset="1" stop-color="#D5E2EA"/>
</linearGradient>
<linearGradient id="paint3_linear_11978_48506" x1="190.802" y1="246.267" x2="186.589" y2="258.782" gradientUnits="userSpaceOnUse">
<stop stop-color="#F77532"/>
<stop offset="0.12" stop-color="#F47E30"/>
<stop offset="0.32" stop-color="#ED962B"/>
<stop offset="0.47" stop-color="#E7AB27"/>
<stop offset="0.61" stop-color="#EDB743"/>
<stop offset="0.93" stop-color="#FBD58A"/>
<stop offset="1" stop-color="#FFDC9B"/>
</linearGradient>
<radialGradient id="paint4_radial_11978_48506" cx="0" cy="0" r="1" gradientUnits="userSpaceOnUse" gradientTransform="translate(157.561 210.993) scale(90.9399 90.5824)">
<stop stop-color="#F7B732"/>
<stop offset="0.8" stop-color="#FFFFBE"/>
<stop offset="1" stop-color="#B6FFF9"/>
</radialGradient>
<linearGradient id="paint5_linear_11978_48506" x1="162.804" y1="210.653" x2="220.555" y2="241.197" gradientUnits="userSpaceOnUse">
<stop stop-color="#F77532"/>
<stop offset="0.19" stop-color="#F87E34"/>
<stop offset="0.49" stop-color="#FA963A"/>
<stop offset="0.86" stop-color="#FEBD44"/>
<stop offset="1" stop-color="#FFCD48"/>
</linearGradient>
<linearGradient id="paint6_linear_11978_48506" x1="165.936" y1="212.302" x2="218.314" y2="239.982" gradientUnits="userSpaceOnUse">
<stop stop-color="#F77532"/>
<stop offset="0.19" stop-color="#F87E34"/>
<stop offset="0.49" stop-color="#FA963A"/>
<stop offset="0.86" stop-color="#FEBD44"/>
<stop offset="1" stop-color="#FFCD48"/>
</linearGradient>
<linearGradient id="paint7_linear_11978_48506" x1="169.189" y1="213.997" x2="215.963" y2="238.741" gradientUnits="userSpaceOnUse">
<stop stop-color="#F77532"/>
<stop offset="0.19" stop-color="#F87E34"/>
<stop offset="0.49" stop-color="#FA963A"/>
<stop offset="0.86" stop-color="#FEBD44"/>
<stop offset="1" stop-color="#FFCD48"/>
</linearGradient>
<linearGradient id="paint8_linear_11978_48506" x1="172.389" y1="215.681" x2="213.689" y2="237.518" gradientUnits="userSpaceOnUse">
<stop stop-color="#F77532"/>
<stop offset="0.19" stop-color="#F87E34"/>
<stop offset="0.49" stop-color="#FA963A"/>
<stop offset="0.86" stop-color="#FEBD44"/>
<stop offset="1" stop-color="#FFCD48"/>
</linearGradient>
<linearGradient id="paint9_linear_11978_48506" x1="162.804" y1="210.346" x2="220.555" y2="240.875" gradientUnits="userSpaceOnUse">
<stop stop-color="#FFCD48"/>
<stop offset="0.3" stop-color="#FFE074"/>
<stop offset="0.6" stop-color="#FFF09B"/>
<stop offset="0.85" stop-color="#FFFAB3"/>
<stop offset="1" stop-color="#FFFEBC"/>
</linearGradient>
<linearGradient id="paint10_linear_11978_48506" x1="165.936" y1="211.99" x2="218.314" y2="239.685" gradientUnits="userSpaceOnUse">
<stop stop-color="#FFCD48"/>
<stop offset="0.3" stop-color="#FFE074"/>
<stop offset="0.6" stop-color="#FFF09B"/>
<stop offset="0.85" stop-color="#FFFAB3"/>
<stop offset="1" stop-color="#FFFEBC"/>
</linearGradient>
<linearGradient id="paint11_linear_11978_48506" x1="169.196" y1="213.696" x2="215.971" y2="238.44" gradientUnits="userSpaceOnUse">
<stop stop-color="#FFCD48"/>
<stop offset="0.3" stop-color="#FFE074"/>
<stop offset="0.6" stop-color="#FFF09B"/>
<stop offset="0.85" stop-color="#FFFAB3"/>
<stop offset="1" stop-color="#FFFEBC"/>
</linearGradient>
<linearGradient id="paint12_linear_11978_48506" x1="172.389" y1="215.383" x2="213.689" y2="237.221" gradientUnits="userSpaceOnUse">
<stop stop-color="#FFCD48"/>
<stop offset="0.3" stop-color="#FFE074"/>
<stop offset="0.6" stop-color="#FFF09B"/>
<stop offset="0.85" stop-color="#FFFAB3"/>
<stop offset="1" stop-color="#FFFEBC"/>
</linearGradient>
<linearGradient id="paint13_linear_11978_48506" x1="162.808" y1="210.343" x2="220.56" y2="240.874" gradientUnits="userSpaceOnUse">
<stop stop-color="#F77532"/>
<stop offset="0.19" stop-color="#F87E34"/>
<stop offset="0.49" stop-color="#FA963A"/>
<stop offset="0.86" stop-color="#FEBD44"/>
<stop offset="1" stop-color="#FFCD48"/>
</linearGradient>
<linearGradient id="paint14_linear_11978_48506" x1="162.48" y1="211.081" x2="220.231" y2="241.61" gradientUnits="userSpaceOnUse">
<stop stop-color="#F77532"/>
<stop offset="0.19" stop-color="#F87E34"/>
<stop offset="0.49" stop-color="#FA963A"/>
<stop offset="0.86" stop-color="#FEBD44"/>
<stop offset="1" stop-color="#FFCD48"/>
</linearGradient>
<radialGradient id="paint15_radial_11978_48506" cx="0" cy="0" r="1" gradientUnits="userSpaceOnUse" gradientTransform="translate(171.269 241.436) scale(22.5253 22.4372)">
<stop stop-color="#F7B732"/>
<stop offset="0.99" stop-color="#FFFFBE"/>
</radialGradient>
<linearGradient id="paint16_linear_11978_48506" x1="191.351" y1="197.996" x2="184.183" y2="224.891" gradientUnits="userSpaceOnUse">
<stop stop-color="#F77532"/>
<stop offset="0.12" stop-color="#F47E30"/>
<stop offset="0.32" stop-color="#ED962B"/>
<stop offset="0.47" stop-color="#E7AB27"/>
<stop offset="0.61" stop-color="#EDB743"/>
<stop offset="0.93" stop-color="#FBD58A"/>
<stop offset="1" stop-color="#FFDC9B"/>
</linearGradient>
<radialGradient id="paint17_radial_11978_48506" cx="0" cy="0" r="1" gradientUnits="userSpaceOnUse" gradientTransform="translate(157.705 212.676) scale(106.24 86.8286)">
<stop stop-color="#F7B732"/>
<stop offset="0.8" stop-color="#FFFFBE"/>
<stop offset="1" stop-color="#B6FFF9"/>
</radialGradient>
<linearGradient id="paint18_linear_11978_48506" x1="147.13" y1="208.981" x2="209.31" y2="158.263" gradientUnits="userSpaceOnUse">
<stop stop-color="#F77532"/>
<stop offset="0.19" stop-color="#F87E34"/>
<stop offset="0.49" stop-color="#FA963A"/>
<stop offset="0.86" stop-color="#FEBD44"/>
<stop offset="1" stop-color="#FFCD48"/>
</linearGradient>
<linearGradient id="paint19_linear_11978_48506" x1="147.135" y1="208.985" x2="209.316" y2="158.266" gradientUnits="userSpaceOnUse">
<stop stop-color="#F77532"/>
<stop offset="0.19" stop-color="#F87E34"/>
<stop offset="0.49" stop-color="#FA963A"/>
<stop offset="0.86" stop-color="#FEBD44"/>
<stop offset="1" stop-color="#FFCD48"/>
</linearGradient>
<linearGradient id="paint20_linear_11978_48506" x1="147.132" y1="208.986" x2="209.304" y2="158.269" gradientUnits="userSpaceOnUse">
<stop stop-color="#F77532"/>
<stop offset="0.19" stop-color="#F87E34"/>
<stop offset="0.49" stop-color="#FA963A"/>
<stop offset="0.86" stop-color="#FEBD44"/>
<stop offset="1" stop-color="#FFCD48"/>
</linearGradient>
<linearGradient id="paint21_linear_11978_48506" x1="147.133" y1="208.985" x2="209.314" y2="158.268" gradientUnits="userSpaceOnUse">
<stop stop-color="#F77532"/>
<stop offset="0.19" stop-color="#F87E34"/>
<stop offset="0.49" stop-color="#FA963A"/>
<stop offset="0.86" stop-color="#FEBD44"/>
<stop offset="1" stop-color="#FFCD48"/>
</linearGradient>
<linearGradient id="paint22_linear_11978_48506" x1="146.924" y1="208.723" x2="209.098" y2="158.014" gradientUnits="userSpaceOnUse">
<stop stop-color="#F77532"/>
<stop offset="0.19" stop-color="#F87E34"/>
<stop offset="0.49" stop-color="#FA963A"/>
<stop offset="0.86" stop-color="#FEBD44"/>
<stop offset="1" stop-color="#FFCD48"/>
</linearGradient>
<radialGradient id="paint23_radial_11978_48506" cx="0" cy="0" r="1" gradientUnits="userSpaceOnUse" gradientTransform="translate(151.192 210.417) scale(27.9419 22.8365)">
<stop stop-color="#F7B732"/>
<stop offset="0.99" stop-color="#FFFFBE"/>
</radialGradient>
<radialGradient id="paint24_radial_11978_48506" cx="0" cy="0" r="1" gradientUnits="userSpaceOnUse" gradientTransform="translate(151.197 210.419) scale(27.9419 22.8365)">
<stop stop-color="#F7B732"/>
<stop offset="0.99" stop-color="#FFFFBE"/>
</radialGradient>
<radialGradient id="paint25_radial_11978_48506" cx="0" cy="0" r="1" gradientUnits="userSpaceOnUse" gradientTransform="translate(151.197 210.418) scale(27.9419 22.8365)">
<stop stop-color="#F7B732"/>
<stop offset="0.99" stop-color="#FFFFBE"/>
</radialGradient>
<radialGradient id="paint26_radial_11978_48506" cx="0" cy="0" r="1" gradientUnits="userSpaceOnUse" gradientTransform="translate(151.194 210.419) scale(27.9413 22.8365)">
<stop stop-color="#F7B732"/>
<stop offset="0.99" stop-color="#FFFFBE"/>
</radialGradient>
<radialGradient id="paint27_radial_11978_48506" cx="0" cy="0" r="1" gradientUnits="userSpaceOnUse" gradientTransform="translate(151.196 210.419) scale(27.9413 22.8365)">
<stop stop-color="#F7B732"/>
<stop offset="0.99" stop-color="#FFFFBE"/>
</radialGradient>
<linearGradient id="paint28_linear_11978_48506" x1="193.208" y1="174.712" x2="181.295" y2="211.134" gradientUnits="userSpaceOnUse">
<stop stop-color="#F77532"/>
<stop offset="0.12" stop-color="#F47E30"/>
<stop offset="0.32" stop-color="#ED962B"/>
<stop offset="0.47" stop-color="#E7AB27"/>
<stop offset="0.61" stop-color="#EDB743"/>
<stop offset="0.93" stop-color="#FBD58A"/>
<stop offset="1" stop-color="#FFDC9B"/>
</linearGradient>
<radialGradient id="paint29_radial_11978_48506" cx="0" cy="0" r="1" gradientUnits="userSpaceOnUse" gradientTransform="translate(154.841 195.256) scale(121.165 121.533)">
<stop stop-color="#F7B732"/>
<stop offset="0.8" stop-color="#FFFFBE"/>
<stop offset="1" stop-color="#FBDA2E"/>
</radialGradient>
<linearGradient id="paint30_linear_11978_48506" x1="142.779" y1="190.088" x2="224.694" y2="135.647" gradientUnits="userSpaceOnUse">
<stop stop-color="#F77532"/>
<stop offset="0.19" stop-color="#F87E34"/>
<stop offset="0.49" stop-color="#FA963A"/>
<stop offset="0.86" stop-color="#FEBD44"/>
<stop offset="1" stop-color="#FFCD48"/>
</linearGradient>
<linearGradient id="paint31_linear_11978_48506" x1="142.781" y1="190.083" x2="224.695" y2="135.642" gradientUnits="userSpaceOnUse">
<stop stop-color="#F77532"/>
<stop offset="0.19" stop-color="#F87E34"/>
<stop offset="0.49" stop-color="#FA963A"/>
<stop offset="0.86" stop-color="#FEBD44"/>
<stop offset="1" stop-color="#FFCD48"/>
</linearGradient>
<linearGradient id="paint32_linear_11978_48506" x1="142.781" y1="190.089" x2="224.685" y2="135.648" gradientUnits="userSpaceOnUse">
<stop stop-color="#F77532"/>
<stop offset="0.19" stop-color="#F87E34"/>
<stop offset="0.49" stop-color="#FA963A"/>
<stop offset="0.86" stop-color="#FEBD44"/>
<stop offset="1" stop-color="#FFCD48"/>
</linearGradient>
<linearGradient id="paint33_linear_11978_48506" x1="142.542" y1="189.728" x2="224.446" y2="135.297" gradientUnits="userSpaceOnUse">
<stop stop-color="#F77532"/>
<stop offset="0.19" stop-color="#F87E34"/>
<stop offset="0.49" stop-color="#FA963A"/>
<stop offset="0.86" stop-color="#FEBD44"/>
<stop offset="1" stop-color="#FFCD48"/>
</linearGradient>
<radialGradient id="paint34_radial_11978_48506" cx="0" cy="0" r="1" gradientUnits="userSpaceOnUse" gradientTransform="translate(147.412 192.095) scale(31.8671 31.9639)">
<stop stop-color="#F7B732"/>
<stop offset="0.99" stop-color="#FFFFBE"/>
</radialGradient>
<radialGradient id="paint35_radial_11978_48506" cx="0" cy="0" r="1" gradientUnits="userSpaceOnUse" gradientTransform="translate(147.412 192.096) scale(31.8671 31.9639)">
<stop stop-color="#F7B732"/>
<stop offset="0.99" stop-color="#FFFFBE"/>
</radialGradient>
<radialGradient id="paint36_radial_11978_48506" cx="0" cy="0" r="1" gradientUnits="userSpaceOnUse" gradientTransform="translate(147.406 192.091) scale(31.8671 31.9639)">
<stop stop-color="#F7B732"/>
<stop offset="0.99" stop-color="#FFFFBE"/>
</radialGradient>
<radialGradient id="paint37_radial_11978_48506" cx="0" cy="0" r="1" gradientUnits="userSpaceOnUse" gradientTransform="translate(147.41 192.093) scale(31.8671 31.9639)">
<stop stop-color="#F7B732"/>
<stop offset="0.99" stop-color="#FFFFBE"/>
</radialGradient>
</defs>
</svg>
