    <svg
      xmlns="http://www.w3.org/2000/svg"
      width="32"
      height="32"
      fill="none"
      className="32"
      viewBox="0 0 32 32"
    >
      <path
        stroke="#00569F"
        strokeLinecap="round"
        strokeLinejoin="round"
        strokeWidth="1.968"
        d="M17.333 27.916c-.442.055-.888.082-1.333.083-6.628 0-12-5.372-12-12C4 9.372 9.372 4 16 4c6.627 0 11.999 5.372 11.999 12 0 .445-.028.89-.083 1.333M26.666 22.666l-3.333 3.333-2-2"
      ></path>
      <path
        stroke="#00569F"
        strokeLinecap="round"
        strokeLinejoin="round"
        strokeWidth="1.968"
        d="M15.999 20.833a.167.167 0 10.001.333.167.167 0 00-.001-.333M12.914 12.914a2.907 2.907 0 012.952-2.248 2.848 2.848 0 013 2.667c0 2.005-2.866 2.667-2.866 4"
      ></path>
    </svg>