<svg width="56" height="57" viewBox="0 0 56 57" fill="none" xmlns="http://www.w3.org/2000/svg">
<path d="M42.1405 21.9982L41.9632 19.3547C41.7999 16.9026 39.7654 14.9988 37.3086 14.9988H13.3753C10.9186 14.9988 8.88407 16.9026 8.72075 19.3547L7.01056 45.0215C6.83091 47.7139 8.96573 49.9957 11.6652 49.9957H13.9983" stroke="#323232" stroke-width="3.5" stroke-linecap="round" stroke-linejoin="round"/>
<path d="M18.3418 14.9988V12.6656C18.3418 8.79965 21.4752 5.66626 25.3412 5.66626V5.66626C29.2072 5.66626 32.3406 8.79965 32.3406 12.6656V14.9988" stroke="#323232" stroke-width="3.5" stroke-linecap="round" stroke-linejoin="round"/>
<path fill-rule="evenodd" clip-rule="evenodd" d="M24.9965 28.9976H45.9947C47.6535 28.9976 48.9951 30.3391 48.9951 31.998V46.9977C48.9951 48.6542 47.6535 49.9957 45.9947 49.9957H24.9965C23.34 49.9957 21.9961 48.6542 21.9961 46.9953V31.9956C21.9984 30.3391 23.34 28.9976 24.9965 28.9976V28.9976Z" fill="url(#paint0_linear_16227_20310)" stroke="#323232" stroke-width="3.5" stroke-linecap="round" stroke-linejoin="round"/>
<path d="M30.248 35.9969C30.248 38.897 32.5975 41.2465 35.4976 41.2465C38.3977 41.2465 40.7471 38.897 40.7471 35.9969" stroke="white" stroke-width="3.5" stroke-linecap="round" stroke-linejoin="round"/>
<defs>
<linearGradient id="paint0_linear_16227_20310" x1="35.4956" y1="28.9976" x2="35.4956" y2="49.9957" gradientUnits="userSpaceOnUse">
<stop stop-color="#3D3D3D"/>
<stop offset="1" stop-color="#028BFF"/>
</linearGradient>
</defs>
</svg>
