<svg width="32" height="32" viewBox="0 0 32 32" fill="none" xmlns="http://www.w3.org/2000/svg">
<path d="M6.92318 14.7051V26.3717" stroke="white" stroke-width="1.75" stroke-linecap="round" stroke-linejoin="round"/>
<path d="M25.0755 14.7051V26.3717" stroke="white" stroke-width="1.75" stroke-linecap="round" stroke-linejoin="round"/>
<path d="M18.5909 26.3707V21.1861C18.5909 19.7546 17.4301 18.5938 15.9986 18.5938C14.5671 18.5938 13.4062 19.7546 13.4062 21.1861V26.3707" stroke="white" stroke-width="1.75" stroke-linecap="round" stroke-linejoin="round"/>
<path d="M4.33398 26.3714H27.6673" stroke="white" stroke-width="1.75" stroke-linecap="round" stroke-linejoin="round"/>
<path fill-rule="evenodd" clip-rule="evenodd" d="M7.018 14.7037C5.037 14.6897 3.7455 12.7286 4.60417 11.0381L6.605 7.09823C7.06117 6.19989 8.02017 5.62939 9.0725 5.62939H22.9278C23.9802 5.62939 24.9392 6.19989 25.3953 7.09823L27.3973 11.0381C28.256 12.7286 26.9645 14.6897 24.9835 14.7037C23.3303 14.7037 21.9898 13.5744 21.9898 12.1802V12.1242C21.9898 13.5487 20.6493 14.7037 18.9962 14.7037C17.343 14.7037 16.0025 13.5487 16.0025 12.1242C16.0025 13.5487 14.662 14.7037 13.0088 14.7037C11.3557 14.7037 10.0152 13.5487 10.0152 12.1242V12.1802C10.0117 13.5744 8.67117 14.7037 7.018 14.7037Z" stroke="white" stroke-width="1.75" stroke-linecap="round" stroke-linejoin="round"/>
</svg>
